<svg width="52" height="52" viewBox="0 0 52 52" fill="none" xmlns="http://www.w3.org/2000/svg">
<path opacity="0.1" d="M26 52C40.3594 52 52 40.3594 52 26C52 11.6406 40.3594 0 26 0C11.6406 0 0 11.6406 0 26C0 40.3594 11.6406 52 26 52Z" fill="#808080"/>
<path d="M24.7498 18.6399L20.3197 16.4499C17.9297 15.2799 15.9697 16.4699 15.9697 19.0899V33.9298C15.9697 35.0698 16.9197 35.9998 18.0797 35.9998H25.4998C26.0498 35.9998 26.4998 35.5498 26.4998 34.9998V21.4098C26.4998 20.3598 25.7098 19.1099 24.7498 18.6399ZM22.9697 27.7498H19.4998C19.0898 27.7498 18.7498 27.4098 18.7498 26.9998C18.7498 26.5898 19.0898 26.2498 19.4998 26.2498H22.9697C23.3797 26.2498 23.7197 26.5898 23.7197 26.9998C23.7197 27.4098 23.3897 27.7498 22.9697 27.7498ZM22.9697 23.7498H19.4998C19.0898 23.7498 18.7498 23.4098 18.7498 22.9998C18.7498 22.5898 19.0898 22.2498 19.4998 22.2498H22.9697C23.3797 22.2498 23.7197 22.5898 23.7197 22.9998C23.7197 23.4098 23.3897 23.7498 22.9697 23.7498Z" fill="#2A9D8F"/>
<path d="M36 32.04V33.5001C36 34.8801 34.88 36.0001 33.5 36.0001H28.97C28.43 36.0001 28 35.5701 28 35.0301V32.8701C29.07 33.0001 30.2 32.69 31.01 32.04C31.69 32.59 32.56 32.92 33.51 32.92C34.44 32.92 35.31 32.59 36 32.04Z" fill="#2A9D8F"/>
<path d="M36 29.05V29.06C35.92 30.37 34.85 31.42 33.51 31.42C32.12 31.42 31.01 30.29 31.01 28.92C31.01 30.45 29.6 31.68 28 31.37V26C28 25.36 28.59 24.88 29.22 25.02L31.01 25.42L31.49 25.53L33.53 25.99C34.02 26.09 34.47 26.26 34.86 26.51C34.86 26.52 34.87 26.52 34.87 26.52C34.97 26.59 35.07 26.67 35.16 26.76C35.62 27.22 35.92 27.89 35.99 28.87C35.99 28.93 36 28.99 36 29.05Z" fill="#2A9D8F"/>
</svg>
