<svg width="50" height="17" viewBox="0 0 50 17" fill="none" xmlns="http://www.w3.org/2000/svg">
<mask id="mask0_54_918" style="mask-type:luminance" maskUnits="userSpaceOnUse" x="0" y="0" width="50" height="17">
<path d="M49.5 0H0.5V17H49.5V0Z" fill="white"/>
</mask>
<g mask="url(#mask0_54_918)">
<path d="M5.58997 15.2698V2.5498H6.40002V15.2698H5.58997ZM7.93994 6.61975C7.88994 6.17975 7.69998 5.83973 7.34998 5.59973C7.00998 5.35973 6.57002 5.23975 6.02002 5.23975C5.64002 5.23975 5.31003 5.29979 5.03003 5.40979C4.76003 5.52979 4.55002 5.68977 4.40002 5.88977C4.26002 6.08977 4.18005 6.3097 4.18005 6.5697C4.18005 6.7797 4.22995 6.95975 4.31995 7.11975C4.41995 7.27975 4.55997 7.40978 4.71997 7.51978C4.88997 7.61978 5.08004 7.70979 5.29004 7.78979C5.49004 7.85979 5.70003 7.91973 5.91003 7.96973L6.85999 8.20972C7.24999 8.29972 7.61997 8.4197 7.96997 8.5697C8.32997 8.7197 8.65005 8.91978 8.93005 9.14978C9.22005 9.37978 9.43999 9.65975 9.60999 9.98975C9.76999 10.3197 9.85999 10.6998 9.85999 11.1398C9.85999 11.7398 9.70002 12.2597 9.40002 12.7197C9.09002 13.1697 8.64996 13.5198 8.07996 13.7798C7.49996 14.0298 6.80999 14.1498 5.98999 14.1498C5.19999 14.1498 4.51005 14.0298 3.93005 13.7898C3.35005 13.5398 2.88995 13.1797 2.56995 12.7097C2.23995 12.2397 2.07004 11.6697 2.04004 10.9897H3.84998C3.87998 11.3497 3.99005 11.6398 4.18005 11.8798C4.37005 12.1098 4.63005 12.2898 4.93005 12.3998C5.24005 12.5198 5.58998 12.5797 5.97998 12.5797C6.37998 12.5797 6.73003 12.5198 7.03003 12.3998C7.34003 12.2798 7.57 12.1098 7.75 11.8898C7.92 11.6698 8.01001 11.4198 8.01001 11.1298C8.01001 10.8598 7.93003 10.6397 7.78003 10.4697C7.62003 10.2897 7.41001 10.1498 7.14001 10.0298C6.86001 9.90979 6.55005 9.80972 6.18005 9.70972L5.02002 9.4198C4.18002 9.1998 3.52003 8.8697 3.03003 8.4397C2.55003 7.9997 2.31006 7.40981 2.31006 6.67981C2.31006 6.07981 2.47005 5.55974 2.80005 5.10974C3.12005 4.65974 3.57 4.30981 4.13 4.05981C4.7 3.79981 5.33005 3.67981 6.05005 3.67981C6.77005 3.67981 7.39995 3.79981 7.94995 4.05981C8.48995 4.30981 8.91998 4.64973 9.22998 5.09973C9.54998 5.53973 9.70997 6.03975 9.71997 6.61975H7.93994ZM15.64 3.8197V13.9998H13.8V5.60974H13.74L11.36 7.12976V5.4397L13.89 3.8197H15.64ZM21.86 3.67981C22.35 3.67981 22.82 3.7697 23.28 3.9397C23.75 4.0997 24.17 4.37976 24.54 4.74976C24.91 5.12976 25.2 5.62977 25.42 6.25977C25.64 6.88977 25.75 7.66973 25.75 8.59973C25.75 9.46973 25.66 10.2497 25.47 10.9397C25.29 11.6297 25.02 12.2098 24.67 12.6798C24.32 13.1598 23.9 13.5198 23.41 13.7698C22.92 14.0098 22.37 14.1398 21.76 14.1398C21.11 14.1398 20.54 14.0098 20.05 13.7598C19.55 13.5098 19.15 13.1597 18.85 12.7297C18.54 12.2897 18.36 11.7897 18.29 11.2297H20.1C20.19 11.6297 20.38 11.9497 20.67 12.1897C20.96 12.4297 21.32 12.5398 21.76 12.5398C22.46 12.5398 23.01 12.2398 23.39 11.6198C23.77 11.0098 23.96 10.1597 23.96 9.0697H23.89C23.73 9.3597 23.52 9.6097 23.26 9.8197C23 10.0297 22.71 10.1898 22.38 10.3098C22.05 10.4198 21.71 10.4797 21.34 10.4797C20.75 10.4797 20.21 10.3298 19.73 10.0498C19.26 9.7598 18.88 9.36975 18.61 8.86975C18.33 8.37975 18.1899 7.8098 18.1899 7.1698C18.1899 6.5098 18.34 5.90976 18.64 5.37976C18.95 4.84976 19.3801 4.43976 19.9301 4.12976C20.4801 3.81976 21.13 3.66981 21.86 3.67981ZM21.87 5.1698C21.51 5.1698 21.19 5.25981 20.9 5.42981C20.61 5.60981 20.39 5.83977 20.22 6.13977C20.06 6.42977 19.98 6.75976 19.98 7.12976C19.98 7.48976 20.06 7.81974 20.22 8.10974C20.38 8.40974 20.6 8.63981 20.88 8.80981C21.16 8.98981 21.49 9.0697 21.85 9.0697C22.12 9.0697 22.37 9.0198 22.6 8.9198C22.83 8.8198 23.03 8.66975 23.2 8.48975C23.38 8.30975 23.52 8.09974 23.61 7.85974C23.71 7.61974 23.76 7.37974 23.76 7.10974C23.76 6.76974 23.67 6.43978 23.51 6.14978C23.34 5.84978 23.12 5.6197 22.84 5.4397C22.55 5.2597 22.23 5.1698 21.87 5.1698Z" fill="#102437"/>
<path d="M34.2999 4.85986L31.4899 15.3099H30.5698L33.3799 4.85986H34.2999ZM39.8699 10.0599V13.9999H38.8699V5.2699H39.8699V8.47986H39.9598C40.1098 8.13986 40.3399 7.86992 40.6499 7.66992C40.9599 7.46992 41.3699 7.36987 41.8799 7.36987C42.3299 7.36987 42.7199 7.45989 43.0499 7.63989C43.3899 7.80989 43.6498 8.08983 43.8298 8.44983C44.0198 8.81983 44.1199 9.27984 44.1199 9.83984V13.9999H43.1099V9.90991C43.1099 9.38991 42.9798 8.98983 42.7098 8.69983C42.4398 8.41983 42.0698 8.2699 41.5898 8.2699C41.2598 8.2699 40.9698 8.33986 40.7098 8.47986C40.4498 8.61986 40.2398 8.81984 40.0898 9.08984C39.9498 9.35984 39.8699 9.67994 39.8699 10.0599ZM45.9598 13.9999V7.44983H46.9299V8.43982H46.9999C47.1099 8.11982 47.3299 7.8599 47.6399 7.6499C47.9599 7.4499 48.3098 7.34985 48.6998 7.34985C48.7698 7.34985 48.8699 7.34986 48.9799 7.35986C49.0899 7.35986 49.1699 7.35987 49.2299 7.36987V8.38989C49.1899 8.37989 49.1199 8.36985 48.9899 8.34985C48.8699 8.32985 48.7499 8.31982 48.6099 8.31982C48.2999 8.31982 48.0099 8.3899 47.7599 8.5199C47.5199 8.6499 47.3199 8.83982 47.1699 9.06982C47.0299 9.29982 46.9598 9.55986 46.9598 9.85986V13.9999H45.9598Z" fill="#7C8996"/>
</g>
</svg>
