<svg width="50" height="18" viewBox="0 0 50 18" fill="none" xmlns="http://www.w3.org/2000/svg">
<mask id="mask0_54_939" style="mask-type:luminance" maskUnits="userSpaceOnUse" x="0" y="0" width="50" height="18">
<path d="M49.5 0.5H0.5V17.5H49.5V0.5Z" fill="white"/>
</mask>
<g mask="url(#mask0_54_939)">
<path d="M5.58997 15.7698V3.0498H6.40002V15.7698H5.58997ZM7.93994 7.11975C7.88994 6.67975 7.69998 6.33973 7.34998 6.09973C7.00998 5.85973 6.57002 5.73975 6.02002 5.73975C5.64002 5.73975 5.31003 5.79979 5.03003 5.90979C4.76003 6.02979 4.55002 6.18977 4.40002 6.38977C4.26002 6.58977 4.18005 6.8097 4.18005 7.0697C4.18005 7.2797 4.22995 7.45975 4.31995 7.61975C4.41995 7.77975 4.55997 7.90978 4.71997 8.01978C4.88997 8.11978 5.08004 8.20979 5.29004 8.28979C5.49004 8.35979 5.70003 8.41973 5.91003 8.46973L6.85999 8.70972C7.24999 8.79972 7.61997 8.9197 7.96997 9.0697C8.32997 9.2197 8.65005 9.41978 8.93005 9.64978C9.22005 9.87978 9.43999 10.1597 9.60999 10.4897C9.76999 10.8197 9.85999 11.1998 9.85999 11.6398C9.85999 12.2398 9.70002 12.7597 9.40002 13.2197C9.09002 13.6697 8.64996 14.0198 8.07996 14.2798C7.49996 14.5298 6.80999 14.6498 5.98999 14.6498C5.19999 14.6498 4.51005 14.5298 3.93005 14.2898C3.35005 14.0398 2.88995 13.6797 2.56995 13.2097C2.23995 12.7397 2.07004 12.1697 2.04004 11.4897H3.84998C3.87998 11.8497 3.99005 12.1398 4.18005 12.3798C4.37005 12.6098 4.63005 12.7898 4.93005 12.8998C5.24005 13.0198 5.58998 13.0797 5.97998 13.0797C6.37998 13.0797 6.73003 13.0198 7.03003 12.8998C7.34003 12.7798 7.57 12.6098 7.75 12.3898C7.92 12.1698 8.01001 11.9198 8.01001 11.6298C8.01001 11.3598 7.93003 11.1397 7.78003 10.9697C7.62003 10.7897 7.41001 10.6498 7.14001 10.5298C6.86001 10.4098 6.55005 10.3097 6.18005 10.2097L5.02002 9.9198C4.18002 9.6998 3.52003 9.3697 3.03003 8.9397C2.55003 8.4997 2.31006 7.90981 2.31006 7.17981C2.31006 6.57981 2.47005 6.05974 2.80005 5.60974C3.12005 5.15974 3.57 4.80981 4.13 4.55981C4.7 4.29981 5.33005 4.17981 6.05005 4.17981C6.77005 4.17981 7.39995 4.29981 7.94995 4.55981C8.48995 4.80981 8.91998 5.14973 9.22998 5.59973C9.54998 6.03973 9.70997 6.53975 9.71997 7.11975H7.93994ZM15.64 4.3197V14.4998H13.8V6.10974H13.74L11.36 7.62976V5.9397L13.89 4.3197H15.64ZM21.86 4.17981C22.35 4.17981 22.82 4.2697 23.28 4.4397C23.75 4.5997 24.17 4.87976 24.54 5.24976C24.91 5.62976 25.2 6.12977 25.42 6.75977C25.64 7.38977 25.75 8.16973 25.75 9.09973C25.75 9.96973 25.66 10.7497 25.47 11.4397C25.29 12.1297 25.02 12.7098 24.67 13.1798C24.32 13.6598 23.9 14.0198 23.41 14.2698C22.92 14.5098 22.37 14.6398 21.76 14.6398C21.11 14.6398 20.54 14.5098 20.05 14.2598C19.55 14.0098 19.15 13.6597 18.85 13.2297C18.54 12.7897 18.36 12.2897 18.29 11.7297H20.1C20.19 12.1297 20.38 12.4497 20.67 12.6897C20.96 12.9297 21.32 13.0398 21.76 13.0398C22.46 13.0398 23.01 12.7398 23.39 12.1198C23.77 11.5098 23.96 10.6597 23.96 9.5697H23.89C23.73 9.8597 23.52 10.1097 23.26 10.3197C23 10.5297 22.71 10.6898 22.38 10.8098C22.05 10.9198 21.71 10.9797 21.34 10.9797C20.75 10.9797 20.21 10.8298 19.73 10.5498C19.26 10.2598 18.88 9.86975 18.61 9.36975C18.33 8.87975 18.1899 8.3098 18.1899 7.6698C18.1899 7.0098 18.34 6.40976 18.64 5.87976C18.95 5.34976 19.3801 4.93976 19.9301 4.62976C20.4801 4.31976 21.13 4.16981 21.86 4.17981ZM21.87 5.6698C21.51 5.6698 21.19 5.75981 20.9 5.92981C20.61 6.10981 20.39 6.33977 20.22 6.63977C20.06 6.92977 19.98 7.25976 19.98 7.62976C19.98 7.98976 20.06 8.31974 20.22 8.60974C20.38 8.90974 20.6 9.13981 20.88 9.30981C21.16 9.48981 21.49 9.5697 21.85 9.5697C22.12 9.5697 22.37 9.5198 22.6 9.4198C22.83 9.3198 23.03 9.16975 23.2 8.98975C23.38 8.80975 23.52 8.59974 23.61 8.35974C23.71 8.11974 23.76 7.87974 23.76 7.60974C23.76 7.26974 23.67 6.93978 23.51 6.64978C23.34 6.34978 23.12 6.1197 22.84 5.9397C22.55 5.7597 22.23 5.6698 21.87 5.6698Z" fill="#102437"/>
<path d="M34.2999 5.35986L31.4899 15.8099H30.5698L33.3799 5.35986H34.2999ZM39.8699 10.5599V14.4999H38.8699V5.7699H39.8699V8.97986H39.9598C40.1098 8.63986 40.3399 8.36992 40.6499 8.16992C40.9599 7.96992 41.3699 7.86987 41.8799 7.86987C42.3299 7.86987 42.7199 7.95989 43.0499 8.13989C43.3899 8.30989 43.6498 8.58983 43.8298 8.94983C44.0198 9.31983 44.1199 9.77984 44.1199 10.3398V14.4999H43.1099V10.4099C43.1099 9.88991 42.9798 9.48983 42.7098 9.19983C42.4398 8.91983 42.0698 8.7699 41.5898 8.7699C41.2598 8.7699 40.9698 8.83986 40.7098 8.97986C40.4498 9.11986 40.2398 9.31984 40.0898 9.58984C39.9498 9.85984 39.8699 10.1799 39.8699 10.5599ZM45.9598 14.4999V7.94983H46.9299V8.93982H46.9999C47.1099 8.61982 47.3299 8.3599 47.6399 8.1499C47.9599 7.9499 48.3098 7.84985 48.6998 7.84985C48.7698 7.84985 48.8699 7.84986 48.9799 7.85986C49.0899 7.85986 49.1699 7.85987 49.2299 7.86987V8.88989C49.1899 8.87989 49.1199 8.86985 48.9899 8.84985C48.8699 8.82985 48.7499 8.81982 48.6099 8.81982C48.2999 8.81982 48.0099 8.8899 47.7599 9.0199C47.5199 9.1499 47.3199 9.33982 47.1699 9.56982C47.0299 9.79982 46.9598 10.0599 46.9598 10.3599V14.4999H45.9598Z" fill="#7C8996"/>
</g>
</svg>
