<svg width="52" height="52" viewBox="0 0 52 52" fill="none" xmlns="http://www.w3.org/2000/svg">
<path opacity="0.1" d="M26 52C40.3594 52 52 40.3594 52 26C52 11.6406 40.3594 0 26 0C11.6406 0 0 11.6406 0 26C0 40.3594 11.6406 52 26 52Z" fill="#808080"/>
<path d="M31 17.5H21C18 17.5 16 19 16 22.5V29.5C16 33 18 34.5 21 34.5H31C34 34.5 36 33 36 29.5V22.5C36 19 34 17.5 31 17.5ZM31.47 23.59L28.34 26.09C27.68 26.62 26.84 26.88 26 26.88C25.16 26.88 24.31 26.62 23.66 26.09L20.53 23.59C20.21 23.33 20.16 22.85 20.41 22.53C20.67 22.21 21.14 22.15 21.46 22.41L24.59 24.91C25.35 25.52 26.64 25.52 27.4 24.91L30.53 22.41C30.85 22.15 31.33 22.2 31.58 22.53C31.84 22.85 31.79 23.33 31.47 23.59Z" fill="#2A9D8F"/>
</svg>
