<svg width="51" height="52" viewBox="0 0 51 52" fill="none" xmlns="http://www.w3.org/2000/svg">
<path opacity="0.1" d="M25.5 51.5C39.5833 51.5 51 40.0833 51 26C51 11.9167 39.5833 0.5 25.5 0.5C11.4167 0.5 0 11.9167 0 26C0 40.0833 11.4167 51.5 25.5 51.5Z" fill="white" stroke="#0D1C2C"/>
<mask id="mask0_54_925" style="mask-type:luminance" maskUnits="userSpaceOnUse" x="12" y="13" width="27" height="26">
<path d="M38.25 13.25H12.75V38.75H38.25V13.25Z" fill="white"/>
</mask>
<g mask="url(#mask0_54_925)">
<path d="M18.4 28.6602L17.51 31.9701L14.27 32.0402C13.3 30.2402 12.75 28.1901 12.75 26.0001C12.75 23.8901 13.2601 21.8901 14.1801 20.1401L17.0601 20.6702L18.33 23.5402C18.06 24.3102 17.92 25.1401 17.92 26.0001C17.92 26.9401 18.09 27.8302 18.4 28.6602Z" fill="#FBBB00"/>
<path d="M38.0303 23.6201C38.1703 24.3901 38.2502 25.1901 38.2502 26.0001C38.2502 26.9101 38.1502 27.8002 37.9702 28.6602C37.3502 31.5802 35.7302 34.1401 33.4802 35.9401L29.8402 35.7601L29.3302 32.5402C30.8202 31.6702 31.9902 30.3002 32.6002 28.6602H25.7803V23.6201H32.7002H38.0303Z" fill="#518EF8"/>
<path d="M33.48 35.9401C31.3 37.7001 28.52 38.7501 25.5 38.7501C20.65 38.7501 16.42 36.0402 14.27 32.0402L18.4 28.6602C19.48 31.5302 22.25 33.5801 25.5 33.5801C26.9 33.5801 28.21 33.2002 29.33 32.5402L33.48 35.9401Z" fill="#28B446"/>
<path d="M33.6401 16.1899L29.5101 19.5699C28.3501 18.8399 26.9701 18.42 25.5001 18.42C22.1801 18.42 19.3501 20.56 18.3301 23.54L14.1802 20.14C16.3002 16.05 20.5701 13.25 25.5001 13.25C28.6001 13.25 31.4301 14.3499 33.6401 16.1899Z" fill="#F14336"/>
</g>
</svg>
