<svg width="52" height="52" viewBox="0 0 52 52" fill="none" xmlns="http://www.w3.org/2000/svg">
<path opacity="0.1" d="M26 52C40.3594 52 52 40.3594 52 26C52 11.6406 40.3594 0 26 0C11.6406 0 0 11.6406 0 26C0 40.3594 11.6406 52 26 52Z" fill="#808080"/>
<path d="M34.6201 22.45C33.5701 17.83 29.5401 15.75 26.0001 15.75C26.0001 15.75 26.0001 15.75 25.9901 15.75C22.4601 15.75 18.4201 17.82 17.3701 22.44C16.2001 27.6 19.3601 31.97 22.2201 34.72C23.2801 35.74 24.6401 36.25 26.0001 36.25C27.3601 36.25 28.7201 35.74 29.7701 34.72C32.6301 31.97 35.7901 27.61 34.6201 22.45ZM26.0001 27.46C24.2601 27.46 22.8501 26.05 22.8501 24.31C22.8501 22.57 24.2601 21.16 26.0001 21.16C27.7401 21.16 29.1501 22.57 29.1501 24.31C29.1501 26.05 27.7401 27.46 26.0001 27.46Z" fill="#2A9D8F"/>
</svg>
