<svg width="51" height="52" viewBox="0 0 51 52" fill="none" xmlns="http://www.w3.org/2000/svg">
<path opacity="0.1" d="M25.5 51.5C39.5833 51.5 51 40.0833 51 26C51 11.9167 39.5833 0.5 25.5 0.5C11.4167 0.5 0 11.9167 0 26C0 40.0833 11.4167 51.5 25.5 51.5Z" fill="white" stroke="#0D1C2C"/>
<mask id="mask0_54_966" style="mask-type:luminance" maskUnits="userSpaceOnUse" x="12" y="13" width="27" height="26">
<path d="M38.25 13.25H12.75V38.75H38.25V13.25Z" fill="white"/>
</mask>
<g mask="url(#mask0_54_966)">
<mask id="mask1_54_966" style="mask-type:luminance" maskUnits="userSpaceOnUse" x="12" y="18" width="27" height="16">
<path d="M38.25 18.5601H12.75V33.4351H38.25V18.5601Z" fill="white"/>
</mask>
<g mask="url(#mask1_54_966)">
<path d="M19.9399 18.5898C23.9099 18.5898 27.13 21.9099 27.13 25.9999C27.13 30.0899 23.9099 33.4099 19.9399 33.4099C15.9699 33.4099 12.75 30.0899 12.75 25.9999C12.75 21.9099 15.9699 18.5898 19.9399 18.5898ZM31.4301 19.0299C33.4101 19.0299 35.02 22.1499 35.02 25.9999C35.02 29.8499 33.4101 32.9698 31.4301 32.9698C29.4401 32.9698 27.83 29.8499 27.83 25.9999C27.83 22.1499 29.4401 19.0299 31.4301 19.0299ZM36.99 19.7499C37.68 19.7499 38.25 22.5499 38.25 25.9999C38.25 29.4499 37.68 32.2499 36.99 32.2499C36.29 32.2499 35.72 29.4499 35.72 25.9999C35.72 22.5499 36.29 19.7499 36.99 19.7499Z" fill="#0D1C2C"/>
</g>
</g>
</svg>
