<svg width="51" height="51" viewBox="0 0 51 51" fill="none" xmlns="http://www.w3.org/2000/svg">
<path opacity="0.1" d="M25.5 51C39.5833 51 51 39.5833 51 25.5C51 11.4167 39.5833 0 25.5 0C11.4167 0 0 11.4167 0 25.5C0 39.5833 11.4167 51 25.5 51Z" fill="white" stroke="#0D1C2C"/>
<mask id="mask0_54_946" style="mask-type:luminance" maskUnits="userSpaceOnUse" x="11" y="11" width="29" height="29">
<path d="M39.6634 11.3301H11.3301V39.6634H39.6634V11.3301Z" fill="white"/>
</mask>
<g mask="url(#mask0_54_946)">
<path d="M14.3999 28.4901C14.3999 29.5701 14.6298 30.3901 14.9398 30.8901C15.1098 31.1801 15.3499 31.4201 15.6299 31.5801C15.9199 31.7401 16.2498 31.8301 16.5798 31.8201C17.3698 31.8201 18.0999 31.6301 19.5099 29.6901C20.6399 28.1401 21.9699 25.9601 22.8599 24.5901L24.3799 22.2802C25.4299 20.6702 26.6399 18.8802 28.0399 17.6702C29.1799 16.6802 30.4099 16.1401 31.6399 16.1401C33.7199 16.1401 35.6998 17.3301 37.2098 19.5801C38.8698 22.0401 39.6699 25.1401 39.6699 28.3301C39.6699 30.2301 39.2999 31.6301 38.6599 32.7301C38.0399 33.8001 36.8299 34.8601 34.7999 34.8601V31.8201C36.5399 31.8201 36.9698 30.2402 36.9698 28.4202C36.9698 25.8302 36.3599 22.9501 35.0199 20.9001C34.0699 19.4401 32.8399 18.5502 31.4899 18.5502C30.0299 18.5502 28.8499 19.6501 27.5299 21.6101C26.8199 22.6501 26.0999 23.9201 25.2899 25.3501L24.3999 26.9202C22.5999 30.0802 22.1499 30.8001 21.2499 31.9901C19.6899 34.0801 18.3398 34.8601 16.5798 34.8601C14.4798 34.8601 13.1598 33.9601 12.3398 32.6001C11.6698 31.4901 11.3398 30.0401 11.3398 28.3801L14.3999 28.4901Z" fill="#0081FB"/>
<path d="M13.75 19.7902C15.15 17.6402 17.18 16.1401 19.5 16.1401C20.84 16.1401 22.18 16.5302 23.58 17.6702C25.1 18.9102 26.73 20.9501 28.76 24.3201L29.49 25.5201C31.25 28.4401 32.25 29.9401 32.83 30.6401C33.59 31.5501 34.11 31.8201 34.8 31.8201C36.54 31.8201 36.97 30.2302 36.97 28.4102L39.67 28.3301C39.67 30.2301 39.29 31.6301 38.65 32.7301C38.04 33.8001 36.83 34.8601 34.8 34.8601C33.54 34.8601 32.4201 34.5902 31.1801 33.4302C30.2301 32.5402 29.12 30.9602 28.27 29.5402L25.73 25.3102C24.45 23.1902 23.28 21.6101 22.61 20.9001C21.88 20.1301 20.94 19.2001 19.45 19.2001C18.24 19.2001 17.21 20.0401 16.35 21.3301L13.75 19.7902Z" fill="url(#paint0_linear_54_946)"/>
<path d="M19.4498 19.2001C18.2398 19.2001 17.2099 20.0401 16.3599 21.3301C15.1399 23.1601 14.3999 25.8801 14.3999 28.4901C14.3999 29.5701 14.6298 30.3901 14.9398 30.8901L12.3398 32.6001C11.6698 31.4901 11.3398 30.0401 11.3398 28.3801C11.3398 25.3601 12.1699 22.2202 13.7499 19.7902C15.1499 17.6402 17.1799 16.1401 19.4999 16.1401L19.4498 19.2001Z" fill="url(#paint1_linear_54_946)"/>
</g>
<defs>
<linearGradient id="paint0_linear_54_946" x1="17.48" y1="25.0101" x2="36.99" y2="26.0001" gradientUnits="userSpaceOnUse">
<stop stop-color="#0064E1"/>
<stop offset="0.4" stop-color="#0064E1"/>
<stop offset="0.83" stop-color="#0073EE"/>
<stop offset="1" stop-color="#0082FB"/>
</linearGradient>
<linearGradient id="paint1_linear_54_946" x1="15.4199" y1="29.7701" x2="15.4199" y2="22.6101" gradientUnits="userSpaceOnUse">
<stop stop-color="#0082FB"/>
<stop offset="1" stop-color="#0064E0"/>
</linearGradient>
</defs>
</svg>
