<svg width="17" height="18" viewBox="0 0 17 18" fill="none" xmlns="http://www.w3.org/2000/svg">
<path d="M16.2963 7.94979L15.1622 6.63279C14.9462 6.38279 14.7712 5.91679 14.7712 5.58279V4.1668C14.7712 3.2828 14.0462 2.55779 13.1622 2.55779H11.7463C11.4213 2.55779 10.9463 2.3828 10.6963 2.1668L9.37928 1.0328C8.80428 0.541801 7.86224 0.541801 7.27924 1.0328L5.97126 2.1748C5.72126 2.3828 5.24627 2.55779 4.92127 2.55779H3.47925C2.59625 2.55779 1.87128 3.2828 1.87128 4.1668V5.59179C1.87128 5.91679 1.69625 6.38279 1.48725 6.63279L0.36225 7.95779C-0.12075 8.53279 -0.12075 9.4668 0.36225 10.0418L1.48725 11.3668C1.69625 11.6168 1.87128 12.0828 1.87128 12.4078V13.8328C1.87128 14.7168 2.59625 15.4418 3.47925 15.4418H4.92127C5.24627 15.4418 5.72126 15.6168 5.97126 15.8328L7.28724 16.9668C7.86224 17.4578 8.80427 17.4578 9.38727 16.9668L10.7043 15.8328C10.9543 15.6168 11.4213 15.4418 11.7543 15.4418H13.1713C14.0543 15.4418 14.7792 14.7168 14.7792 13.8328V12.4168C14.7792 12.0918 14.9543 11.6168 15.1713 11.3668L16.3043 10.0498C16.7873 9.4748 16.7873 8.52479 16.2963 7.94979ZM11.7963 7.4248L7.77125 11.4498C7.65425 11.5668 7.49629 11.6328 7.32929 11.6328C7.16229 11.6328 7.00427 11.5668 6.88727 11.4498L4.87128 9.43279C4.62928 9.19179 4.62928 8.7918 4.87128 8.5498C5.11228 8.3078 5.51228 8.3078 5.75428 8.5498L7.32929 10.1248L10.9122 6.5418C11.1542 6.2998 11.5543 6.2998 11.7963 6.5418C12.0373 6.7828 12.0373 7.1828 11.7963 7.4248Z" fill="#1A73E8"/>
</svg>
