<svg width="52" height="52" viewBox="0 0 52 52" fill="none" xmlns="http://www.w3.org/2000/svg">
<path opacity="0.1" d="M26 52C40.3594 52 52 40.3594 52 26C52 11.6406 40.3594 0 26 0C11.6406 0 0 11.6406 0 26C0 40.3594 11.6406 52 26 52Z" fill="#808080"/>
<path d="M35.09 20.98C34.24 20.04 32.82 19.57 30.76 19.57H30.52V19.53C30.52 17.85 30.52 15.77 26.76 15.77H25.24C21.48 15.77 21.48 17.86 21.48 19.53V19.58H21.24C19.17 19.58 17.76 20.05 16.91 20.99C15.92 22.09 15.95 23.57 16.05 24.58L16.06 24.65L16.14 25.463C16.15 25.613 16.23 25.748 16.36 25.831C16.6 25.988 17 26.246 17.24 26.38C17.38 26.47 17.53 26.55 17.68 26.63C19.39 27.57 21.27 28.2 23.18 28.51C23.27 29.45 23.68 30.55 25.87 30.55C28.06 30.55 28.4901 29.46 28.5601 28.49C30.6 28.16 32.57 27.45 34.35 26.41C34.41 26.38 34.45 26.35 34.5 26.32C34.9 26.096 35.31 25.819 35.68 25.549C35.8 25.467 35.87 25.341 35.88 25.203L35.9 25.06L35.9499 24.59C35.9599 24.53 35.96 24.48 35.97 24.41C36.05 23.4 36.03 22.02 35.09 20.98ZM27.09 27.83C27.09 28.89 27.09 29.05 25.86 29.05C24.63 29.05 24.63 28.86 24.63 27.84V26.58H27.09V27.83ZM22.91 19.57V19.53C22.91 17.83 22.91 17.2 25.24 17.2H26.76C29.09 17.2 29.09 17.84 29.09 19.53V19.58H22.91V19.57Z" fill="#2A9D8F"/>
<path d="M34.8697 27.7338C35.2297 27.5658 35.6297 27.8458 35.5997 28.2358L35.2397 32.1898C35.0297 34.1898 34.2098 36.2298 29.8098 36.2298H22.1897C17.7897 36.2298 16.9697 34.1898 16.7597 32.1998L16.4198 28.4519C16.3798 28.0669 16.7797 27.7868 17.1297 27.9458C18.2697 28.4618 20.3798 29.3758 21.6798 29.7168C21.8398 29.7598 21.9698 29.8768 22.0498 30.0308C22.6498 31.3288 23.9697 32.0198 25.8697 32.0198C27.7497 32.0198 29.0897 31.3028 29.6897 30.0008C29.7697 29.8468 29.8998 29.7298 30.0598 29.6868C31.4398 29.3238 33.6797 28.3008 34.8697 27.7338Z" fill="#2A9D8F"/>
</svg>
