<svg width="170" height="174" viewBox="0 0 170 174" fill="none" xmlns="http://www.w3.org/2000/svg">
<path d="M84.7915 10.8482C44.0212 10.8482 10.9634 44.8506 10.9634 86.7857C10.9634 128.721 44.0212 162.723 84.7915 162.723C125.562 162.723 158.62 128.721 158.62 86.7857C158.62 44.8506 125.562 10.8482 84.7915 10.8482ZM116.679 61.9874L81.9735 111.482C81.4884 112.179 80.849 112.746 80.1081 113.138C79.3673 113.529 78.5464 113.733 77.7136 113.733C76.8807 113.733 76.0598 113.529 75.319 113.138C74.5781 112.746 73.9387 112.179 73.4536 111.482L52.9037 82.1922C52.2775 81.2938 52.9037 80.0395 53.9749 80.0395H61.7037C63.3846 80.0395 64.9832 80.87 65.9719 82.2939L77.7053 99.0408L103.611 62.0891C104.6 60.6822 106.182 59.8347 107.879 59.8347H115.608C116.679 59.8347 117.306 61.089 116.679 61.9874V61.9874Z" fill="white"/>
</svg>
