<svg width="24" height="24" viewBox="0 0 24 24" fill="none" xmlns="http://www.w3.org/2000/svg">
<mask id="mask0_9_1851" style="mask-type:luminance" maskUnits="userSpaceOnUse" x="0" y="0" width="24" height="24">
<path d="M18 0H6C2.68629 0 0 2.68629 0 6V18C0 21.3137 2.68629 24 6 24H18C21.3137 24 24 21.3137 24 18V6C24 2.68629 21.3137 0 18 0Z" fill="white"/>
</mask>
<g mask="url(#mask0_9_1851)">
<path d="M11.995 0C5.361 0 0 5.371 0 12C0 17.08 3.15901 21.42 7.62201 23.17C7.51301 22.22 7.42401 20.76 7.66101 19.73C7.87801 18.79 9.06299 13.76 9.06299 13.76C9.06299 13.76 8.70801 13.04 8.70801 11.99C8.70801 10.32 9.675 9.073 10.879 9.073C11.906 9.073 12.4 9.84301 12.4 10.76C12.4 11.79 11.748 13.33 11.403 14.76C11.116 15.95 12.005 16.93 13.18 16.93C15.312 16.93 16.951 14.68 16.951 11.44C16.951 8.569 14.888 6.565 11.936 6.565C8.52 6.565 6.51599 9.12202 6.51599 11.77C6.51599 12.79 6.91099 13.9 7.40399 14.5C7.50299 14.62 7.513 14.73 7.483 14.85C7.394 15.22 7.18701 16.04 7.14801 16.21C7.09801 16.43 6.97001 16.48 6.74301 16.37C5.26201 15.66 4.33401 13.47 4.33401 11.71C4.33401 7.92802 7.07899 4.45203 12.262 4.45203C16.418 4.45203 19.656 7.414 19.656 11.38C19.656 15.52 17.05 18.85 13.436 18.85C12.222 18.85 11.077 18.21 10.692 17.46C10.692 17.46 10.09 19.75 9.94199 20.32C9.67499 21.36 8.94399 22.67 8.45099 23.47C9.57599 23.81 10.761 24 12.005 24C18.629 24 24 18.63 24 12C23.99 5.371 18.619 0 11.995 0Z" fill="#BD081C"/>
</g>
</svg>
