<svg width="192" height="54" viewBox="0 0 192 54" fill="none" xmlns="http://www.w3.org/2000/svg">
<path d="M184.82 54H7.10846C3.20059 54 0 50.9608 0 47.25V6.75006C0 3.03926 3.20059 7.37164e-05 7.10846 7.37164e-05H184.82C188.728 7.37164e-05 191.928 3.03926 191.928 6.75006V47.25C191.928 50.9608 188.728 54 184.82 54Z" fill="black"/>
<path d="M184.82 1.08176C188.111 1.08176 190.789 3.62482 190.789 6.75006V47.25C190.789 50.3753 188.111 52.9183 184.82 52.9183H7.10846C3.81724 52.9183 1.13913 50.3753 1.13913 47.25V6.75006C1.13913 3.62482 3.81724 1.08176 7.10846 1.08176H184.82ZM184.82 7.37164e-05H7.10846C3.20059 7.37164e-05 0 3.03926 0 6.75006V47.25C0 50.9608 3.20059 54 7.10846 54H184.82C188.728 54 191.928 50.9608 191.928 47.25V6.75006C191.928 3.03926 188.728 7.37164e-05 184.82 7.37164e-05Z" fill="#A6A6A6"/>
<path d="M67.4131 13.8289C67.4131 14.9561 67.0577 15.8589 66.3575 16.5323C65.5525 17.3304 64.504 17.7321 63.2191 17.7321C61.9911 17.7321 60.9426 17.3237 60.0825 16.5188C59.2206 15.702 58.7905 14.6996 58.7905 13.4998C58.7905 12.3 59.2206 11.2976 60.0825 10.4876C60.9426 9.67595 61.9911 9.26758 63.2191 9.26758C63.8304 9.26758 64.4133 9.38739 64.9696 9.61014C65.524 9.83458 65.9754 10.1383 66.3024 10.513L65.5596 11.2251C64.9891 10.5855 64.2125 10.27 63.2191 10.27C62.3234 10.27 61.5468 10.567 60.8875 11.166C60.2353 11.7668 59.9083 12.5447 59.9083 13.4998C59.9083 14.4549 60.2353 15.2396 60.8875 15.8404C61.5468 16.4327 62.3234 16.7364 63.2191 16.7364C64.1699 16.7364 64.9696 16.4327 65.6004 15.8336C66.0163 15.4371 66.2526 14.8903 66.3148 14.1917H63.2191V13.2163H67.3491C67.3989 13.4273 67.4131 13.6314 67.4131 13.8289V13.8289Z" fill="white" stroke="white" stroke-width="0.16" stroke-miterlimit="10"/>
<path d="M73.9655 10.4471H70.0861V13.0121H73.5834V13.9874H70.0861V16.5524H73.9655V17.5464H68.9878V9.45312H73.9655V10.4471Z" fill="white" stroke="white" stroke-width="0.16" stroke-miterlimit="10"/>
<path d="M78.5894 17.5464H77.4911V10.4471H75.1116V9.45312H80.9707V10.4471H78.5894V17.5464V17.5464Z" fill="white" stroke="white" stroke-width="0.16" stroke-miterlimit="10"/>
<path d="M85.2109 17.5464V9.45312H86.3082V17.5464H85.2109Z" fill="white" stroke="white" stroke-width="0.16" stroke-miterlimit="10"/>
<path d="M91.168 17.5464H90.0786V10.4471H87.6902V9.45312H93.5564V10.4471H91.168V17.5464Z" fill="white" stroke="white" stroke-width="0.16" stroke-miterlimit="10"/>
<path d="M104.649 16.5053C103.809 17.3237 102.767 17.7321 101.525 17.7321C100.276 17.7321 99.2342 17.3237 98.3936 16.5053C97.5548 15.6885 97.1372 14.6861 97.1372 13.4998C97.1372 12.3135 97.5548 11.3111 98.3936 10.4944C99.2342 9.67595 100.276 9.26758 101.525 9.26758C102.76 9.26758 103.801 9.67595 104.642 10.5011C105.488 11.3246 105.906 12.3203 105.906 13.4998C105.906 14.6861 105.488 15.6885 104.649 16.5053ZM99.2058 15.8269C99.8384 16.4327 100.608 16.7364 101.525 16.7364C102.435 16.7364 103.211 16.4327 103.837 15.8269C104.468 15.2211 104.788 14.4431 104.788 13.4998C104.788 12.5565 104.468 11.7786 103.837 11.1728C103.211 10.567 102.435 10.2632 101.525 10.2632C100.608 10.2632 99.8384 10.567 99.2058 11.1728C98.5749 11.7786 98.255 12.5565 98.255 13.4998C98.255 14.4431 98.5749 15.2211 99.2058 15.8269V15.8269Z" fill="white" stroke="white" stroke-width="0.16" stroke-miterlimit="10"/>
<path d="M107.447 17.5464V9.45312H108.779L112.924 15.7475H112.972L112.924 14.1916V9.45312H114.02V17.5464H112.876L108.536 10.9415H108.488L108.536 12.5041V17.5464H107.447V17.5464Z" fill="white" stroke="white" stroke-width="0.16" stroke-miterlimit="10"/>
<path d="M96.8667 29.3662C93.5275 29.3662 90.7996 31.7793 90.7996 35.1087C90.7996 38.4111 93.5275 40.8496 96.8667 40.8496C100.213 40.8496 102.941 38.4111 102.941 35.1087C102.941 31.7793 100.213 29.3662 96.8667 29.3662ZM96.8667 38.5883C95.0345 38.5883 93.4582 37.1523 93.4582 35.1087C93.4582 33.0382 95.0345 31.6274 96.8667 31.6274C98.6989 31.6274 100.282 33.0382 100.282 35.1087C100.282 37.1523 98.6989 38.5883 96.8667 38.5883V38.5883ZM83.629 29.3662C80.2826 29.3662 77.5619 31.7793 77.5619 35.1087C77.5619 38.4111 80.2826 40.8496 83.629 40.8496C86.9735 40.8496 89.696 38.4111 89.696 35.1087C89.696 31.7793 86.9735 29.3662 83.629 29.3662ZM83.629 38.5883C81.795 38.5883 80.2133 37.1523 80.2133 35.1087C80.2133 33.0382 81.795 31.6274 83.629 31.6274C85.4612 31.6274 87.0375 33.0382 87.0375 35.1087C87.0375 37.1523 85.4612 38.5883 83.629 38.5883ZM67.8766 31.1262V33.5663H74.013C73.8335 34.9298 73.3537 35.9322 72.618 36.6308C71.7223 37.4746 70.3273 38.4111 67.8766 38.4111C64.1002 38.4111 61.1431 35.5171 61.1431 31.9312C61.1431 28.3452 64.1002 25.4512 67.8766 25.4512C69.9185 25.4512 71.4042 26.2089 72.5007 27.191L74.3115 25.4714C72.7779 24.0809 70.7378 23.0127 67.8766 23.0127C62.6981 23.0127 58.3459 27.0138 58.3459 31.9312C58.3459 36.8485 62.6981 40.8496 67.8766 40.8496C70.6756 40.8496 72.7779 39.9788 74.4306 38.3453C76.1242 36.7371 76.652 34.4759 76.652 32.65C76.652 32.083 76.6022 31.5616 76.5134 31.1262H67.8766ZM132.29 33.0179C131.791 31.7337 130.25 29.3662 127.111 29.3662C124.001 29.3662 121.412 31.6932 121.412 35.1087C121.412 38.3251 123.975 40.8496 127.41 40.8496C130.188 40.8496 131.791 39.2414 132.45 38.3048L130.388 37.0004C129.701 37.9555 128.764 38.5883 127.41 38.5883C126.065 38.5883 125.1 38.0028 124.481 36.8485L132.569 33.671L132.29 33.0179V33.0179ZM124.044 34.9298C123.975 32.7158 125.855 31.5818 127.202 31.5818C128.258 31.5818 129.153 32.083 129.452 32.8002L124.044 34.9298V34.9298ZM117.471 40.5003H120.129V23.6253H117.471V40.5003ZM113.117 30.6453H113.028C112.431 29.9737 111.292 29.3662 109.849 29.3662C106.82 29.3662 104.052 31.8907 104.052 35.1273C104.052 38.3453 106.82 40.8496 109.849 40.8496C111.292 40.8496 112.431 40.237 113.028 39.5451H113.117V40.3686C113.117 42.5641 111.882 43.7436 109.889 43.7436C108.265 43.7436 107.257 42.6299 106.842 41.6933L104.53 42.6096C105.196 44.1318 106.961 46.0049 109.889 46.0049C113.006 46.0049 115.637 44.2634 115.637 40.0261V29.7155H113.117V30.6453V30.6453ZM110.076 38.5883C108.244 38.5883 106.71 37.132 106.71 35.1273C106.71 33.104 108.244 31.6274 110.076 31.6274C111.882 31.6274 113.305 33.104 113.305 35.1273C113.305 37.132 111.882 38.5883 110.076 38.5883V38.5883ZM144.737 23.6253H138.378V40.5003H141.03V34.1063H144.737C147.682 34.1063 150.569 32.083 150.569 28.865C150.569 25.6486 147.674 23.6253 144.737 23.6253V23.6253ZM144.806 31.759H141.03V25.9726H144.806C146.786 25.9726 147.916 27.5335 147.916 28.865C147.916 30.1711 146.786 31.759 144.806 31.759ZM161.196 29.3341C159.281 29.3341 157.289 30.1373 156.469 31.9177L158.822 32.8542C159.329 31.9177 160.26 31.6139 161.244 31.6139C162.62 31.6139 164.015 32.3986 164.036 33.784V33.9612C163.556 33.698 162.529 33.3082 161.266 33.3082C158.732 33.3082 156.149 34.6328 156.149 37.105C156.149 39.3663 158.225 40.8226 160.558 40.8226C162.343 40.8226 163.327 40.0581 163.946 39.1688H164.036V40.4733H166.597V34C166.597 31.0081 164.244 29.3341 161.196 29.3341ZM160.877 38.5816C160.009 38.5816 158.801 38.1732 158.801 37.1523C158.801 35.8462 160.308 35.345 161.612 35.345C162.78 35.345 163.327 35.5896 164.036 35.912C163.828 37.4746 162.412 38.5816 160.877 38.5816V38.5816ZM175.927 29.7037L172.879 37.019H172.789L169.638 29.7037H166.778L171.513 39.9265L168.811 45.6151H171.582L178.877 29.7037H175.927V29.7037ZM152.027 40.5003H154.685V23.6253H152.027V40.5003Z" fill="white"/>
<path d="M14.8358 10.1777C14.4182 10.5928 14.1765 11.2391 14.1765 12.0761V41.9313C14.1765 42.7683 14.4182 43.4146 14.8358 43.8298L14.9389 43.9209L32.5572 27.1978V26.8029L14.9389 10.0798L14.8358 10.1777Z" fill="url(#paint0_linear_9_1938)"/>
<path d="M38.4227 32.7744L32.5564 27.1972V26.8024L38.4298 21.2252L38.5613 21.2977L45.5169 25.0558C47.5019 26.1223 47.5019 27.8773 45.5169 28.9505L38.5613 32.7018L38.4227 32.7744V32.7744Z" fill="url(#paint1_linear_9_1938)"/>
<path d="M38.5617 32.7019L32.5568 26.9998L14.8354 43.8292C15.4948 44.4873 16.5699 44.5667 17.7926 43.9085L38.5617 32.7019" fill="url(#paint2_linear_9_1938)"/>
<path d="M38.5617 21.2979L17.7926 10.0913C16.5699 9.4399 15.4948 9.51921 14.8354 10.1773L32.5568 27L38.5617 21.2979Z" fill="url(#paint3_linear_9_1938)"/>
<defs>
<linearGradient id="paint0_linear_9_1938" x1="30.9929" y1="42.2422" x2="8.36701" y2="18.4147" gradientUnits="userSpaceOnUse">
<stop stop-color="#00A0FF"/>
<stop offset="0.0066" stop-color="#00A1FF"/>
<stop offset="0.2601" stop-color="#00BEFF"/>
<stop offset="0.5122" stop-color="#00D2FF"/>
<stop offset="0.7604" stop-color="#00DFFF"/>
<stop offset="1" stop-color="#00E3FF"/>
</linearGradient>
<linearGradient id="paint1_linear_9_1938" x1="48.1017" y1="26.9979" x2="13.7012" y2="26.9979" gradientUnits="userSpaceOnUse">
<stop stop-color="#FFE000"/>
<stop offset="0.4087" stop-color="#FFBD00"/>
<stop offset="0.7754" stop-color="#FFA500"/>
<stop offset="1" stop-color="#FF9C00"/>
</linearGradient>
<linearGradient id="paint2_linear_9_1938" x1="35.2964" y1="23.9001" x2="4.61387" y2="-8.41195" gradientUnits="userSpaceOnUse">
<stop stop-color="#FF3A44"/>
<stop offset="1" stop-color="#C31162"/>
</linearGradient>
<linearGradient id="paint3_linear_9_1938" x1="10.3746" y1="53.7621" x2="24.0758" y2="39.3335" gradientUnits="userSpaceOnUse">
<stop stop-color="#32A071"/>
<stop offset="0.0685" stop-color="#2DA771"/>
<stop offset="0.4762" stop-color="#15CF74"/>
<stop offset="0.8009" stop-color="#06E775"/>
<stop offset="1" stop-color="#00F076"/>
</linearGradient>
</defs>
</svg>
