<svg width="302" height="488" viewBox="0 0 302 488" fill="none" xmlns="http://www.w3.org/2000/svg">
<g filter="url(#filter0_d_9_1776)">
<path d="M0 5.93915C0 2.65876 2.686 0 6 0H296C299.314 0 302 2.65876 302 5.93915V482.061C302 485.337 299.314 488 296 488H6C2.686 488 0 485.337 0 482.061V5.93915Z" fill="white"/>
<path d="M238.959 305.372V296.733H240.276V304.249H244.23V305.372H238.959ZM245.63 305.372V298.893H246.904V305.372H245.63ZM246.273 297.893C246.052 297.893 245.862 297.82 245.702 297.674C245.546 297.524 245.468 297.347 245.468 297.142C245.468 296.934 245.546 296.757 245.702 296.61C245.862 296.462 246.052 296.387 246.273 296.387C246.495 296.387 246.684 296.462 246.84 296.61C246.999 296.757 247.079 296.934 247.079 297.142C247.079 297.347 246.999 297.524 246.84 297.674C246.684 297.82 246.495 297.893 246.273 297.893ZM249.892 301.525V305.372H248.618V298.893H249.841V299.947H249.922C250.073 299.604 250.309 299.329 250.63 299.121C250.953 298.912 251.361 298.808 251.853 298.808C252.299 298.808 252.689 298.901 253.025 299.087C253.36 299.269 253.62 299.542 253.804 299.905C253.989 300.268 254.081 300.716 254.081 301.251V305.372H252.807V301.402C252.807 300.933 252.684 300.566 252.436 300.302C252.189 300.034 251.85 299.901 251.418 299.901C251.123 299.901 250.86 299.964 250.63 300.091C250.402 300.217 250.222 300.403 250.088 300.647C249.958 300.89 249.892 301.182 249.892 301.525ZM256.962 303.174L256.953 301.634H257.175L259.783 298.893H261.309L258.334 302.014H258.134L256.962 303.174ZM255.79 305.372V296.733H257.064V305.372H255.79ZM259.924 305.372L257.58 302.292L258.458 301.411L261.488 305.372H259.924Z" fill="white"/>
</g>
<defs>
<filter id="filter0_d_9_1776" x="-18" y="-18" width="338" height="524" filterUnits="userSpaceOnUse" color-interpolation-filters="sRGB">
<feFlood flood-opacity="0" result="BackgroundImageFix"/>
<feColorMatrix in="SourceAlpha" type="matrix" values="0 0 0 0 0 0 0 0 0 0 0 0 0 0 0 0 0 0 127 0" result="hardAlpha"/>
<feOffset/>
<feGaussianBlur stdDeviation="9"/>
<feComposite in2="hardAlpha" operator="out"/>
<feColorMatrix type="matrix" values="0 0 0 0 0 0 0 0 0 0 0 0 0 0 0 0 0 0 0.12 0"/>
<feBlend mode="normal" in2="BackgroundImageFix" result="effect1_dropShadow_9_1776"/>
<feBlend mode="normal" in="SourceGraphic" in2="effect1_dropShadow_9_1776" result="shape"/>
</filter>
</defs>
</svg>
