<svg width="270" height="36" viewBox="0 0 270 36" fill="none" xmlns="http://www.w3.org/2000/svg">
<g filter="url(#filter0_d_9_1797)">
<path d="M264 0H6C2.68629 0 0 2.68629 0 6V30C0 33.3137 2.68629 36 6 36H264C267.314 36 270 33.3137 270 30V6C270 2.68629 267.314 0 264 0Z" fill="white"/>
<path d="M264 0.5H6C2.96243 0.5 0.5 2.96243 0.5 6V30C0.5 33.0376 2.96243 35.5 6 35.5H264C267.038 35.5 269.5 33.0376 269.5 30V6C269.5 2.96243 267.038 0.5 264 0.5Z" stroke="#1A73E8"/>
</g>
<defs>
<filter id="filter0_d_9_1797" x="-2" y="-2" width="274" height="40" filterUnits="userSpaceOnUse" color-interpolation-filters="sRGB">
<feFlood flood-opacity="0" result="BackgroundImageFix"/>
<feColorMatrix in="SourceAlpha" type="matrix" values="0 0 0 0 0 0 0 0 0 0 0 0 0 0 0 0 0 0 127 0" result="hardAlpha"/>
<feOffset/>
<feGaussianBlur stdDeviation="1"/>
<feComposite in2="hardAlpha" operator="out"/>
<feColorMatrix type="matrix" values="0 0 0 0 0.207843 0 0 0 0 0.470588 0 0 0 0 0.917647 0 0 0 1 0"/>
<feBlend mode="normal" in2="BackgroundImageFix" result="effect1_dropShadow_9_1797"/>
<feBlend mode="normal" in="SourceGraphic" in2="effect1_dropShadow_9_1797" result="shape"/>
</filter>
</defs>
</svg>
