<svg width="193" height="54" viewBox="0 0 193 54" fill="none" xmlns="http://www.w3.org/2000/svg">
<path d="M191.791 47.7726C191.791 50.6503 189.347 52.9813 186.325 52.9813H7.46721C4.44655 52.9813 1.99466 50.6503 1.99466 47.7726V6.23458C1.99466 3.35821 4.44655 1.01904 7.46721 1.01904H186.324C189.347 1.01904 191.789 3.35821 191.789 6.23458L191.791 47.7726Z" fill="black"/>
<path d="M185.748 1.08168C189.04 1.08168 191.718 3.62475 191.718 6.75V47.25C191.718 50.3752 189.04 52.9183 185.748 52.9183H8.03693C4.74571 52.9183 2.0676 50.3752 2.0676 47.25V6.75C2.0676 3.62475 4.74571 1.08168 8.03693 1.08168H185.748ZM185.748 -1.8703e-06H8.03693C4.12905 -1.8703e-06 0.928467 3.03919 0.928467 6.75V47.25C0.928467 50.9608 4.12905 54 8.03693 54H185.748C189.656 54 192.857 50.9608 192.857 47.25V6.75C192.857 3.03919 189.656 -1.8703e-06 185.748 -1.8703e-06Z" fill="#A6A6A6"/>
<path d="M43.7607 26.7085C43.7195 22.3575 47.5125 20.2407 47.686 20.1421C45.5378 17.1681 42.2082 16.7617 41.0382 16.7293C38.2417 16.4499 35.5291 18.3183 34.1046 18.3183C32.6516 18.3183 30.4579 16.7563 28.0937 16.8022C25.0512 16.8468 22.205 18.5194 20.644 21.1168C17.4224 26.4129 19.8251 34.1956 22.9116 38.4765C24.4555 40.573 26.2597 42.9139 28.6211 42.8316C30.9313 42.7411 31.7943 41.433 34.5823 41.433C37.3446 41.433 38.155 42.8316 40.5633 42.7789C43.0427 42.7411 44.6038 40.6729 46.0937 38.5575C47.8779 36.1545 48.5945 33.7879 48.6229 33.6664C48.5646 33.6475 43.8076 31.9236 43.7607 26.7085Z" fill="white"/>
<path d="M39.2113 13.9132C40.4538 12.4377 41.304 10.4302 41.068 8.39307C39.2696 8.46867 37.0205 9.57432 35.7253 11.0175C34.5794 12.2892 33.5558 14.3736 33.8202 16.3338C35.8405 16.4769 37.9147 15.3658 39.2113 13.9132Z" fill="white"/>
<path d="M77.1953 42.5303H73.9666L72.1981 37.2531H66.0507L64.366 42.5303H61.2226L67.3131 24.5645H71.0749L77.1953 42.5303ZM71.6649 35.0391L70.0655 30.3479C69.8963 29.8686 69.5793 28.74 69.1116 26.9634H69.0547C68.8685 27.7275 68.5685 28.8561 68.1562 30.3479L66.5852 35.0391H71.6649V35.0391Z" fill="white"/>
<path d="M92.8581 35.894C92.8581 38.0972 92.2312 39.8387 90.9772 41.1172C89.8541 42.2552 88.4594 42.8236 86.7946 42.8236C84.9976 42.8236 83.7067 42.2107 82.9205 40.9849H82.8636V47.8091H79.8326V33.8407C79.8326 32.4556 79.7942 31.034 79.7203 29.576H82.3859L82.5551 31.6294H82.612C83.6228 30.0823 85.1568 29.3101 87.2154 29.3101C88.8248 29.3101 90.1683 29.9135 91.2431 31.1218C92.3207 32.3314 92.8581 33.9217 92.8581 35.894ZM89.7702 35.9993C89.7702 34.7384 89.4717 33.6989 88.8717 32.8808C88.2163 32.0276 87.3363 31.601 86.233 31.601C85.4852 31.601 84.8057 31.8386 84.1986 32.3071C83.5901 32.7796 83.192 33.3965 83.0058 34.1606C82.912 34.517 82.8651 34.8086 82.8651 35.0381V37.1981C82.8651 38.1404 83.1693 38.9356 83.7778 39.5849C84.3863 40.2343 85.1767 40.5583 86.1492 40.5583C87.2908 40.5583 88.1793 40.1398 88.8148 39.3055C89.4518 38.4698 89.7702 37.3682 89.7702 35.9993Z" fill="white"/>
<path d="M108.549 35.894C108.549 38.0972 107.922 39.8387 106.667 41.1172C105.545 42.2552 104.151 42.8236 102.486 42.8236C100.689 42.8236 99.3979 42.2107 98.6131 40.9849H98.5563V47.8091H95.5252V33.8407C95.5252 32.4556 95.4868 31.034 95.4129 29.576H98.0786L98.2478 31.6294H98.3046C99.314 30.0823 100.848 29.3101 102.908 29.3101C104.516 29.3101 105.86 29.9135 106.937 31.1218C108.011 32.3314 108.549 33.9217 108.549 35.894ZM105.461 35.9993C105.461 34.7384 105.161 33.6989 104.561 32.8808C103.906 32.0276 103.029 31.601 101.924 31.601C101.175 31.601 100.497 31.8386 99.8884 32.3071C99.2799 32.7796 98.8833 33.3965 98.697 34.1606C98.6046 34.517 98.5563 34.8086 98.5563 35.0381V37.1981C98.5563 38.1404 98.8605 38.9356 99.4661 39.5849C100.075 40.2329 100.865 40.5583 101.84 40.5583C102.982 40.5583 103.871 40.1398 104.506 39.3055C105.143 38.4698 105.461 37.3682 105.461 35.9993Z" fill="white"/>
<path d="M126.092 37.4921C126.092 39.0203 125.534 40.2637 124.412 41.2235C123.179 42.2725 121.463 42.7963 119.258 42.7963C117.223 42.7963 115.59 42.4237 114.355 41.6771L115.057 39.2782C116.388 40.0423 117.848 40.4257 119.439 40.4257C120.581 40.4257 121.469 40.18 122.107 39.6913C122.743 39.2026 123.06 38.5465 123.06 37.7284C123.06 36.9994 122.798 36.3851 122.274 35.887C121.752 35.3888 120.881 34.9258 119.664 34.4978C116.351 33.3247 114.696 31.6061 114.696 29.3462C114.696 27.8693 115.276 26.6584 116.438 25.7161C117.595 24.7724 119.139 24.3013 121.07 24.3013C122.791 24.3013 124.221 24.5861 125.363 25.1545L124.605 27.5008C123.539 26.95 122.333 26.6746 120.984 26.6746C119.918 26.6746 119.085 26.9243 118.488 27.4211C117.983 27.8653 117.73 28.4066 117.73 29.0479C117.73 29.758 118.019 30.3452 118.599 30.8069C119.103 31.2335 120.02 31.6952 121.351 32.1934C122.979 32.8157 124.175 33.5434 124.944 34.3777C125.71 35.2093 126.092 36.2501 126.092 37.4921Z" fill="white"/>
<path d="M136.115 31.7357H132.774V38.0254C132.774 39.6252 133.362 40.4244 134.542 40.4244C135.084 40.4244 135.533 40.3798 135.889 40.2907L135.973 42.4764C135.376 42.6883 134.589 42.795 133.615 42.795C132.418 42.795 131.483 42.448 130.808 41.7555C130.135 41.0616 129.797 39.8979 129.797 38.263V31.7331H127.806V29.5731H129.797V27.2011L132.774 26.3479V29.5731H136.115V31.7357Z" fill="white"/>
<path d="M151.189 35.9463C151.189 37.9375 150.589 39.5724 149.392 40.8508C148.137 42.1671 146.47 42.8232 144.393 42.8232C142.392 42.8232 140.798 42.1927 139.609 40.9318C138.421 39.6709 137.827 38.0793 137.827 36.1609C137.827 34.1535 138.438 32.5092 139.665 31.2307C140.889 29.9509 142.541 29.311 144.618 29.311C146.62 29.311 148.231 29.9415 149.446 31.2037C150.609 32.4282 151.189 34.009 151.189 35.9463ZM148.044 36.0394C148.044 34.8447 147.776 33.82 147.231 32.9655C146.596 31.9314 145.687 31.4157 144.51 31.4157C143.292 31.4157 142.366 31.9327 141.731 32.9655C141.186 33.8214 140.917 34.8622 140.917 36.0934C140.917 37.2882 141.186 38.3128 141.731 39.166C142.386 40.2001 143.302 40.7158 144.483 40.7158C145.64 40.7158 146.549 40.1893 147.204 39.139C147.763 38.2683 148.044 37.2328 148.044 36.0394Z" fill="white"/>
<path d="M161.041 32.1073C160.741 32.0546 160.422 32.0276 160.086 32.0276C159.02 32.0276 158.195 32.4097 157.615 33.1751C157.11 33.8501 156.857 34.7033 156.857 35.7334V42.5306H153.828L153.856 33.6557C153.856 32.1626 153.818 30.8032 153.742 29.5774H156.383L156.493 32.056H156.577C156.897 31.2041 157.402 30.5183 158.093 30.004C158.768 29.5409 159.497 29.3101 160.284 29.3101C160.564 29.3101 160.817 29.329 161.041 29.3627V32.1073Z" fill="white"/>
<path d="M174.597 35.44C174.597 35.9557 174.562 36.3904 174.486 36.7455H165.393C165.429 38.0253 165.868 39.004 166.713 39.679C167.479 40.2825 168.47 40.5849 169.687 40.5849C171.033 40.5849 172.261 40.381 173.366 39.972L173.841 41.97C172.55 42.5046 171.026 42.7705 169.267 42.7705C167.152 42.7705 165.491 42.1792 164.283 40.998C163.077 39.8167 162.473 38.2305 162.473 36.2406C162.473 34.2871 163.035 32.6604 164.159 31.363C165.336 29.9779 166.927 29.2854 168.929 29.2854C170.895 29.2854 172.384 29.9779 173.395 31.363C174.195 32.4633 174.597 33.8241 174.597 35.44ZM171.707 34.6935C171.727 33.8403 171.529 33.1032 171.118 32.4808C170.594 31.6803 169.788 31.2807 168.703 31.2807C167.712 31.2807 166.906 31.6709 166.29 32.4539C165.786 33.0762 165.486 33.8227 165.393 34.6921H171.707V34.6935Z" fill="white"/>
<path d="M70.663 13.5122C70.663 15.1012 70.1611 16.2973 69.1588 17.1005C68.2305 17.8417 66.9111 18.2129 65.2023 18.2129C64.3549 18.2129 63.6299 18.1778 63.0228 18.1076V9.42579C63.8147 9.30429 64.6677 9.24219 65.589 9.24219C67.2168 9.24219 68.4437 9.57834 69.2711 10.2506C70.1981 11.0107 70.663 12.0974 70.663 13.5122ZM69.092 13.5514C69.092 12.5213 68.8048 11.7316 68.2305 11.1808C67.6561 10.6313 66.8173 10.3559 65.7126 10.3559C65.2435 10.3559 64.844 10.3856 64.5127 10.4477V17.0479C64.6961 17.0749 65.0317 17.087 65.5193 17.087C66.6595 17.087 67.5395 16.786 68.1594 16.1839C68.7792 15.5818 69.092 14.7043 69.092 13.5514Z" fill="white"/>
<path d="M78.9921 14.9C78.9921 15.8788 78.6978 16.6807 78.1092 17.3098C77.4922 17.9564 76.6748 18.2791 75.654 18.2791C74.6702 18.2791 73.8868 17.9699 73.3025 17.3489C72.7196 16.7293 72.4282 15.9476 72.4282 15.0053C72.4282 14.0198 72.7281 13.2112 73.3309 12.5834C73.9337 11.9557 74.7441 11.6411 75.7649 11.6411C76.7487 11.6411 77.5391 11.9503 78.1377 12.5699C78.7064 13.172 78.9921 13.9496 78.9921 14.9ZM77.4467 14.9459C77.4467 14.3587 77.3131 13.8551 77.0472 13.4353C76.7345 12.9277 76.2895 12.6739 75.7109 12.6739C75.1123 12.6739 74.6574 12.9277 74.3446 13.4353C74.0773 13.8551 73.9451 14.3668 73.9451 14.9716C73.9451 15.5588 74.0787 16.0624 74.3446 16.4822C74.6673 16.9898 75.1166 17.2436 75.6966 17.2436C76.2653 17.2436 76.7117 16.9858 77.033 16.4687C77.3088 16.0408 77.4467 15.5332 77.4467 14.9459Z" fill="white"/>
<path d="M90.161 11.7705L88.064 18.1344H86.6992L85.8305 15.371C85.6102 14.6811 85.4311 13.9953 85.2917 13.3149H85.2647C85.1353 14.0142 84.9562 14.6987 84.7259 15.371L83.8032 18.1344H82.4227L80.4509 11.7705H81.982L82.7398 14.7959C82.9232 15.5114 83.0739 16.1931 83.1947 16.8384H83.2217C83.3326 16.3065 83.516 15.6288 83.7748 14.8094L84.7259 11.7719H85.94L86.8513 14.7446C87.0717 15.4695 87.2508 16.1675 87.3887 16.8398H87.43C87.5309 16.185 87.683 15.4871 87.8849 14.7446L88.6981 11.7719H90.161V11.7705Z" fill="white"/>
<path d="M97.8851 18.1348H96.3952V14.4898C96.3952 13.3666 95.9459 12.805 95.0446 12.805C94.6024 12.805 94.2456 12.9589 93.9683 13.268C93.694 13.5772 93.5546 13.9417 93.5546 14.3588V18.1334H92.0647V13.5893C92.0647 13.0304 92.0462 12.4243 92.0107 11.7682H93.3201L93.3897 12.7631H93.4309C93.6044 12.454 93.8631 12.1988 94.2029 11.995C94.6067 11.7574 95.0588 11.6372 95.5535 11.6372C96.1791 11.6372 96.6994 11.8289 97.1131 12.2137C97.6278 12.6848 97.8851 13.3882 97.8851 14.3224V18.1348V18.1348Z" fill="white"/>
<path d="M101.994 18.1345H100.505V8.85059H101.994V18.1345Z" fill="white"/>
<path d="M110.766 14.9C110.766 15.8788 110.472 16.6807 109.883 17.3098C109.266 17.9564 108.447 18.2791 107.428 18.2791C106.443 18.2791 105.659 17.9699 105.076 17.3489C104.493 16.7293 104.202 15.9476 104.202 15.0053C104.202 14.0198 104.502 13.2112 105.105 12.5834C105.708 11.9557 106.518 11.6411 107.537 11.6411C108.522 11.6411 109.312 11.9503 109.911 12.5699C110.48 13.172 110.766 13.9496 110.766 14.9ZM109.219 14.9459C109.219 14.3587 109.085 13.8551 108.82 13.4353C108.508 12.9277 108.062 12.6739 107.485 12.6739C106.885 12.6739 106.43 12.9277 106.118 13.4353C105.851 13.8551 105.719 14.3668 105.719 14.9716C105.719 15.5588 105.853 16.0624 106.118 16.4822C106.441 16.9898 106.89 17.2436 107.47 17.2436C108.039 17.2436 108.484 16.9858 108.805 16.4687C109.083 16.0408 109.219 15.5332 109.219 14.9459Z" fill="white"/>
<path d="M117.977 18.1346H116.639L116.528 17.4016H116.487C116.029 17.9861 115.377 18.2791 114.529 18.2791C113.897 18.2791 113.385 18.086 113 17.7026C112.65 17.3543 112.475 16.921 112.475 16.4066C112.475 15.629 112.816 15.0364 113.503 14.626C114.188 14.2156 115.152 14.0144 116.393 14.0239V13.9051C116.393 13.0667 115.93 12.6482 115.001 12.6482C114.34 12.6482 113.757 12.8062 113.254 13.1194L112.951 12.1906C113.574 11.8247 114.343 11.6411 115.25 11.6411C117.002 11.6411 117.88 12.5186 117.88 14.2736V16.6172C117.88 17.2531 117.913 17.7593 117.977 18.1346ZM116.43 15.9476V14.9662C114.787 14.9392 113.965 15.3671 113.965 16.2487C113.965 16.5808 114.059 16.8292 114.251 16.9952C114.443 17.1613 114.687 17.2436 114.979 17.2436C115.306 17.2436 115.611 17.1451 115.89 16.9493C116.17 16.7522 116.342 16.5025 116.406 16.196C116.422 16.1272 116.43 16.0435 116.43 15.9476Z" fill="white"/>
<path d="M126.443 18.1345H125.121L125.051 17.1126H125.01C124.587 17.8902 123.868 18.279 122.857 18.279C122.05 18.279 121.377 17.9779 120.844 17.3758C120.311 16.7737 120.045 15.9921 120.045 15.0322C120.045 14.0022 120.334 13.1679 120.914 12.5307C121.475 11.9367 122.163 11.6397 122.982 11.6397C123.882 11.6397 124.512 11.9272 124.87 12.5037H124.899V8.85059H126.39V16.42C126.39 17.0397 126.407 17.6107 126.443 18.1345ZM124.899 15.4507V14.3896C124.899 14.206 124.885 14.0575 124.858 13.9441C124.774 13.6039 124.593 13.3177 124.319 13.0869C124.042 12.856 123.707 12.7399 123.322 12.7399C122.766 12.7399 122.331 12.9492 122.011 13.369C121.694 13.7889 121.534 14.3248 121.534 14.9796C121.534 15.6087 121.686 16.119 121.991 16.5118C122.314 16.9303 122.749 17.1396 123.294 17.1396C123.783 17.1396 124.174 16.9654 124.471 16.6158C124.758 16.2931 124.899 15.9043 124.899 15.4507Z" fill="white"/>
<path d="M139.186 14.9C139.186 15.8788 138.891 16.6807 138.303 17.3098C137.686 17.9564 136.87 18.2791 135.848 18.2791C134.865 18.2791 134.082 17.9699 133.496 17.3489C132.913 16.7293 132.622 15.9476 132.622 15.0053C132.622 14.0198 132.922 13.2112 133.524 12.5834C134.127 11.9557 134.938 11.6411 135.96 11.6411C136.942 11.6411 137.734 11.9503 138.331 12.5699C138.9 13.172 139.186 13.9496 139.186 14.9ZM137.642 14.9459C137.642 14.3587 137.508 13.8551 137.242 13.4353C136.928 12.9277 136.484 12.6739 135.904 12.6739C135.307 12.6739 134.852 12.9277 134.538 13.4353C134.271 13.8551 134.139 14.3668 134.139 14.9716C134.139 15.5588 134.272 16.0624 134.538 16.4822C134.861 16.9898 135.31 17.2436 135.89 17.2436C136.459 17.2436 136.907 16.9858 137.228 16.4687C137.502 16.0408 137.642 15.5332 137.642 14.9459Z" fill="white"/>
<path d="M147.196 18.1348H145.708V14.4898C145.708 13.3666 145.259 12.805 144.356 12.805C143.914 12.805 143.557 12.9589 143.281 13.268C143.005 13.5772 142.867 13.9417 142.867 14.3588V18.1334H141.376V13.5893C141.376 13.0304 141.359 12.4243 141.323 11.7682H142.631L142.701 12.7631H142.742C142.917 12.454 143.176 12.1988 143.514 11.995C143.919 11.7574 144.37 11.6372 144.866 11.6372C145.49 11.6372 146.011 11.8289 146.424 12.2137C146.941 12.6848 147.196 13.3882 147.196 14.3224V18.1348V18.1348Z" fill="white"/>
<path d="M157.224 12.8304H155.583V15.9219C155.583 16.7076 155.874 17.1005 156.452 17.1005C156.719 17.1005 156.941 17.0789 157.115 17.0343L157.154 18.1076C156.86 18.2129 156.473 18.2655 155.997 18.2655C155.408 18.2655 154.95 18.0954 154.619 17.7552C154.286 17.415 154.121 16.8426 154.121 16.0394V12.8304H153.142V11.7707H154.121V10.6043L155.581 10.1858V11.7693H157.222V12.8304H157.224Z" fill="white"/>
<path d="M165.111 18.1345H163.62V14.5165C163.62 13.3758 163.17 12.8047 162.27 12.8047C161.58 12.8047 161.108 13.1355 160.849 13.797C160.805 13.936 160.779 14.1061 160.779 14.3059V18.1332H159.291V8.85059H160.779V12.6859H160.808C161.277 11.988 161.949 11.6397 162.821 11.6397C163.438 11.6397 163.948 11.8314 164.353 12.2161C164.858 12.6954 165.111 13.4082 165.111 14.3505V18.1345V18.1345Z" fill="white"/>
<path d="M173.248 14.6516C173.248 14.9054 173.228 15.1187 173.192 15.2928H168.724C168.744 15.9219 168.957 16.4012 169.371 16.7333C169.749 17.0303 170.237 17.1788 170.834 17.1788C171.495 17.1788 172.098 17.0789 172.641 16.8777L172.874 17.8605C172.238 18.1224 171.491 18.2534 170.625 18.2534C169.587 18.2534 168.769 17.9631 168.178 17.3826C167.584 16.8021 167.289 16.0232 167.289 15.0458C167.289 14.0859 167.564 13.2867 168.117 12.6495C168.694 11.9691 169.475 11.6289 170.46 11.6289C171.424 11.6289 172.156 11.9691 172.651 12.6495C173.05 13.1895 173.248 13.8578 173.248 14.6516ZM171.826 14.2857C171.837 13.8659 171.739 13.5041 171.537 13.199C171.279 12.8061 170.885 12.609 170.352 12.609C169.866 12.609 169.469 12.8007 169.166 13.1855C168.919 13.4919 168.772 13.8578 168.724 14.2857H171.826Z" fill="white"/>
</svg>
