<svg width="18" height="14" viewBox="0 0 18 14" fill="none" xmlns="http://www.w3.org/2000/svg">
<g clip-path="url(#clip0_40_1529)">
<path d="M17.7794 1.7049C17.1124 1.98937 16.405 2.1761 15.6806 2.25887C16.4352 1.82346 17.0145 1.13398 17.2873 0.312468C16.57 0.722276 15.7853 1.01101 14.967 1.1662C14.3004 0.482477 13.3508 0.0551758 12.2998 0.0551758C10.2818 0.0551758 8.64563 1.63041 8.64563 3.57326C8.64563 3.84904 8.67798 4.11752 8.74025 4.37508C5.70341 4.22831 3.01096 2.82771 1.20869 0.699176C0.894224 1.21878 0.714031 1.82319 0.714031 2.46786C0.714031 3.68848 1.35918 4.76527 2.33959 5.39621C1.75932 5.37871 1.19182 5.22781 0.684463 4.95611C0.684254 4.97085 0.684254 4.98559 0.684254 5.00039C0.684254 6.70497 1.94379 8.12694 3.61534 8.45015C3.07726 8.59105 2.51284 8.61167 1.96522 8.51043C2.43017 9.90816 3.77967 10.9253 5.37858 10.9537C4.12802 11.8973 2.55241 12.4598 0.840514 12.4598C0.545527 12.4598 0.254714 12.4431 -0.0311584 12.4106C1.58591 13.4088 3.5066 13.9913 5.57011 13.9913C12.2913 13.9913 15.9666 8.63034 15.9666 3.98127C15.9666 3.82868 15.9631 3.67695 15.956 3.5261C16.6714 3.02819 17.2888 2.41147 17.7794 1.7049" fill="white"/>
</g>
<defs>
<clipPath id="clip0_40_1529">
<rect width="18" height="14" fill="white"/>
</clipPath>
</defs>
</svg>
