<svg width="193" height="54" viewBox="0 0 193 54" fill="none" xmlns="http://www.w3.org/2000/svg">
<path d="M191.791 47.7726C191.791 50.6503 189.348 52.9813 186.326 52.9813H7.46767C4.447 52.9813 1.99512 50.6503 1.99512 47.7726V6.23458C1.99512 3.35821 4.447 1.01904 7.46767 1.01904H186.324C189.348 1.01904 191.79 3.35821 191.79 6.23458L191.791 47.7726Z" fill="black"/>
<path d="M185.749 1.08168C189.04 1.08168 191.718 3.62475 191.718 6.75V47.25C191.718 50.3752 189.04 52.9183 185.749 52.9183H8.03717C4.74595 52.9183 2.06784 50.3752 2.06784 47.25V6.75C2.06784 3.62475 4.74595 1.08168 8.03717 1.08168H185.749ZM185.749 -1.8703e-06H8.03717C4.1293 -1.8703e-06 0.928711 3.03919 0.928711 6.75V47.25C0.928711 50.9608 4.1293 54 8.03717 54H185.749C189.657 54 192.857 50.9608 192.857 47.25V6.75C192.857 3.03919 189.657 -1.8703e-06 185.749 -1.8703e-06Z" fill="#A6A6A6"/>
<path d="M43.7609 26.7085C43.7196 22.3575 47.5127 20.2407 47.6861 20.1421C45.538 17.1681 42.2084 16.7617 41.0383 16.7293C38.2418 16.4499 35.5293 18.3183 34.1047 18.3183C32.6517 18.3183 30.4581 16.7563 28.0938 16.8022C25.0514 16.8468 22.2052 18.5194 20.6441 21.1168C17.4226 26.4129 19.8252 34.1956 22.9117 38.4765C24.4557 40.573 26.2598 42.9139 28.6213 42.8316C30.9315 42.7411 31.7945 41.433 34.5824 41.433C37.3448 41.433 38.1551 42.8316 40.5635 42.7789C43.0429 42.7411 44.6039 40.6729 46.0939 38.5575C47.8781 36.1545 48.5946 33.7879 48.623 33.6664C48.5648 33.6475 43.8078 31.9236 43.7609 26.7085Z" fill="white"/>
<path d="M39.2114 13.9132C40.454 12.4377 41.3042 10.4302 41.0682 8.39307C39.2697 8.46867 37.0206 9.57432 35.7254 11.0175C34.5796 12.2892 33.5559 14.3736 33.8204 16.3338C35.8406 16.4769 37.9149 15.3658 39.2114 13.9132Z" fill="white"/>
<path d="M77.1954 42.5303H73.9667L72.1981 37.2531H66.0507L64.366 42.5303H61.2227L67.3132 24.5645H71.075L77.1954 42.5303ZM71.665 35.0391L70.0656 30.3479C69.8964 29.8686 69.5794 28.74 69.1116 26.9634H69.0548C68.8685 27.7275 68.5685 28.8561 68.1562 30.3479L66.5853 35.0391H71.665V35.0391Z" fill="white"/>
<path d="M92.8586 35.894C92.8586 38.0972 92.2316 39.8387 90.9777 41.1172C89.8545 42.2552 88.4598 42.8236 86.795 42.8236C84.998 42.8236 83.7071 42.2107 82.9209 40.9849H82.8641V47.8091H79.833V33.8407C79.833 32.4556 79.7946 31.034 79.7207 29.576H82.3864L82.5556 31.6294H82.6124C83.6232 30.0823 85.1573 29.3101 87.2159 29.3101C88.8252 29.3101 90.1687 29.9135 91.2435 31.1218C92.3212 32.3314 92.8586 33.9217 92.8586 35.894ZM89.7706 35.9993C89.7706 34.7384 89.4721 33.6989 88.8721 32.8808C88.2167 32.0276 87.3367 31.601 86.2335 31.601C85.4857 31.601 84.8061 31.8386 84.199 32.3071C83.5905 32.7796 83.1925 33.3965 83.0062 34.1606C82.9124 34.517 82.8655 34.8086 82.8655 35.0381V37.1981C82.8655 38.1404 83.1697 38.9356 83.7782 39.5849C84.3867 40.2343 85.1772 40.5583 86.1496 40.5583C87.2912 40.5583 88.1798 40.1398 88.8153 39.3055C89.4522 38.4698 89.7706 37.3682 89.7706 35.9993Z" fill="white"/>
<path d="M108.55 35.894C108.55 38.0972 107.923 39.8387 106.667 41.1172C105.545 42.2552 104.151 42.8236 102.486 42.8236C100.689 42.8236 99.3981 42.2107 98.6133 40.9849H98.5564V47.8091H95.5254V33.8407C95.5254 32.4556 95.487 31.034 95.4131 29.576H98.0788L98.2479 31.6294H98.3048C99.3142 30.0823 100.848 29.3101 102.908 29.3101C104.516 29.3101 105.86 29.9135 106.937 31.1218C108.011 32.3314 108.55 33.9217 108.55 35.894ZM105.462 35.9993C105.462 34.7384 105.162 33.6989 104.562 32.8808C103.906 32.0276 103.029 31.601 101.924 31.601C101.175 31.601 100.497 31.8386 99.8886 32.3071C99.2801 32.7796 98.8834 33.3965 98.6972 34.1606C98.6048 34.517 98.5564 34.8086 98.5564 35.0381V37.1981C98.5564 38.1404 98.8607 38.9356 99.4663 39.5849C100.075 40.2329 100.865 40.5583 101.841 40.5583C102.982 40.5583 103.871 40.1398 104.506 39.3055C105.143 38.4698 105.462 37.3682 105.462 35.9993Z" fill="white"/>
<path d="M126.093 37.4921C126.093 39.0203 125.534 40.2637 124.413 41.2235C123.18 42.2725 121.464 42.7963 119.259 42.7963C117.223 42.7963 115.591 42.4237 114.355 41.6771L115.058 39.2782C116.388 40.0423 117.849 40.4257 119.439 40.4257C120.581 40.4257 121.47 40.18 122.108 39.6913C122.743 39.2026 123.06 38.5465 123.06 37.7284C123.06 36.9994 122.799 36.3851 122.274 35.887C121.753 35.3888 120.881 34.9258 119.664 34.4978C116.352 33.3247 114.697 31.6061 114.697 29.3462C114.697 27.8693 115.277 26.6584 116.438 25.7161C117.596 24.7724 119.139 24.3013 121.07 24.3013C122.792 24.3013 124.222 24.5861 125.364 25.1545L124.606 27.5008C123.54 26.95 122.334 26.6746 120.985 26.6746C119.919 26.6746 119.085 26.9243 118.488 27.4211C117.984 27.8653 117.731 28.4066 117.731 29.0479C117.731 29.758 118.019 30.3452 118.599 30.8069C119.104 31.2335 120.021 31.6952 121.352 32.1934C122.979 32.8157 124.175 33.5434 124.944 34.3777C125.711 35.2093 126.093 36.2501 126.093 37.4921Z" fill="white"/>
<path d="M136.115 31.7355H132.774V38.0252C132.774 39.6249 133.363 40.4241 134.543 40.4241C135.084 40.4241 135.534 40.3796 135.889 40.2905L135.973 42.4761C135.376 42.6881 134.59 42.7947 133.616 42.7947C132.419 42.7947 131.483 42.4478 130.808 41.7552C130.135 41.0613 129.797 39.8976 129.797 38.2628V31.7328H127.807V29.5728H129.797V27.2009L132.774 26.3477V29.5728H136.115V31.7355Z" fill="white"/>
<path d="M151.189 35.9463C151.189 37.9375 150.589 39.5724 149.392 40.8508C148.136 42.1671 146.47 42.8232 144.393 42.8232C142.391 42.8232 140.798 42.1927 139.609 40.9318C138.42 39.6709 137.826 38.0793 137.826 36.1609C137.826 34.1535 138.437 32.5092 139.664 31.2307C140.888 29.9509 142.541 29.311 144.618 29.311C146.619 29.311 148.23 29.9415 149.446 31.2037C150.609 32.4282 151.189 34.009 151.189 35.9463ZM148.044 36.0394C148.044 34.8447 147.775 33.82 147.231 32.9655C146.595 31.9314 145.687 31.4157 144.51 31.4157C143.291 31.4157 142.366 31.9327 141.73 32.9655C141.186 33.8214 140.917 34.8622 140.917 36.0934C140.917 37.2882 141.186 38.3128 141.73 39.166C142.386 40.2001 143.301 40.7158 144.483 40.7158C145.64 40.7158 146.548 40.1893 147.204 39.139C147.762 38.2683 148.044 37.2328 148.044 36.0394Z" fill="white"/>
<path d="M161.041 32.1073C160.741 32.0546 160.421 32.0276 160.086 32.0276C159.02 32.0276 158.195 32.4097 157.615 33.1751C157.11 33.8501 156.857 34.7033 156.857 35.7334V42.5306H153.827L153.856 33.6557C153.856 32.1626 153.818 30.8032 153.742 29.5774H156.382L156.493 32.056H156.577C156.897 31.2041 157.402 30.5183 158.093 30.004C158.768 29.5409 159.497 29.3101 160.283 29.3101C160.563 29.3101 160.817 29.329 161.041 29.3627V32.1073Z" fill="white"/>
<path d="M174.598 35.4403C174.598 35.956 174.562 36.3907 174.487 36.7457H165.394C165.429 38.0255 165.869 39.0043 166.713 39.6793C167.479 40.2827 168.47 40.5851 169.687 40.5851C171.034 40.5851 172.262 40.3813 173.367 39.9722L173.841 41.9702C172.551 42.5048 171.027 42.7708 169.268 42.7708C167.152 42.7708 165.492 42.1795 164.283 40.9982C163.078 39.817 162.474 38.2307 162.474 36.2408C162.474 34.2874 163.035 32.6606 164.16 31.3633C165.337 29.9782 166.928 29.2856 168.93 29.2856C170.896 29.2856 172.384 29.9782 173.395 31.3633C174.195 32.4635 174.598 33.8243 174.598 35.4403ZM171.708 34.6937C171.727 33.8405 171.53 33.1034 171.119 32.4811C170.594 31.6805 169.788 31.2809 168.703 31.2809C167.713 31.2809 166.906 31.6711 166.291 32.4541C165.786 33.0764 165.486 33.823 165.394 34.6924H171.708V34.6937Z" fill="white"/>
<path d="M70.6636 13.5122C70.6636 15.1012 70.1618 16.2973 69.1595 17.1005C68.2311 17.8417 66.9118 18.2129 65.2029 18.2129C64.3556 18.2129 63.6305 18.1778 63.0234 18.1076V9.42579C63.8153 9.30429 64.6683 9.24219 65.5896 9.24219C67.2174 9.24219 68.4444 9.57834 69.2718 10.2506C70.1987 11.0107 70.6636 12.0974 70.6636 13.5122ZM69.0926 13.5514C69.0926 12.5213 68.8055 11.7316 68.2311 11.1808C67.6567 10.6313 66.8179 10.3559 65.7133 10.3559C65.2441 10.3559 64.8446 10.3856 64.5134 10.4477V17.0479C64.6968 17.0749 65.0323 17.087 65.5199 17.087C66.6601 17.087 67.5402 16.786 68.16 16.1839C68.7799 15.5818 69.0926 14.7043 69.0926 13.5514Z" fill="white"/>
<path d="M78.9927 14.9C78.9927 15.8788 78.6984 16.6807 78.1098 17.3098C77.4928 17.9564 76.6753 18.2791 75.6545 18.2791C74.6707 18.2791 73.8874 17.9699 73.3031 17.3489C72.7202 16.7293 72.4287 15.9476 72.4287 15.0053C72.4287 14.0198 72.7287 13.2112 73.3315 12.5834C73.9343 11.9557 74.7446 11.6411 75.7654 11.6411C76.7492 11.6411 77.5397 11.9503 78.1382 12.5699C78.7069 13.172 78.9927 13.9496 78.9927 14.9ZM77.4473 14.9459C77.4473 14.3587 77.3137 13.8551 77.0478 13.4353C76.735 12.9277 76.29 12.6739 75.7114 12.6739C75.1129 12.6739 74.6579 12.9277 74.3452 13.4353C74.0779 13.8551 73.9457 14.3668 73.9457 14.9716C73.9457 15.5588 74.0793 16.0624 74.3452 16.4822C74.6679 16.9898 75.1171 17.2436 75.6972 17.2436C76.2659 17.2436 76.7123 16.9858 77.0336 16.4687C77.3094 16.0408 77.4473 15.5332 77.4473 14.9459Z" fill="white"/>
<path d="M90.1613 11.7705L88.0643 18.1344H86.6995L85.8309 15.371C85.6105 14.6811 85.4314 13.9953 85.292 13.3149H85.265C85.1356 14.0142 84.9565 14.6987 84.7262 15.371L83.8035 18.1344H82.4231L80.4512 11.7705H81.9823L82.7401 14.7959C82.9235 15.5114 83.0742 16.1931 83.195 16.8384H83.222C83.3329 16.3065 83.5163 15.6288 83.7751 14.8094L84.7262 11.7719H85.9403L86.8516 14.7446C87.072 15.4695 87.2511 16.1675 87.389 16.8398H87.4303C87.5312 16.185 87.6833 15.4871 87.8852 14.7446L88.6984 11.7719H90.1613V11.7705Z" fill="white"/>
<path d="M97.8861 18.1348H96.3962V14.4898C96.3962 13.3666 95.9469 12.805 95.0456 12.805C94.6035 12.805 94.2466 12.9589 93.9694 13.268C93.695 13.5772 93.5557 13.9417 93.5557 14.3588V18.1334H92.0657V13.5893C92.0657 13.0304 92.0473 12.4243 92.0117 11.7682H93.3211L93.3908 12.7631H93.432C93.6054 12.454 93.8642 12.1988 94.204 11.995C94.6077 11.7574 95.0598 11.6372 95.5546 11.6372C96.1801 11.6372 96.7004 11.8289 97.1142 12.2137C97.6288 12.6848 97.8861 13.3882 97.8861 14.3224V18.1348V18.1348Z" fill="white"/>
<path d="M101.994 18.1345H100.506V8.85059H101.994V18.1345Z" fill="white"/>
<path d="M110.766 14.9C110.766 15.8788 110.472 16.6807 109.883 17.3098C109.266 17.9564 108.447 18.2791 107.428 18.2791C106.443 18.2791 105.659 17.9699 105.076 17.3489C104.494 16.7293 104.202 15.9476 104.202 15.0053C104.202 14.0198 104.502 13.2112 105.105 12.5834C105.708 11.9557 106.518 11.6411 107.537 11.6411C108.523 11.6411 109.312 11.9503 109.912 12.5699C110.48 13.172 110.766 13.9496 110.766 14.9ZM109.219 14.9459C109.219 14.3587 109.086 13.8551 108.82 13.4353C108.508 12.9277 108.062 12.6739 107.485 12.6739C106.885 12.6739 106.43 12.9277 106.119 13.4353C105.851 13.8551 105.719 14.3668 105.719 14.9716C105.719 15.5588 105.853 16.0624 106.119 16.4822C106.441 16.9898 106.891 17.2436 107.471 17.2436C108.039 17.2436 108.484 16.9858 108.806 16.4687C109.083 16.0408 109.219 15.5332 109.219 14.9459Z" fill="white"/>
<path d="M117.978 18.1346H116.64L116.529 17.4016H116.488C116.03 17.9861 115.377 18.2791 114.53 18.2791C113.897 18.2791 113.385 18.086 113 17.7026C112.65 17.3543 112.476 16.921 112.476 16.4066C112.476 15.629 112.817 15.0364 113.503 14.626C114.189 14.2156 115.153 14.0144 116.394 14.0239V13.9051C116.394 13.0667 115.93 12.6482 115.002 12.6482C114.341 12.6482 113.758 12.8062 113.255 13.1194L112.952 12.1906C113.575 11.8247 114.344 11.6411 115.251 11.6411C117.002 11.6411 117.881 12.5186 117.881 14.2736V16.6172C117.881 17.2531 117.914 17.7593 117.978 18.1346ZM116.431 15.9476V14.9662C114.787 14.9392 113.966 15.3671 113.966 16.2487C113.966 16.5808 114.059 16.8292 114.251 16.9952C114.443 17.1613 114.688 17.2436 114.979 17.2436C115.306 17.2436 115.612 17.1451 115.89 16.9493C116.171 16.7522 116.343 16.5025 116.407 16.196C116.422 16.1272 116.431 16.0435 116.431 15.9476Z" fill="white"/>
<path d="M126.444 18.1345H125.121L125.052 17.1126H125.01C124.588 17.8902 123.869 18.279 122.858 18.279C122.05 18.279 121.378 17.9779 120.845 17.3758C120.312 16.7737 120.046 15.9921 120.046 15.0322C120.046 14.0022 120.335 13.1679 120.915 12.5307C121.476 11.9367 122.164 11.6397 122.983 11.6397C123.883 11.6397 124.513 11.9272 124.871 12.5037H124.9V8.85059H126.391V16.42C126.391 17.0397 126.408 17.6107 126.444 18.1345ZM124.9 15.4507V14.3896C124.9 14.206 124.885 14.0575 124.858 13.9441C124.774 13.6039 124.594 13.3177 124.319 13.0869C124.042 12.856 123.708 12.7399 123.323 12.7399C122.767 12.7399 122.332 12.9492 122.012 13.369C121.695 13.7889 121.534 14.3248 121.534 14.9796C121.534 15.6087 121.687 16.119 121.992 16.5118C122.315 16.9303 122.75 17.1396 123.294 17.1396C123.784 17.1396 124.174 16.9654 124.472 16.6158C124.759 16.2931 124.9 15.9043 124.9 15.4507Z" fill="white"/>
<path d="M139.186 14.9C139.186 15.8788 138.892 16.6807 138.303 17.3098C137.686 17.9564 136.87 18.2791 135.848 18.2791C134.866 18.2791 134.082 17.9699 133.496 17.3489C132.914 16.7293 132.622 15.9476 132.622 15.0053C132.622 14.0198 132.922 13.2112 133.525 12.5834C134.128 11.9557 134.938 11.6411 135.96 11.6411C136.943 11.6411 137.734 11.9503 138.332 12.5699C138.9 13.172 139.186 13.9496 139.186 14.9ZM137.642 14.9459C137.642 14.3587 137.508 13.8551 137.243 13.4353C136.928 12.9277 136.485 12.6739 135.905 12.6739C135.308 12.6739 134.853 12.9277 134.539 13.4353C134.271 13.8551 134.139 14.3668 134.139 14.9716C134.139 15.5588 134.273 16.0624 134.539 16.4822C134.861 16.9898 135.31 17.2436 135.891 17.2436C136.459 17.2436 136.907 16.9858 137.228 16.4687C137.503 16.0408 137.642 15.5332 137.642 14.9459Z" fill="white"/>
<path d="M147.197 18.1348H145.709V14.4898C145.709 13.3666 145.259 12.805 144.357 12.805C143.915 12.805 143.558 12.9589 143.282 13.268C143.006 13.5772 142.868 13.9417 142.868 14.3588V18.1334H141.377V13.5893C141.377 13.0304 141.36 12.4243 141.324 11.7682H142.632L142.702 12.7631H142.743C142.918 12.454 143.177 12.1988 143.515 11.995C143.92 11.7574 144.371 11.6372 144.867 11.6372C145.491 11.6372 146.012 11.8289 146.425 12.2137C146.941 12.6848 147.197 13.3882 147.197 14.3224V18.1348V18.1348Z" fill="white"/>
<path d="M157.224 12.8302H155.584V15.9217C155.584 16.7074 155.875 17.1002 156.452 17.1002C156.72 17.1002 156.941 17.0786 157.116 17.0341L157.155 18.1073C156.86 18.2126 156.474 18.2653 155.997 18.2653C155.409 18.2653 154.951 18.0952 154.62 17.755C154.287 17.4148 154.122 16.8424 154.122 16.0391V12.8302H153.143V11.7704H154.122V10.604L155.582 10.1855V11.7691H157.223V12.8302H157.224Z" fill="white"/>
<path d="M165.111 18.1345H163.62V14.5165C163.62 13.3758 163.171 12.8047 162.271 12.8047C161.58 12.8047 161.108 13.1355 160.849 13.797C160.805 13.936 160.78 14.1061 160.78 14.3059V18.1332H159.291V8.85059H160.78V12.6859H160.808C161.277 11.988 161.95 11.6397 162.821 11.6397C163.438 11.6397 163.948 11.8314 164.354 12.2161C164.858 12.6954 165.111 13.4082 165.111 14.3505V18.1345V18.1345Z" fill="white"/>
<path d="M173.248 14.6516C173.248 14.9054 173.228 15.1187 173.193 15.2928H168.725C168.744 15.9219 168.958 16.4012 169.371 16.7333C169.75 17.0303 170.237 17.1788 170.834 17.1788C171.495 17.1788 172.098 17.0789 172.641 16.8777L172.874 17.8605C172.239 18.1224 171.491 18.2534 170.625 18.2534C169.587 18.2534 168.77 17.9631 168.179 17.3826C167.584 16.8021 167.29 16.0232 167.29 15.0458C167.29 14.0859 167.564 13.2867 168.117 12.6495C168.695 11.9691 169.475 11.6289 170.46 11.6289C171.424 11.6289 172.156 11.9691 172.651 12.6495C173.051 13.1895 173.248 13.8578 173.248 14.6516ZM171.827 14.2857C171.838 13.8659 171.74 13.5041 171.538 13.199C171.279 12.8061 170.885 12.609 170.352 12.609C169.866 12.609 169.469 12.8007 169.167 13.1855C168.919 13.4919 168.773 13.8578 168.725 14.2857H171.827Z" fill="white"/>
</svg>
