<svg width="20" height="20" viewBox="0 0 20 20" fill="none" xmlns="http://www.w3.org/2000/svg">
<path d="M10.0012 0C4.48627 0 0 4.48587 0 9.99879C0 15.5161 4.48586 20 10.0012 20C15.5165 20 20.0024 15.5161 20.0024 9.99879C20.0024 4.48587 15.5165 0 10.0012 0V0ZM10.0012 18.5069C5.31025 18.5069 1.49314 14.692 1.49314 9.99879C1.49314 5.30784 5.31033 1.49314 10.0012 1.49314C14.6942 1.49314 18.5069 5.31033 18.5069 9.99879C18.5069 14.6918 14.6942 18.5069 10.0012 18.5069Z" fill="#FF8F67"/>
<path d="M10.5016 9.27619C9.14577 8.7154 8.56926 8.31013 8.56926 7.50158C8.56926 6.88 9.02199 6.16166 10.2199 6.16166C11.2176 6.16166 11.8549 6.50394 12.1814 6.69087L12.571 5.66401C12.1207 5.39822 11.481 5.14831 10.5487 5.11907L10.5488 3.60791H9.58042V5.18208C8.14812 5.4141 7.23168 6.3959 7.23168 7.68854C7.23168 9.04419 8.21347 9.76036 9.80115 10.3819C10.952 10.8504 11.5599 11.3774 11.5599 12.2354C11.5599 13.1226 10.8121 13.7623 9.70641 13.7623C8.83489 13.7623 8.02418 13.4651 7.46339 13.0912L7.08984 14.1338C7.63478 14.5256 8.56944 14.8049 9.47236 14.8229V16.3925H10.4541L10.4543 14.7733C12.0555 14.5098 12.9135 13.3545 12.9135 12.1272C12.9133 10.7399 12.105 9.93155 10.5015 9.27619H10.5016Z" fill="#FF8F67"/>
</svg>
