<svg width="20" height="20" viewBox="0 0 20 20" fill="none" xmlns="http://www.w3.org/2000/svg">
<path d="M17.7229 5C16.5947 5 15.6717 5.86199 15.5076 6.98274H12.1229V5H7.61019V6.98274H4.47179C4.28721 5.86202 3.36419 5 2.25644 5C1.00518 5 0 6.05607 0 7.37075C0 8.68539 1.00515 9.7415 2.25644 9.7415C3.20009 9.7415 4.00007 9.13805 4.34875 8.27607H5.64107C3.44616 9.65521 2 12.4998 2.76918 15.9998H4C3.5 12.4998 5.04628 9.59033 7.61034 8.74982V9.74127H12.1231V8.74982C14.6871 9.59033 17 12.4998 16 15.9998H17.2308C18 11.9998 16.2871 9.65498 14.1128 8.27568H15.6513C15.9999 9.13767 16.7999 9.74111 17.7436 9.74111C18.9948 9.74111 20 8.68505 20 7.37036C19.9999 6.05587 18.9742 5 17.7229 5Z" fill="#5D95E8"/>
</svg>
