<svg width="20" height="21" viewBox="0 0 20 21" fill="none" xmlns="http://www.w3.org/2000/svg">
<path d="M13 5.5C13 3.29066 11.2089 1.5 9 1.5C6.79109 1.5 5 3.29066 5 5.5C5 7.70934 6.79109 9.5 9 9.5C11.2089 9.5 13 7.70934 13 5.5Z" fill="#0077B6"/>
<path d="M12 9.5C11.2357 10.0784 10.0266 10.5 9 10.5C7.95345 10.5 6.7718 10.0987 6 9.5C1.10197 10.679 0.910523 14.7341 1.0085 18.479C1.0247 19.0984 1.3724 19.5001 2 19.5001L11 19.5V16.5001C11 15.4814 11.307 14.5001 13 14.5001L16.5 14.5C16.5 11.5 14.5 9.5 12 9.5Z" fill="#0077B6"/>
<path d="M13 17.5H19M19 17.5L17.5 16M19 17.5L17.5 19" stroke="#0077B6" stroke-linecap="round" stroke-linejoin="round"/>
</svg>
