<svg width="192" height="54" viewBox="0 0 192 54" fill="none" xmlns="http://www.w3.org/2000/svg">
<path d="M184.82 54H7.10846C3.20059 54 0 50.9608 0 47.25V6.75006C0 3.03926 3.20059 7.37164e-05 7.10846 7.37164e-05H184.82C188.728 7.37164e-05 191.928 3.03926 191.928 6.75006V47.25C191.928 50.9608 188.728 54 184.82 54Z" fill="black"/>
<path d="M184.82 1.08176C188.111 1.08176 190.789 3.62482 190.789 6.75006V47.25C190.789 50.3753 188.111 52.9183 184.82 52.9183H7.10846C3.81724 52.9183 1.13913 50.3753 1.13913 47.25V6.75006C1.13913 3.62482 3.81724 1.08176 7.10846 1.08176H184.82ZM184.82 7.37164e-05H7.10846C3.20059 7.37164e-05 0 3.03926 0 6.75006V47.25C0 50.9608 3.20059 54 7.10846 54H184.82C188.728 54 191.928 50.9608 191.928 47.25V6.75006C191.928 3.03926 188.728 7.37164e-05 184.82 7.37164e-05Z" fill="#A6A6A6"/>
<path d="M67.4136 13.8294C67.4136 14.9566 67.0582 15.8594 66.358 16.5327C65.5529 17.3309 64.5044 17.7326 63.2196 17.7326C61.9916 17.7326 60.9431 17.3242 60.083 16.5192C59.2211 15.7025 58.791 14.7001 58.791 13.5003C58.791 12.3005 59.2211 11.2981 60.083 10.4881C60.9431 9.67644 61.9916 9.26807 63.2196 9.26807C63.8309 9.26807 64.4138 9.38788 64.97 9.61063C65.5245 9.83507 65.9759 10.1388 66.3029 10.5134L65.56 11.2256C64.9896 10.586 64.213 10.2704 63.2196 10.2704C62.3239 10.2704 61.5473 10.5674 60.888 11.1665C60.2358 11.7673 59.9088 12.5452 59.9088 13.5003C59.9088 14.4554 60.2358 15.2401 60.888 15.8409C61.5473 16.4332 62.3239 16.7369 63.2196 16.7369C64.1703 16.7369 64.97 16.4332 65.6009 15.8341C66.0168 15.4376 66.2531 14.8908 66.3153 14.1922H63.2196V13.2168H67.3496C67.3994 13.4277 67.4136 13.6319 67.4136 13.8294V13.8294Z" fill="white" stroke="white" stroke-width="0.16" stroke-miterlimit="10"/>
<path d="M73.965 10.4475H70.0856V13.0125H73.5829V13.9879H70.0856V16.5529H73.965V17.5469H68.9873V9.45361H73.965V10.4475Z" fill="white" stroke="white" stroke-width="0.16" stroke-miterlimit="10"/>
<path d="M78.5891 17.5469H77.4909V10.4475H75.1113V9.45361H80.9705V10.4475H78.5891V17.5469V17.5469Z" fill="white" stroke="white" stroke-width="0.16" stroke-miterlimit="10"/>
<path d="M85.2109 17.5469V9.45361H86.3082V17.5469H85.2109Z" fill="white" stroke="white" stroke-width="0.16" stroke-miterlimit="10"/>
<path d="M91.1682 17.5469H90.0789V10.4475H87.6904V9.45361H93.5567V10.4475H91.1682V17.5469Z" fill="white" stroke="white" stroke-width="0.16" stroke-miterlimit="10"/>
<path d="M104.649 16.5057C103.808 17.3242 102.767 17.7326 101.524 17.7326C100.275 17.7326 99.2337 17.3242 98.3931 16.5057C97.5543 15.689 97.1367 14.6866 97.1367 13.5003C97.1367 12.314 97.5543 11.3116 98.3931 10.4949C99.2337 9.67644 100.275 9.26807 101.524 9.26807C102.76 9.26807 103.801 9.67644 104.641 10.5016C105.487 11.3251 105.905 12.3207 105.905 13.5003C105.905 14.6866 105.487 15.689 104.649 16.5057ZM99.2053 15.8274C99.8379 16.4332 100.607 16.7369 101.524 16.7369C102.434 16.7369 103.211 16.4332 103.836 15.8274C104.467 15.2216 104.787 14.4436 104.787 13.5003C104.787 12.557 104.467 11.7791 103.836 11.1733C103.211 10.5674 102.434 10.2637 101.524 10.2637C100.607 10.2637 99.8379 10.5674 99.2053 11.1733C98.5744 11.7791 98.2545 12.557 98.2545 13.5003C98.2545 14.4436 98.5744 15.2216 99.2053 15.8274V15.8274Z" fill="white" stroke="white" stroke-width="0.16" stroke-miterlimit="10"/>
<path d="M107.446 17.5469V9.45361H108.779L112.923 15.748H112.971L112.923 14.1921V9.45361H114.02V17.5469H112.875L108.536 10.942H108.488L108.536 12.5046V17.5469H107.446V17.5469Z" fill="white" stroke="white" stroke-width="0.16" stroke-miterlimit="10"/>
<path d="M96.8664 29.3657C93.5272 29.3657 90.7994 31.7788 90.7994 35.1082C90.7994 38.4107 93.5272 40.8491 96.8664 40.8491C100.213 40.8491 102.941 38.4107 102.941 35.1082C102.941 31.7788 100.213 29.3657 96.8664 29.3657ZM96.8664 38.5878C95.0342 38.5878 93.4579 37.1518 93.4579 35.1082C93.4579 33.0377 95.0342 31.6269 96.8664 31.6269C98.6986 31.6269 100.282 33.0377 100.282 35.1082C100.282 37.1518 98.6986 38.5878 96.8664 38.5878V38.5878ZM83.6287 29.3657C80.2824 29.3657 77.5616 31.7788 77.5616 35.1082C77.5616 38.4107 80.2824 40.8491 83.6287 40.8491C86.9732 40.8491 89.6958 38.4107 89.6958 35.1082C89.6958 31.7788 86.9732 29.3657 83.6287 29.3657ZM83.6287 38.5878C81.7947 38.5878 80.2131 37.1518 80.2131 35.1082C80.2131 33.0377 81.7947 31.6269 83.6287 31.6269C85.4609 31.6269 87.0372 33.0377 87.0372 35.1082C87.0372 37.1518 85.4609 38.5878 83.6287 38.5878ZM67.8764 31.1257V33.5659H74.0127C73.8333 34.9294 73.3534 35.9317 72.6177 36.6303C71.722 37.4741 70.327 38.4107 67.8764 38.4107C64.1 38.4107 61.1429 35.5166 61.1429 31.9307C61.1429 28.3447 64.1 25.4507 67.8764 25.4507C69.9183 25.4507 71.4039 26.2084 72.5004 27.1905L74.3113 25.4709C72.7777 24.0804 70.7375 23.0122 67.8764 23.0122C62.6979 23.0122 58.3457 27.0133 58.3457 31.9307C58.3457 36.848 62.6979 40.8491 67.8764 40.8491C70.6753 40.8491 72.7777 39.9783 74.4304 38.3448C76.124 36.7367 76.6518 34.4754 76.6518 32.6495C76.6518 32.0825 76.602 31.5611 76.5131 31.1257H67.8764ZM132.29 33.0174C131.79 31.7332 130.25 29.3657 127.111 29.3657C124.001 29.3657 121.412 31.6927 121.412 35.1082C121.412 38.3246 123.975 40.8491 127.41 40.8491C130.187 40.8491 131.79 39.2409 132.45 38.3043L130.388 36.9999C129.7 37.955 128.764 38.5878 127.41 38.5878C126.064 38.5878 125.099 38.0023 124.481 36.848L132.569 33.6705L132.29 33.0174V33.0174ZM124.044 34.9293C123.975 32.7154 125.855 31.5814 127.202 31.5814C128.257 31.5814 129.153 32.0825 129.452 32.7997L124.044 34.9293V34.9293ZM117.47 40.4998H120.129V23.6248H117.47V40.4998ZM113.116 30.6448H113.028C112.43 29.9732 111.291 29.3657 109.848 29.3657C106.82 29.3657 104.051 31.8902 104.051 35.1268C104.051 38.3448 106.82 40.8491 109.848 40.8491C111.291 40.8491 112.43 40.2365 113.028 39.5447H113.116V40.3682C113.116 42.5636 111.881 43.7431 109.889 43.7431C108.265 43.7431 107.257 42.6294 106.841 41.6928L104.529 42.6091C105.196 44.1313 106.96 46.0044 109.889 46.0044C113.006 46.0044 115.636 44.2629 115.636 40.0256V29.715H113.116V30.6448V30.6448ZM110.076 38.5878C108.244 38.5878 106.71 37.1315 106.71 35.1268C106.71 33.1035 108.244 31.6269 110.076 31.6269C111.881 31.6269 113.305 33.1035 113.305 35.1268C113.305 37.1315 111.881 38.5878 110.076 38.5878V38.5878ZM144.737 23.6248H138.378V40.4998H141.03V34.1059H144.737C147.681 34.1059 150.569 32.0825 150.569 28.8645C150.569 25.6481 147.674 23.6248 144.737 23.6248V23.6248ZM144.806 31.7585H141.03V25.9721H144.806C146.786 25.9721 147.916 27.533 147.916 28.8645C147.916 30.1706 146.786 31.7585 144.806 31.7585ZM161.196 29.3336C159.28 29.3336 157.288 30.1369 156.469 31.9172L158.822 32.8537C159.328 31.9172 160.26 31.6134 161.244 31.6134C162.62 31.6134 164.015 32.3981 164.036 33.7835V33.9607C163.556 33.6975 162.529 33.3077 161.266 33.3077C158.731 33.3077 156.149 34.6324 156.149 37.1045C156.149 39.3658 158.225 40.8221 160.558 40.8221C162.342 40.8221 163.327 40.0577 163.945 39.1683H164.036V40.4728H166.597V33.9995C166.597 31.0076 164.244 29.3336 161.196 29.3336ZM160.876 38.5811C160.009 38.5811 158.801 38.1727 158.801 37.1518C158.801 35.8457 160.308 35.3445 161.612 35.3445C162.78 35.3445 163.327 35.5892 164.036 35.9115C163.828 37.4741 162.412 38.5811 160.876 38.5811V38.5811ZM175.927 29.7032L172.879 37.0185H172.788L169.638 29.7032H166.778L171.512 39.926L168.811 45.6146H171.582L178.877 29.7032H175.927V29.7032ZM152.026 40.4998H154.685V23.6248H152.026V40.4998Z" fill="white"/>
<path d="M14.8361 10.1777C14.4184 10.5928 14.1768 11.2391 14.1768 12.0761V41.9313C14.1768 42.7683 14.4184 43.4146 14.8361 43.8298L14.9391 43.9209L32.5575 27.1978V26.8029L14.9391 10.0798L14.8361 10.1777Z" fill="url(#paint0_linear_29_5926)"/>
<path d="M38.4229 32.7744L32.5566 27.1972V26.8024L38.43 21.2252L38.5615 21.2977L45.5171 25.0558C47.5022 26.1223 47.5022 27.8773 45.5171 28.9505L38.5615 32.7018L38.4229 32.7744V32.7744Z" fill="url(#paint1_linear_29_5926)"/>
<path d="M38.5612 32.7023L32.5564 27.0003L14.835 43.8297C15.4943 44.4878 16.5694 44.5671 17.7921 43.909L38.5612 32.7023" fill="url(#paint2_linear_29_5926)"/>
<path d="M38.5612 21.2979L17.7921 10.0913C16.5694 9.4399 15.4943 9.51921 14.835 10.1773L32.5564 27L38.5612 21.2979Z" fill="url(#paint3_linear_29_5926)"/>
<defs>
<linearGradient id="paint0_linear_29_5926" x1="30.9932" y1="42.2422" x2="8.36725" y2="18.4147" gradientUnits="userSpaceOnUse">
<stop stop-color="#00A0FF"/>
<stop offset="0.0066" stop-color="#00A1FF"/>
<stop offset="0.2601" stop-color="#00BEFF"/>
<stop offset="0.5122" stop-color="#00D2FF"/>
<stop offset="0.7604" stop-color="#00DFFF"/>
<stop offset="1" stop-color="#00E3FF"/>
</linearGradient>
<linearGradient id="paint1_linear_29_5926" x1="48.102" y1="26.9979" x2="13.7014" y2="26.9979" gradientUnits="userSpaceOnUse">
<stop stop-color="#FFE000"/>
<stop offset="0.4087" stop-color="#FFBD00"/>
<stop offset="0.7754" stop-color="#FFA500"/>
<stop offset="1" stop-color="#FF9C00"/>
</linearGradient>
<linearGradient id="paint2_linear_29_5926" x1="35.296" y1="23.9006" x2="4.61338" y2="-8.41147" gradientUnits="userSpaceOnUse">
<stop stop-color="#FF3A44"/>
<stop offset="1" stop-color="#C31162"/>
</linearGradient>
<linearGradient id="paint3_linear_29_5926" x1="10.3741" y1="53.7621" x2="24.0753" y2="39.3335" gradientUnits="userSpaceOnUse">
<stop stop-color="#32A071"/>
<stop offset="0.0685" stop-color="#2DA771"/>
<stop offset="0.4762" stop-color="#15CF74"/>
<stop offset="0.8009" stop-color="#06E775"/>
<stop offset="1" stop-color="#00F076"/>
</linearGradient>
</defs>
</svg>
