<svg width="20" height="18" viewBox="0 0 20 18" fill="none" xmlns="http://www.w3.org/2000/svg">
<path fill-rule="evenodd" clip-rule="evenodd" d="M0.391497 8.59912C-0.738149 5.24881 0.582052 1.41945 4.28472 0.286348C6.23239 -0.310707 8.38219 0.0413257 10.0014 1.19843C11.5332 0.0733286 13.762 -0.306707 15.7075 0.286348C19.4102 1.41945 20.7388 5.24881 19.6102 8.59912C17.8521 13.9096 10.0014 18 10.0014 18C10.0014 18 2.20862 13.9716 0.391497 8.59912Z" fill="white"/>
<path d="M0.391497 8.59912L-0.0822959 8.75888L-0.082145 8.75932L0.391497 8.59912ZM4.28472 0.286348L4.43104 0.764462L4.43127 0.764391L4.28472 0.286348ZM10.0014 1.19843L9.71067 1.60524C9.88651 1.73089 10.1232 1.72935 10.2974 1.60141L10.0014 1.19843ZM15.7075 0.286348L15.8538 -0.191765L15.8533 -0.191925L15.7075 0.286348ZM19.6102 8.59912L19.1364 8.4395L19.1356 8.44198L19.6102 8.59912ZM10.0014 18L9.77178 18.4442C9.9163 18.5189 10.0881 18.5186 10.2324 18.4434L10.0014 18ZM0.865289 8.43937C-0.196053 5.29163 1.05843 1.79656 4.43104 0.764462L4.13841 -0.191765C0.105676 1.04235 -1.28024 5.20599 -0.0822957 8.75888L0.865289 8.43937ZM4.43127 0.764391C6.23159 0.212504 8.2195 0.53961 9.71067 1.60524L10.2921 0.791631C8.54488 -0.456959 6.23319 -0.833918 4.13818 -0.191694L4.43127 0.764391ZM10.2974 1.60141C11.6976 0.572927 13.7617 0.215943 15.5617 0.764622L15.8533 -0.191925C13.7622 -0.829357 11.3688 -0.42627 9.7054 0.795454L10.2974 1.60141ZM15.5612 0.764462C18.9348 1.79687 20.1964 5.29281 19.1364 8.43951L20.0841 8.75874C21.2812 5.20482 19.8856 1.04204 15.8538 -0.191765L15.5612 0.764462ZM19.1356 8.44198C18.306 10.9476 16.0082 13.2205 13.8408 14.8954C12.7675 15.7247 11.747 16.3917 10.9948 16.8512C10.619 17.0808 10.311 17.2582 10.0977 17.3777C9.99112 17.4374 9.90827 17.4827 9.85256 17.5127C9.82471 17.5278 9.80365 17.539 9.7898 17.5463C9.78288 17.55 9.77776 17.5527 9.7745 17.5544C9.77287 17.5553 9.77171 17.5559 9.77101 17.5562C9.77067 17.5564 9.77044 17.5565 9.77033 17.5566C9.77027 17.5566 9.77028 17.5566 9.77025 17.5566C9.77028 17.5566 9.77035 17.5566 10.0014 18C10.2324 18.4434 10.2325 18.4434 10.2327 18.4433C10.2328 18.4432 10.233 18.4431 10.2332 18.443C10.2335 18.4428 10.234 18.4426 10.2346 18.4423C10.2358 18.4416 10.2375 18.4408 10.2397 18.4396C10.244 18.4374 10.2501 18.4341 10.2581 18.4299C10.2741 18.4214 10.2973 18.409 10.3274 18.3928C10.3876 18.3603 10.4751 18.3125 10.5866 18.2501C10.8095 18.1251 11.1285 17.9414 11.5162 17.7046C12.2909 17.2312 13.343 16.5437 14.4522 15.6866C16.6496 13.9887 19.1563 11.5612 20.0849 8.75627L19.1356 8.44198ZM10.0014 18C10.231 17.5558 10.2311 17.5559 10.2311 17.5559C10.2311 17.5559 10.2311 17.5559 10.231 17.5559C10.2309 17.5558 10.2307 17.5557 10.2304 17.5555C10.2297 17.5552 10.2285 17.5546 10.2269 17.5537C10.2237 17.552 10.2186 17.5494 10.2118 17.5458C10.198 17.5386 10.1772 17.5275 10.1495 17.5127C10.0943 17.4831 10.0121 17.4385 9.90626 17.3796C9.69457 17.2617 9.38864 17.0866 9.01519 16.8594C8.26771 16.4048 7.25286 15.7437 6.18332 14.9184C4.02463 13.2526 1.72407 10.9784 0.865139 8.43893L-0.082145 8.75932C0.876042 11.5923 3.38043 14.0186 5.5724 15.7101C6.67819 16.5634 7.72511 17.2452 8.49555 17.7138C8.88107 17.9483 9.19814 18.1298 9.41972 18.2532C9.53052 18.3149 9.61751 18.3621 9.6773 18.3942C9.70719 18.4102 9.7303 18.4224 9.74618 18.4308C9.75412 18.435 9.76026 18.4382 9.76455 18.4404C9.76669 18.4415 9.76837 18.4424 9.76957 18.443C9.77018 18.4433 9.77066 18.4436 9.77103 18.4438C9.77122 18.4439 9.7714 18.444 9.77149 18.444C9.77165 18.4441 9.77178 18.4442 10.0014 18Z" fill="#0077B6"/>
</svg>
