<svg width="126" height="31" viewBox="0 0 126 31" fill="none" xmlns="http://www.w3.org/2000/svg">
<g clip-path="url(#clip0_5_3792)">
<path fill-rule="evenodd" clip-rule="evenodd" d="M1.11035 22.5034L5.55149 19.1017C7.90986 22.1808 10.4144 23.5997 13.2052 23.5997C15.9805 23.5997 18.4162 22.1971 20.6689 19.1424L25.1712 22.4627C21.9233 26.867 17.8823 29.1938 13.2052 29.1938C8.54349 29.1938 4.46515 26.8833 1.11035 22.5034Z" fill="url(#paint0_linear_5_3792)"/>
<path fill-rule="evenodd" clip-rule="evenodd" d="M13.191 7.71904L5.28648 14.5302L1.63477 10.2923L13.2067 0.320953L24.6887 10.3001L21.019 14.5225L13.191 7.71904Z" fill="url(#paint1_linear_5_3792)"/>
<path d="M55.4866 6.0712H51.0112V24.7185H55.4866V6.0712Z" fill="black"/>
<path fill-rule="evenodd" clip-rule="evenodd" d="M41.9667 24.8007C39.3285 24.8007 37.13 23.9458 35.3467 22.2358C33.5635 20.5014 32.6841 18.2785 32.6841 15.567C32.6841 12.831 33.588 10.5836 35.3712 8.82486C37.1788 7.04159 39.3773 6.1622 41.9912 6.1622C45.2156 6.1622 48.0738 7.55458 49.7347 9.72869L46.8278 12.7822C45.4354 11.2921 43.921 10.5348 42.2843 10.5348C40.8919 10.5348 39.7438 10.9989 38.7911 11.9516C37.8628 12.9043 37.3987 14.1013 37.3987 15.5426C37.3987 16.9349 37.8628 18.1075 38.7911 19.0602C39.7438 19.9884 40.8919 20.4526 42.2599 20.4526C44.0431 20.4526 45.6064 19.6709 46.9011 18.1319L49.9304 21.0388C49.0999 22.1381 47.9759 23.0419 46.5835 23.7503C45.1914 24.4588 43.6523 24.8007 41.9667 24.8007Z" fill="black"/>
<path fill-rule="evenodd" clip-rule="evenodd" d="M62.1993 7.56296C62.1993 8.90181 61.1143 9.98714 59.7754 9.98714C58.4364 9.98714 57.3511 8.90181 57.3511 7.56296C57.3511 6.22415 58.4364 5.13882 59.7754 5.13882C61.1143 5.13882 62.1993 6.22415 62.1993 7.56296ZM62.0128 11.1059H57.5375V24.7185H62.0128V11.1059Z" fill="black"/>
<path fill-rule="evenodd" clip-rule="evenodd" d="M70.6634 24.8251C68.5383 24.8251 66.8282 24.1656 65.4849 22.8465C64.1657 21.5273 63.5059 19.8418 63.5059 17.7655C63.5059 15.6891 64.1657 14.0035 65.509 12.6844C66.8528 11.3653 68.587 10.7058 70.7367 10.7058C73.5462 10.7058 76.013 12.0737 77.1611 14.6387L73.7168 16.4463C73.0329 15.2982 72.0804 14.7119 70.8345 14.7119C69.9308 14.7119 69.1977 15.0051 68.6116 15.5913C68.0496 16.1776 67.7565 16.9105 67.7565 17.7655C67.7565 19.5487 69.0512 20.8678 70.7858 20.8678C72.0313 20.8678 73.1794 20.1838 73.6681 19.1334L77.1124 21.1854C75.9398 23.4327 73.5216 24.8251 70.6634 24.8251Z" fill="black"/>
<path fill-rule="evenodd" clip-rule="evenodd" d="M82.7121 6.0712H78.2368V24.7185H82.7121V19.9714L83.2364 19.4823L87.3273 24.7185H92.5335L86.2481 16.6738L92.2189 11.1059H86.7504L82.7121 14.872V6.0712Z" fill="black"/>
<path fill-rule="evenodd" clip-rule="evenodd" d="M93.3408 17.672V6.0712H98.003V17.4123C98.003 19.4398 99.1844 20.4169 100.893 20.4169C102.577 20.4169 103.783 19.3909 103.783 17.4123V6.0712H108.445V17.672C108.445 22.9973 104.706 25.0004 100.893 25.0004C97.1045 25.0004 93.3408 22.9973 93.3408 17.672Z" fill="black"/>
<path fill-rule="evenodd" clip-rule="evenodd" d="M118.515 25.0914C122.119 25.0914 125.041 21.9189 125.041 18.0054C125.041 14.0919 122.119 10.9195 118.515 10.9195C117.046 10.9195 115.69 11.4466 114.599 12.3361V11.106H110.31V30.3127H114.599V23.6748C115.69 24.5643 117.046 25.0914 118.515 25.0914ZM114.599 18.0127V17.9981C114.603 16.2507 115.979 14.8354 117.676 14.8354C119.375 14.8354 120.753 16.2547 120.753 18.0054C120.753 19.7562 119.375 21.1754 117.676 21.1754C115.979 21.1754 114.603 19.7601 114.599 18.0127Z" fill="black"/>
</g>
<defs>
<linearGradient id="paint0_linear_5_3792" x1="1.11035" y1="31.011" x2="25.1712" y2="31.011" gradientUnits="userSpaceOnUse">
<stop stop-color="#8930FD"/>
<stop offset="1" stop-color="#49CCF9"/>
</linearGradient>
<linearGradient id="paint1_linear_5_3792" x1="1.63477" y1="17.0887" x2="24.6887" y2="17.0887" gradientUnits="userSpaceOnUse">
<stop stop-color="#FF02F0"/>
<stop offset="1" stop-color="#FFC800"/>
</linearGradient>
<clipPath id="clip0_5_3792">
<rect width="124.594" height="30.271" fill="white" transform="translate(0.761719 0.180634)"/>
</clipPath>
</defs>
</svg>
