<svg width="32" height="32" viewBox="0 0 32 32" fill="none" xmlns="http://www.w3.org/2000/svg">
<g clip-path="url(#clip0_5_3744)">
<path opacity="0.2" d="M10 15.9981C10 14.0202 10.5865 12.0868 11.6853 10.4423C12.7841 8.79786 14.3459 7.51613 16.1732 6.75926C18.0005 6.00238 20.0111 5.80435 21.9509 6.1902C23.8907 6.57605 25.6726 7.52846 27.0711 8.92698C28.4696 10.3255 29.422 12.1073 29.8079 14.0471C30.1937 15.987 29.9957 17.9976 29.2388 19.8249C28.482 21.6521 27.2002 23.2139 25.5557 24.3127C23.9112 25.4116 21.9778 25.9981 20 25.9981H9.00003C8.00733 25.9971 7.02618 25.785 6.12172 25.3758C5.21725 24.9667 4.41016 24.3698 3.754 23.6249C3.09785 22.88 2.60764 22.004 2.31591 21.0551C2.02419 20.1063 1.93762 19.1062 2.06196 18.1213C2.1863 17.1364 2.51869 16.1892 3.03708 15.3426C3.55548 14.496 4.24801 13.7694 5.06871 13.2109C5.88942 12.6524 6.81952 12.2749 7.79729 12.1033C8.77507 11.9318 9.77814 11.9702 10.7399 12.216" fill="#F1F2F4"/>
<path d="M11.9995 25.998H8.99954C8.00684 25.9971 7.02569 25.785 6.12123 25.3758C5.21677 24.9667 4.40967 24.3698 3.75352 23.6249C3.09736 22.88 2.60715 22.004 2.31543 21.0551C2.0237 20.1063 1.93714 19.1062 2.06147 18.1213C2.18581 17.1364 2.5182 16.1892 3.0366 15.3426C3.55499 14.496 4.24752 13.7694 5.06822 13.2109C5.88893 12.6524 6.81903 12.2749 7.79681 12.1033C8.77458 11.9318 9.77765 11.9702 10.7394 12.216" stroke="#F1F2F4" stroke-width="2" stroke-linecap="round" stroke-linejoin="round"/>
<path d="M9.99902 15.998C9.99918 14.4136 10.3758 12.8518 11.098 11.4415C11.8201 10.0312 12.867 8.81262 14.1524 7.88625C15.4378 6.95988 16.925 6.35221 18.4914 6.11333C20.0577 5.87445 21.6584 6.01118 23.1615 6.51227C24.6647 7.01335 26.0272 7.86445 27.1369 8.99541C28.2466 10.1264 29.0717 11.5048 29.5441 13.0172C30.0166 14.5296 30.1229 16.1326 29.8543 17.6941C29.5857 19.2557 28.9499 20.731 27.9993 21.9986" stroke="#F1F2F4" stroke-width="2" stroke-linecap="round" stroke-linejoin="round"/>
<path d="M14.7563 20.2408L18.999 15.998L23.2416 20.2408" stroke="#F1F2F4" stroke-width="2" stroke-linecap="round" stroke-linejoin="round"/>
<path d="M18.999 25.998V15.998" stroke="#F1F2F4" stroke-width="2" stroke-linecap="round" stroke-linejoin="round"/>
</g>
<defs>
<clipPath id="clip0_5_3744">
<rect width="32" height="32" fill="white"/>
</clipPath>
</defs>
</svg>
