<svg width="192" height="54" viewBox="0 0 192 54" fill="none" xmlns="http://www.w3.org/2000/svg">
<path d="M184.82 54H7.10846C3.20059 54 0 50.9608 0 47.25V6.75006C0 3.03926 3.20059 7.37164e-05 7.10846 7.37164e-05H184.82C188.728 7.37164e-05 191.928 3.03926 191.928 6.75006V47.25C191.928 50.9608 188.728 54 184.82 54Z" fill="black"/>
<path d="M184.82 1.08176C188.111 1.08176 190.789 3.62482 190.789 6.75006V47.25C190.789 50.3753 188.111 52.9183 184.82 52.9183H7.10846C3.81724 52.9183 1.13913 50.3753 1.13913 47.25V6.75006C1.13913 3.62482 3.81724 1.08176 7.10846 1.08176H184.82ZM184.82 7.37164e-05H7.10846C3.20059 7.37164e-05 0 3.03926 0 6.75006V47.25C0 50.9608 3.20059 54 7.10846 54H184.82C188.728 54 191.928 50.9608 191.928 47.25V6.75006C191.928 3.03926 188.728 7.37164e-05 184.82 7.37164e-05Z" fill="#A6A6A6"/>
<path d="M67.4131 13.8291C67.4131 14.9564 67.0577 15.8592 66.3575 16.5325C65.5525 17.3307 64.504 17.7323 63.2191 17.7323C61.9911 17.7323 60.9426 17.3239 60.0825 16.519C59.2206 15.7022 58.7905 14.6999 58.7905 13.5001C58.7905 12.3003 59.2206 11.2979 60.0825 10.4879C60.9426 9.6762 61.9911 9.26782 63.2191 9.26782C63.8304 9.26782 64.4133 9.38763 64.9696 9.61038C65.524 9.83482 65.9754 10.1386 66.3024 10.5132L65.5596 11.2253C64.9891 10.5858 64.2125 10.2702 63.2191 10.2702C62.3234 10.2702 61.5468 10.5672 60.8875 11.1663C60.2353 11.767 59.9083 12.5449 59.9083 13.5001C59.9083 14.4552 60.2353 15.2399 60.8875 15.8406C61.5468 16.4329 62.3234 16.7367 63.2191 16.7367C64.1699 16.7367 64.9696 16.4329 65.6004 15.8339C66.0163 15.4373 66.2526 14.8906 66.3148 14.1919H63.2191V13.2166H67.3491C67.3989 13.4275 67.4131 13.6317 67.4131 13.8291V13.8291Z" fill="white" stroke="white" stroke-width="0.16" stroke-miterlimit="10"/>
<path d="M73.9655 10.4473H70.0861V13.0123H73.5834V13.9877H70.0861V16.5527H73.9655V17.5466H68.9878V9.45337H73.9655V10.4473Z" fill="white" stroke="white" stroke-width="0.16" stroke-miterlimit="10"/>
<path d="M78.5894 17.5466H77.4911V10.4473H75.1116V9.45337H80.9707V10.4473H78.5894V17.5466V17.5466Z" fill="white" stroke="white" stroke-width="0.16" stroke-miterlimit="10"/>
<path d="M85.2109 17.5466V9.45337H86.3082V17.5466H85.2109Z" fill="white" stroke="white" stroke-width="0.16" stroke-miterlimit="10"/>
<path d="M91.168 17.5466H90.0786V10.4473H87.6902V9.45337H93.5564V10.4473H91.168V17.5466Z" fill="white" stroke="white" stroke-width="0.16" stroke-miterlimit="10"/>
<path d="M104.649 16.5055C103.809 17.3239 102.767 17.7323 101.525 17.7323C100.276 17.7323 99.2342 17.3239 98.3936 16.5055C97.5548 15.6888 97.1372 14.6864 97.1372 13.5001C97.1372 12.3138 97.5548 11.3114 98.3936 10.4946C99.2342 9.6762 100.276 9.26782 101.525 9.26782C102.76 9.26782 103.801 9.6762 104.642 10.5014C105.488 11.3249 105.906 12.3205 105.906 13.5001C105.906 14.6864 105.488 15.6888 104.649 16.5055ZM99.2058 15.8271C99.8384 16.4329 100.608 16.7367 101.525 16.7367C102.435 16.7367 103.211 16.4329 103.837 15.8271C104.468 15.2213 104.788 14.4434 104.788 13.5001C104.788 12.5568 104.468 11.7788 103.837 11.173C103.211 10.5672 102.435 10.2634 101.525 10.2634C100.608 10.2634 99.8384 10.5672 99.2058 11.173C98.5749 11.7788 98.255 12.5568 98.255 13.5001C98.255 14.4434 98.5749 15.2213 99.2058 15.8271V15.8271Z" fill="white" stroke="white" stroke-width="0.16" stroke-miterlimit="10"/>
<path d="M107.447 17.5466V9.45337H108.779L112.924 15.7477H112.972L112.924 14.1919V9.45337H114.02V17.5466H112.876L108.536 10.9417H108.488L108.536 12.5044V17.5466H107.447V17.5466Z" fill="white" stroke="white" stroke-width="0.16" stroke-miterlimit="10"/>
<path d="M96.8667 29.3659C93.5275 29.3659 90.7996 31.779 90.7996 35.1085C90.7996 38.4109 93.5275 40.8493 96.8667 40.8493C100.213 40.8493 102.941 38.4109 102.941 35.1085C102.941 31.779 100.213 29.3659 96.8667 29.3659ZM96.8667 38.5881C95.0345 38.5881 93.4582 37.152 93.4582 35.1085C93.4582 33.0379 95.0345 31.6272 96.8667 31.6272C98.6989 31.6272 100.282 33.0379 100.282 35.1085C100.282 37.152 98.6989 38.5881 96.8667 38.5881V38.5881ZM83.629 29.3659C80.2826 29.3659 77.5619 31.779 77.5619 35.1085C77.5619 38.4109 80.2826 40.8493 83.629 40.8493C86.9735 40.8493 89.696 38.4109 89.696 35.1085C89.696 31.779 86.9735 29.3659 83.629 29.3659ZM83.629 38.5881C81.795 38.5881 80.2133 37.152 80.2133 35.1085C80.2133 33.0379 81.795 31.6272 83.629 31.6272C85.4612 31.6272 87.0375 33.0379 87.0375 35.1085C87.0375 37.152 85.4612 38.5881 83.629 38.5881ZM67.8766 31.126V33.5661H74.013C73.8335 34.9296 73.3537 35.932 72.618 36.6306C71.7223 37.4743 70.3273 38.4109 67.8766 38.4109C64.1002 38.4109 61.1431 35.5168 61.1431 31.9309C61.1431 28.345 64.1002 25.4509 67.8766 25.4509C69.9185 25.4509 71.4042 26.2086 72.5007 27.1907L74.3115 25.4712C72.7779 24.0807 70.7378 23.0125 67.8766 23.0125C62.6981 23.0125 58.3459 27.0135 58.3459 31.9309C58.3459 36.8483 62.6981 40.8493 67.8766 40.8493C70.6756 40.8493 72.7779 39.9786 74.4306 38.3451C76.1242 36.7369 76.652 34.4757 76.652 32.6498C76.652 32.0828 76.6022 31.5613 76.5134 31.126H67.8766ZM132.29 33.0177C131.791 31.7335 130.25 29.3659 127.111 29.3659C124.001 29.3659 121.412 31.693 121.412 35.1085C121.412 38.3248 123.975 40.8493 127.41 40.8493C130.188 40.8493 131.791 39.2411 132.45 38.3046L130.388 37.0002C129.701 37.9553 128.764 38.5881 127.41 38.5881C126.065 38.5881 125.1 38.0025 124.481 36.8483L132.569 33.6707L132.29 33.0177V33.0177ZM124.044 34.9296C123.975 32.7156 125.855 31.5816 127.202 31.5816C128.258 31.5816 129.153 32.0828 129.452 32.8L124.044 34.9296V34.9296ZM117.471 40.5H120.129V23.625H117.471V40.5ZM113.117 30.645H113.028C112.431 29.9734 111.292 29.3659 109.849 29.3659C106.82 29.3659 104.052 31.8904 104.052 35.127C104.052 38.3451 106.82 40.8493 109.849 40.8493C111.292 40.8493 112.431 40.2368 113.028 39.5449H113.117V40.3684C113.117 42.5638 111.882 43.7434 109.889 43.7434C108.265 43.7434 107.257 42.6296 106.842 41.6931L104.53 42.6094C105.196 44.1315 106.961 46.0046 109.889 46.0046C113.006 46.0046 115.637 44.2631 115.637 40.0258V29.7152H113.117V30.645V30.645ZM110.076 38.5881C108.244 38.5881 106.71 37.1318 106.71 35.127C106.71 33.1037 108.244 31.6272 110.076 31.6272C111.882 31.6272 113.305 33.1037 113.305 35.127C113.305 37.1318 111.882 38.5881 110.076 38.5881V38.5881ZM144.737 23.625H138.378V40.5H141.03V34.1061H144.737C147.682 34.1061 150.569 32.0828 150.569 28.8647C150.569 25.6484 147.674 23.625 144.737 23.625V23.625ZM144.806 31.7588H141.03V25.9724H144.806C146.786 25.9724 147.916 27.5333 147.916 28.8647C147.916 30.1709 146.786 31.7588 144.806 31.7588ZM161.196 29.3339C159.281 29.3339 157.289 30.1371 156.469 31.9174L158.822 32.854C159.329 31.9174 160.26 31.6137 161.244 31.6137C162.62 31.6137 164.015 32.3983 164.036 33.7838V33.961C163.556 33.6977 162.529 33.3079 161.266 33.3079C158.732 33.3079 156.149 34.6326 156.149 37.1048C156.149 39.366 158.225 40.8223 160.558 40.8223C162.343 40.8223 163.327 40.0579 163.946 39.1686H164.036V40.473H166.597V33.9998C166.597 31.0079 164.244 29.3339 161.196 29.3339ZM160.877 38.5813C160.009 38.5813 158.801 38.173 158.801 37.152C158.801 35.8459 160.308 35.3447 161.612 35.3447C162.78 35.3447 163.327 35.5894 164.036 35.9117C163.828 37.4743 162.412 38.5813 160.877 38.5813V38.5813ZM175.927 29.7034L172.879 37.0187H172.789L169.638 29.7034H166.778L171.513 39.9263L168.811 45.6148H171.582L178.877 29.7034H175.927V29.7034ZM152.027 40.5H154.685V23.625H152.027V40.5Z" fill="white"/>
<path d="M14.8358 10.1774C14.4182 10.5926 14.1765 11.2389 14.1765 12.0759V41.9311C14.1765 42.7681 14.4182 43.4144 14.8358 43.8295L14.9389 43.9207L32.5572 27.1975V26.8027L14.9389 10.0796L14.8358 10.1774Z" fill="url(#paint0_linear_5_3670)"/>
<path d="M38.4227 32.7747L32.5564 27.1975V26.8026L38.4298 21.2254L38.5613 21.298L45.5169 25.056C47.5019 26.1225 47.5019 27.8775 45.5169 28.9508L38.5613 32.7021L38.4227 32.7747V32.7747Z" fill="url(#paint1_linear_5_3670)"/>
<path d="M38.5617 32.7021L32.5568 27.0001L14.8354 43.8295C15.4948 44.4876 16.5699 44.5669 17.7926 43.9088L38.5617 32.7021" fill="url(#paint2_linear_5_3670)"/>
<path d="M38.5617 21.2979L17.7926 10.0913C16.5699 9.4399 15.4948 9.51921 14.8354 10.1773L32.5568 27L38.5617 21.2979Z" fill="url(#paint3_linear_5_3670)"/>
<defs>
<linearGradient id="paint0_linear_5_3670" x1="30.9929" y1="42.242" x2="8.36701" y2="18.4145" gradientUnits="userSpaceOnUse">
<stop stop-color="#00A0FF"/>
<stop offset="0.0066" stop-color="#00A1FF"/>
<stop offset="0.2601" stop-color="#00BEFF"/>
<stop offset="0.5122" stop-color="#00D2FF"/>
<stop offset="0.7604" stop-color="#00DFFF"/>
<stop offset="1" stop-color="#00E3FF"/>
</linearGradient>
<linearGradient id="paint1_linear_5_3670" x1="48.1017" y1="26.9982" x2="13.7012" y2="26.9982" gradientUnits="userSpaceOnUse">
<stop stop-color="#FFE000"/>
<stop offset="0.4087" stop-color="#FFBD00"/>
<stop offset="0.7754" stop-color="#FFA500"/>
<stop offset="1" stop-color="#FF9C00"/>
</linearGradient>
<linearGradient id="paint2_linear_5_3670" x1="35.2964" y1="23.9003" x2="4.61387" y2="-8.41171" gradientUnits="userSpaceOnUse">
<stop stop-color="#FF3A44"/>
<stop offset="1" stop-color="#C31162"/>
</linearGradient>
<linearGradient id="paint3_linear_5_3670" x1="10.3746" y1="53.7621" x2="24.0758" y2="39.3335" gradientUnits="userSpaceOnUse">
<stop stop-color="#32A071"/>
<stop offset="0.0685" stop-color="#2DA771"/>
<stop offset="0.4762" stop-color="#15CF74"/>
<stop offset="0.8009" stop-color="#06E775"/>
<stop offset="1" stop-color="#00F076"/>
</linearGradient>
</defs>
</svg>
