<svg width="108" height="36" viewBox="0 0 108 36" fill="none" xmlns="http://www.w3.org/2000/svg">
<path d="M13.9049 16.7259V12.9557H26.3807C26.5237 13.7242 26.5926 14.5047 26.5863 15.2863C26.5863 18.0283 25.8323 21.5242 23.3646 23.9234C20.9654 26.4597 17.9492 27.7621 13.8363 27.7621C6.36456 27.7621 0.0581055 21.6613 0.0581055 14.1896C0.0581055 6.71779 6.36456 0.548431 13.8363 0.548431C18.0178 0.548431 20.9654 2.19359 23.2275 4.31859L20.5541 6.92343C19.1615 5.59444 17.4062 4.70817 15.51 4.37668C13.6138 4.04518 11.6619 4.28334 9.90111 5.06104C8.14027 5.83875 6.64954 7.12108 5.61741 8.74592C4.58528 10.3708 4.05808 12.2651 4.10246 14.1896C4.10246 19.6734 8.42101 24.0605 13.8363 24.0605C17.4008 24.0605 19.4573 22.621 20.7597 21.3186C21.7879 20.2904 22.4734 18.7823 22.7476 16.7259H13.9049Z" fill="#4285F4"/>
<path d="M45.574 18.9881C45.574 24.0607 41.5982 27.7623 36.7312 27.7623C31.8643 27.7623 27.957 24.0607 27.957 18.9881C27.957 13.9155 31.9328 10.2139 36.7312 10.2139C41.5296 10.2139 45.574 13.9155 45.574 18.9881ZM41.6667 18.9881C41.6667 15.8349 39.4046 13.7099 36.7312 13.7099C34.0578 13.7099 31.7957 15.8349 31.7957 18.9881C31.7957 22.1413 34.1264 24.3349 36.7312 24.3349C39.3361 24.3349 41.6667 22.1413 41.6667 18.9881Z" fill="#EA4335"/>
<path d="M64.7676 18.9881C64.7676 24.0607 60.7918 27.7623 55.9248 27.7623C51.0579 27.7623 47.1506 24.0607 47.1506 18.9881C47.1506 13.9155 51.1264 10.2139 55.9248 10.2139C60.7232 10.2139 64.7676 13.9155 64.7676 18.9881ZM60.8603 18.9881C60.8603 15.8349 58.5982 13.7099 55.9248 13.7099C53.2514 13.7099 50.9893 15.8349 50.9893 18.9881C50.9893 22.1413 53.32 24.3349 55.9248 24.3349C58.5297 24.3349 60.8603 22.1413 60.8603 18.9881Z" fill="#FBBC04"/>
<path d="M83.1383 10.7623V26.5284C83.1383 32.972 79.2996 35.6453 74.7754 35.6453C70.5254 35.6453 67.9892 32.7663 67.0295 30.4357L70.3883 29.0647C71.0053 30.5042 72.4448 32.2179 74.7754 32.2179C77.723 32.2179 79.5053 30.3671 79.5053 27.0768V25.7744H79.3682C78.7849 26.4277 78.0648 26.9445 77.2592 27.2881C76.4536 27.6316 75.5822 27.7935 74.7069 27.7623C70.3883 27.7623 66.344 23.9236 66.344 19.0566C66.344 14.1212 70.3883 10.2139 74.7069 10.2139C76.8319 10.2139 78.4771 11.1736 79.3682 12.2018H79.5053V10.7623H83.1383ZM79.7795 19.0566C79.7795 15.972 77.723 13.7099 75.0496 13.7099C72.4448 13.7099 70.1827 15.972 70.1827 19.0566C70.1827 22.0728 72.4448 24.3349 75.0496 24.3349C77.723 24.3349 79.7795 22.0728 79.7795 19.0566Z" fill="#4285F4"/>
<path d="M85.8118 1.57687H89.6505V27.2825H85.8118V1.57687Z" fill="#34A853"/>
<path d="M104.525 21.8671L107.542 23.9236C106.582 25.2945 104.251 27.7623 100.207 27.7623C95.2028 27.7623 91.5012 23.9236 91.5012 18.9881C91.5012 13.7784 95.2714 10.2139 99.7956 10.2139C104.32 10.2139 106.582 13.847 107.267 15.8349L107.679 16.7945L95.9569 21.6615C96.848 23.4437 98.219 24.3349 100.207 24.3349C102.195 24.3349 103.497 23.3752 104.525 21.8671ZM95.3399 18.7139L103.154 15.4921C102.743 14.3953 101.441 13.6413 99.9327 13.6413C97.9448 13.6413 95.2028 15.355 95.3399 18.7139Z" fill="#EA4335"/>
</svg>
