<svg width="25" height="25" viewBox="0 0 25 25" fill="none" xmlns="http://www.w3.org/2000/svg">
<path d="M12.1241 8.12005C11.2481 8.12005 9.89206 7.12405 8.46406 7.16005C6.58006 7.18405 4.85206 8.25205 3.88006 9.94405C1.92406 13.34 3.37606 18.356 5.28406 21.116C6.22006 22.46 7.32406 23.972 8.78806 23.924C10.1921 23.864 10.7201 23.012 12.4241 23.012C14.1161 23.012 14.5961 23.924 16.0841 23.888C17.5961 23.864 18.5561 22.52 19.4801 21.164C20.5481 19.604 20.9921 18.092 21.0161 18.008C20.9801 17.996 18.0761 16.88 18.0401 13.52C18.0161 10.712 20.3321 9.36805 20.4401 9.30805C19.1201 7.37605 17.0921 7.16005 16.3841 7.11205C14.5361 6.96805 12.9881 8.12005 12.1241 8.12005ZM15.2441 5.28805C16.0241 4.35205 16.5401 3.04405 16.3961 1.74805C15.2801 1.79605 13.9361 2.49205 13.1321 3.42805C12.4121 4.25605 11.7881 5.58805 11.9561 6.86005C13.1921 6.95605 14.4641 6.22405 15.2441 5.28805Z" fill="black"/>
</svg>
