<svg width="178" height="36" viewBox="0 0 178 36" fill="none" xmlns="http://www.w3.org/2000/svg">
<path fill-rule="evenodd" clip-rule="evenodd" d="M48.9936 6.55294C50.3022 6.29486 51.6294 6.29486 52.9196 6.55294L52.975 6.57143V28.1931L52.9196 28.2116C51.6109 28.4697 50.3022 28.4697 48.9936 28.2116L48.9381 28.1931V19.419H40.035V28.1931L39.9798 28.2116C39.3163 28.3407 38.6711 28.4142 38.0074 28.4142C37.3437 28.4142 36.6988 28.3407 36.0536 28.2116L35.9983 28.1931V6.57122L36.0536 6.55273C37.3439 6.27637 38.6711 6.27637 39.9798 6.55273L40.035 6.57122V15.9719H48.9381V6.57143L48.9936 6.55294ZM62.8364 12.6358C65.1221 12.6358 67.0024 13.3731 68.2373 14.7372C69.6382 16.304 70.2097 18.6264 69.8963 21.4836V21.5571H59.0577C59.0947 24.4697 60.3666 25.8707 62.9287 25.8707C64.7718 25.8707 66.0254 24.9674 66.2834 23.4559V23.4007H66.3387C67.5368 23.2346 68.5507 23.3084 69.6382 23.677L69.6935 23.6955V23.7508C69.4169 26.2948 67.2052 28.8566 62.8919 28.8566C60.3666 28.8566 58.431 28.0641 57.1591 26.5344C55.9795 25.1149 55.3896 23.1056 55.3896 20.525C55.3896 15.585 58.1729 12.6358 62.8364 12.6358V12.6358ZM62.7628 15.4377C60.4771 15.4377 59.1315 16.8386 59.0209 19.2899H66.2282C66.2834 18.092 65.9886 17.0965 65.3434 16.4145C64.735 15.7693 63.8502 15.4377 62.7626 15.4377H62.7628ZM72.5506 6.55294C73.7673 6.27658 75.0207 6.27658 76.2371 6.55294L76.2925 6.57143V28.1931L76.2371 28.2116C75.6289 28.3407 75.0022 28.4142 74.394 28.4142C73.7858 28.4142 73.1588 28.3407 72.5506 28.2116L72.4954 28.1931V6.57122L72.5506 6.55294ZM86.9466 12.6358C91.3705 12.6358 93.8958 15.6035 93.8958 20.7648C93.8958 25.8154 91.352 28.8383 87.0942 28.8383C85.5642 28.8383 84.2003 28.4327 82.9099 27.6217V34.829L82.8546 34.8475C82.2462 34.9765 81.6195 35.05 81.0113 35.05C80.4031 35.05 79.7762 34.9765 79.1682 34.8475L79.1127 34.829V13.3178L79.168 13.2995C80.0712 13.0229 80.827 13.0229 81.7487 13.2995L81.7855 13.3178L82.0066 14.4606C83.6101 13.2627 85.3246 12.6358 86.9466 12.6358V12.6358ZM82.8546 16.8937V24.6171C83.9422 25.373 85.0113 25.7414 86.1356 25.7414C88.7714 25.7414 90.1724 24.0273 90.1724 20.8201C90.1724 17.5389 88.753 15.751 86.1724 15.751C85.048 15.751 83.9972 16.1196 82.8546 16.8939V16.8937ZM110.117 16.5435C113.121 17.7049 116.236 18.903 116.255 22.5342C116.218 28.0088 111.057 28.8383 107.923 28.8383C104.734 28.8383 102.246 28.0088 100.734 26.3866C99.61 25.1887 99.0754 23.6402 99.1859 21.8892V21.8339L99.2412 21.8154C100.532 21.5203 101.859 21.5021 103.167 21.7601L103.223 21.7784V21.8339C103.112 22.8107 103.352 23.6035 103.923 24.2302C104.697 25.0779 106.062 25.5388 107.849 25.5388C109.472 25.5388 110.688 25.1885 111.388 24.4697C111.868 23.9721 112.107 23.3269 112.089 22.5159C112.052 20.9491 110.301 20.3592 107.389 19.3454C106.799 19.1426 106.117 18.903 105.416 18.6449L105.085 18.5344C102.946 17.7602 99.352 16.4698 99.3887 12.5805C99.444 8.67282 102.596 6.33185 107.831 6.33185H107.923C110.743 6.35034 112.974 7.12436 114.356 8.59906C115.481 9.77869 116.033 11.3639 115.941 13.1705V13.2257L115.886 13.244C114.485 13.5574 113.195 13.5944 111.923 13.3363L111.868 13.3178V13.2627C111.941 12.1936 111.684 11.3271 111.094 10.7007C110.412 9.94493 109.251 9.55781 107.757 9.55781C106.246 9.55781 104.992 9.96342 104.274 10.7189C103.776 11.2168 103.536 11.8618 103.555 12.5993C103.61 14.1845 105.379 14.8295 108.31 15.8803C108.882 16.0831 109.472 16.3042 110.117 16.5438V16.5435ZM125.711 15.751C123.057 15.751 121.821 17.3363 121.821 20.7278C121.821 24.1194 123.057 25.7046 125.711 25.7046C126.393 25.7046 128.678 25.5386 129.029 23.1794V23.1241H129.084C130.301 22.903 131.443 22.9765 132.476 23.3269L132.531 23.3454V23.4007C132.402 24.8016 131.775 26.1102 130.743 27.0688C129.508 28.2299 127.739 28.8383 125.637 28.8383C120.771 28.8383 118.08 25.9627 118.08 20.7463C118.08 15.5112 120.789 12.6173 125.711 12.6173C127.775 12.6173 129.526 13.2072 130.743 14.3316C131.812 15.3086 132.457 16.6911 132.568 18.2025V18.2578L132.513 18.2763C131.425 18.5895 130.282 18.6634 129.084 18.4791H129.029V18.4236C128.9 17.4283 128.31 15.751 125.711 15.751ZM141.895 12.6358C146.743 12.6358 149.397 15.5114 149.397 20.7648C149.397 25.981 146.743 28.8566 141.895 28.8566C137.065 28.8566 134.393 25.9812 134.393 20.7646C134.393 15.5297 137.047 12.6358 141.895 12.6358V12.6358ZM145.747 20.7463C145.747 17.3915 144.494 15.7508 141.895 15.7508C139.259 15.7508 138.042 17.3363 138.042 20.7463C138.042 24.1011 139.296 25.7231 141.895 25.7231C144.494 25.7231 145.747 24.0826 145.747 20.7463ZM161.526 13.3178C162.761 13.0046 163.996 13.0046 165.212 13.3178L165.268 13.3363V28.1931L165.212 28.2116C164.328 28.4512 163.406 28.4512 162.521 28.2116L162.484 28.1931L162.116 26.4972C160.383 28.1009 158.779 28.8198 156.918 28.8198C153.471 28.8198 151.48 26.7185 151.48 23.032V13.3363L151.535 13.3178C152.752 13.0229 154.005 13.0229 155.222 13.3178L155.277 13.3363V22.184C155.277 24.6171 156.051 25.6496 157.858 25.6496C159.148 25.6496 160.254 25.1702 161.47 24.1196V13.3363L161.526 13.3178ZM176.88 25.299C177.157 26.3498 177.157 27.3636 176.862 28.3407L176.843 28.3775H176.807C175.756 28.5803 174.834 28.6908 174.023 28.6908C172.715 28.6908 171.719 28.4142 171.019 27.8428C169.728 26.7737 169.618 24.8936 169.618 23.0503L169.581 16.433H167.682L167.664 16.3777C167.424 15.3454 167.424 14.3133 167.664 13.2995L167.682 13.244H169.581L169.544 9.1522L169.599 9.1335C170.816 8.85714 172.069 8.85714 173.286 9.1335L173.341 9.15199V13.244H176.346L176.364 13.2995C176.567 14.3133 176.567 15.3454 176.364 16.3594L176.346 16.4145H173.341V23.3084C173.341 24.2302 173.544 24.8199 173.95 25.1517C174.466 25.5573 175.314 25.5941 176.788 25.244L176.862 25.2255L176.88 25.299Z" fill="#213743"/>
<path fill-rule="evenodd" clip-rule="evenodd" d="M12.5848 10.4121L2.4547 20.7598C1.18869 19.4662 0.39723 17.6878 0.23877 15.5858C0.23877 13.6458 1.18848 11.7056 2.4547 10.4121L12.7433 0.0646362C14.0095 1.35817 14.8008 3.29816 14.8008 5.23836C14.8008 7.17856 13.8513 9.11876 12.5851 10.4121H12.5848ZM17.0411 24.7396L27.2822 14.3919C28.5625 15.847 29.3628 17.6256 29.3628 19.5656C29.3628 21.5058 28.4024 23.446 27.1225 24.7396L16.8809 35.087C15.6009 33.7935 14.8008 31.8533 14.8008 29.9133C14.8008 27.9731 15.7608 26.0329 17.0411 24.7396V24.7396ZM16.7899 10.4121L19.8137 7.38746L27.2938 0.0646362C28.5669 1.33821 29.3626 3.24857 29.3626 5.15892C29.3626 7.06928 28.4078 8.97943 27.1345 10.253L19.8137 17.5758L16.7899 20.6005L12.4932 24.8987L9.46943 27.9233L2.3078 35.087C1.03444 33.8134 0.23877 31.9031 0.23877 29.9927C0.23877 28.0824 1.19374 26.172 2.46689 24.8987L9.62852 17.7349L12.493 14.7103L16.7899 10.4121Z" fill="#1292EE"/>
</svg>
