<svg width="110" height="19" viewBox="0 0 110 19" fill="none" xmlns="http://www.w3.org/2000/svg">
<path d="M8.27321 5.5439H10.0193C11.1106 5.5439 12.2456 5.76216 12.2456 7.02809C12.2456 8.11941 11.5472 8.90515 9.49548 8.90515H7.57477L8.27321 5.5439ZM0.590332 17.8976H5.65405L6.70171 12.8776H10.1503C14.5155 12.8776 17.353 9.99647 17.353 6.63521C17.353 2.96839 15.3886 1.26593 12.3329 1.26593H4.08255L0.590332 17.8976Z" fill="#004B8D"/>
<path d="M23.5955 6.98444L24.2066 11.9608H21.02L23.5955 6.98444ZM12.6387 17.8976H17.877L19.1429 15.5404H24.5559L24.8178 17.8976H29.8378L27.306 1.26593H22.2423L12.6387 17.8976Z" fill="#004B8D"/>
<path d="M31.977 11.7862L28.3975 1.26593H33.5485L35.12 7.46462L39.1797 1.26593H45.2038L37.0844 11.7426L35.8184 17.8976H30.7111L31.977 11.7862Z" fill="#004B8D"/>
<path d="M57.4264 11.5679C57.1208 13.2704 55.8113 18.2904 48.8705 18.2904C44.025 18.2904 41.7114 15.1474 41.7114 10.6949C41.7114 5.32557 45.0727 0.829346 50.7475 0.829346C54.458 0.829346 57.7756 2.4445 57.8629 7.4209H53.0175C53.0611 5.84941 52.319 4.97635 50.7475 4.97635C47.9101 4.97635 46.8624 8.25031 46.8624 10.6076C46.8624 12.0044 47.2117 14.0998 49.5689 14.0998C51.1841 14.0998 52.1008 13.0085 52.4063 11.5243L57.4264 11.5679Z" fill="#004B8D"/>
<path d="M60.3949 1.26593H65.5459L64.3236 7.02809H68.9944L70.2167 1.26593H75.3677L71.8755 17.8976H66.7681L68.1214 11.3061H63.4505L62.0537 17.8976H56.9463L60.3949 1.26593Z" fill="#004B8D"/>
<path d="M76.7207 1.26593H90.4713L89.5983 5.5439H80.9551L80.5185 7.59557H88.5506L87.7212 11.568H79.6891L79.2526 13.6196H88.0704L87.1974 17.8976H73.2285L76.7207 1.26593Z" fill="#004B8D"/>
<path d="M94.0071 9.07977L90.1657 1.26593H95.7532L97.3684 5.58755L100.686 1.26593H106.754L99.8129 9.07977L103.873 17.8976H98.1105L96.277 13.2704L92.392 17.8976H86.106L94.0071 9.07977Z" fill="#004B8D"/>
<path d="M107.409 2.00799C107.409 1.39686 107.845 0.916676 108.456 0.916676C109.024 0.916676 109.504 1.39686 109.504 2.00799C109.504 2.61913 109.067 3.09931 108.456 3.09931C107.889 3.09931 107.409 2.61913 107.409 2.00799ZM107.19 2.00799C107.19 2.75009 107.758 3.27392 108.456 3.27392C109.155 3.27392 109.722 2.75009 109.722 2.00799C109.722 1.30955 109.155 0.742065 108.456 0.742065C107.758 0.742065 107.19 1.30955 107.19 2.00799ZM107.976 2.75009H108.194V2.13895H108.413L108.806 2.79374H109.067L108.631 2.13895C108.849 2.13895 109.024 2.00799 109.024 1.74608C109.024 1.44051 108.849 1.30955 108.5 1.30955H107.976V2.75009ZM108.194 1.48416H108.5C108.675 1.48416 108.806 1.52781 108.806 1.70242C108.806 1.92069 108.631 1.96434 108.413 1.96434H108.194V1.48416V1.48416Z" fill="#004B8D"/>
</svg>
