<svg width="100" height="29" viewBox="0 0 100 29" fill="none" xmlns="http://www.w3.org/2000/svg">
<path d="M21.6526 5.25909C21.6328 5.12108 21.5145 5.04221 21.416 5.04221C21.3174 5.04221 19.3654 5.00278 19.3654 5.00278C19.3654 5.00278 17.729 3.42546 17.5712 3.24801C17.4135 3.09028 17.098 3.12971 16.9797 3.16914C16.9797 3.16914 16.6643 3.26773 16.1517 3.42546C16.0728 3.14943 15.9348 2.81425 15.7573 2.45935C15.1855 1.35523 14.318 0.763734 13.2928 0.763734C13.2139 0.763734 13.1547 0.763734 13.0759 0.78345C13.0365 0.744017 13.0167 0.704584 12.9773 0.684868C12.5238 0.211672 11.952 -0.0249255 11.262 -0.00520904C9.94096 0.0342239 8.61996 1.00033 7.53555 2.69595C6.78633 3.89865 6.21455 5.39711 6.0371 6.56038C4.51893 7.03358 3.45424 7.36876 3.41481 7.36876C2.64586 7.60535 2.62615 7.62507 2.52756 8.35458C2.48813 8.90664 0.477051 24.4629 0.477051 24.4629L17.3544 27.381L24.6692 25.5671C24.6495 25.5671 21.6723 5.39711 21.6526 5.25909ZM15.3038 3.70149C14.9095 3.81979 14.4758 3.9578 14.0026 4.11554C14.0026 3.44518 13.904 2.49878 13.6082 1.71013C14.6138 1.86786 15.1067 3.01141 15.3038 3.70149ZM13.1153 4.37185C12.2281 4.64788 11.262 4.94363 10.2959 5.23938C10.5719 4.1944 11.0845 3.16914 11.7154 2.47907C11.952 2.22275 12.2872 1.94672 12.6618 1.78899C13.0562 2.55793 13.135 3.64234 13.1153 4.37185ZM11.3014 0.882033C11.6169 0.882033 11.8732 0.941182 12.0901 1.09891C11.7352 1.27636 11.3803 1.55239 11.0648 1.90729C10.217 2.81425 9.56635 4.21412 9.31004 5.57456C8.50166 5.83087 7.713 6.06747 7.00321 6.28435C7.4764 4.13525 9.2706 0.941182 11.3014 0.882033Z" fill="#95BF47"/>
<path d="M21.4156 5.04214C21.317 5.04214 19.3651 5.0027 19.3651 5.0027C19.3651 5.0027 17.7286 3.42538 17.5709 3.24794C17.5117 3.18879 17.4329 3.14935 17.354 3.14935V27.3809L24.6688 25.567C24.6688 25.567 21.6916 5.39703 21.6719 5.25902C21.6325 5.121 21.5142 5.04214 21.4156 5.04214Z" fill="#5E8E3E"/>
<path d="M13.2925 8.80806L12.4447 11.9824C12.4447 11.9824 11.4983 11.5487 10.3745 11.6275C8.7183 11.7261 8.7183 12.7711 8.7183 13.0274C8.81688 14.447 12.5433 14.7624 12.7602 18.0945C12.9179 20.7168 11.38 22.511 9.13235 22.649C6.4509 22.787 4.97217 21.2097 4.97217 21.2097L5.54395 18.7846C5.54395 18.7846 7.0424 19.9084 8.22539 19.8296C8.99433 19.7901 9.29008 19.1395 9.25065 18.7057C9.13235 16.8524 6.09601 16.9707 5.89884 13.9146C5.74111 11.3515 7.41701 8.76863 11.1237 8.53203C12.563 8.43345 13.2925 8.80806 13.2925 8.80806Z" fill="white"/>
<path d="M34.5666 15.5708C33.7188 15.1173 33.2851 14.723 33.2851 14.1906C33.2851 13.5203 33.8963 13.0865 34.8427 13.0865C35.9468 13.0865 36.9326 13.54 36.9326 13.54L37.7016 11.174C37.7016 11.174 36.9918 10.6219 34.9018 10.6219C31.9838 10.6219 29.953 12.2978 29.953 14.6441C29.953 15.9848 30.8994 16.9904 32.1612 17.7199C33.1865 18.2917 33.5414 18.7057 33.5414 19.3169C33.5414 19.9478 33.0287 20.4605 32.0824 20.4605C30.6825 20.4605 29.3418 19.731 29.3418 19.731L28.5137 22.0969C28.5137 22.0969 29.7361 22.925 31.8063 22.925C34.8032 22.925 36.972 21.4463 36.972 18.7846C36.9523 17.3453 35.8679 16.32 34.5666 15.5708Z" fill="black"/>
<path d="M46.515 10.5826C45.0363 10.5826 43.873 11.2924 42.9857 12.357L42.9463 12.3373L44.2279 5.63373H40.8958L37.6426 22.7082H40.9747L42.0788 16.8721C42.5125 14.6639 43.6561 13.3034 44.7208 13.3034C45.47 13.3034 45.7658 13.8161 45.7658 14.5456C45.7658 14.9991 45.7263 15.5708 45.6278 16.0243L44.3659 22.7082H47.698L48.9993 15.8074C49.1373 15.0779 49.2359 14.2104 49.2359 13.6189C49.2556 11.7261 48.2698 10.5826 46.515 10.5826Z" fill="black"/>
<path d="M56.8069 10.5826C52.7848 10.5826 50.123 14.2104 50.123 18.2523C50.123 20.8352 51.7201 22.9251 54.717 22.9251C58.6603 22.9251 61.322 19.3959 61.322 15.2554C61.3417 12.8697 59.9419 10.5826 56.8069 10.5826ZM55.1705 20.3817C54.0269 20.3817 53.5537 19.4156 53.5537 18.1931C53.5537 16.2806 54.5395 13.1654 56.3535 13.1654C57.5364 13.1654 57.9308 14.1907 57.9308 15.1765C57.9308 17.227 56.9252 20.3817 55.1705 20.3817Z" fill="black"/>
<path d="M69.8791 10.5826C67.6314 10.5826 66.3499 12.5739 66.3499 12.5739H66.3104L66.5076 10.7797H63.5501C63.4121 11.9825 63.1361 13.8358 62.8798 15.216L60.5532 27.4402H63.8853L64.812 22.4913H64.8908C64.8908 22.4913 65.5809 22.9251 66.8428 22.9251C70.7664 22.9251 73.3295 18.9029 73.3295 14.8413C73.3295 12.5937 72.324 10.5826 69.8791 10.5826ZM66.685 20.4211C65.8175 20.4211 65.3049 19.9282 65.3049 19.9282L65.857 16.813C66.2513 14.723 67.3357 13.3429 68.499 13.3429C69.5242 13.3429 69.8397 14.2893 69.8397 15.1765C69.8397 17.3453 68.5581 20.4211 66.685 20.4211Z" fill="black"/>
<path d="M78.1005 5.79144C77.0358 5.79144 76.188 6.63925 76.188 7.72366C76.188 8.70948 76.8189 9.39956 77.7653 9.39956H77.8047C78.8497 9.39956 79.737 8.68977 79.7567 7.46734C79.7567 6.50124 79.106 5.79144 78.1005 5.79144Z" fill="black"/>
<path d="M73.4277 22.6885H76.7598L79.0272 10.8586H75.6754L73.4277 22.6885Z" fill="black"/>
<path d="M87.5253 10.8388H85.1987L85.317 10.2867C85.5142 9.14317 86.1845 8.13763 87.3084 8.13763C87.8999 8.13763 88.3731 8.31507 88.3731 8.31507L89.0237 5.69278C89.0237 5.69278 88.4519 5.39703 87.2098 5.39703C86.0268 5.39703 84.8438 5.73221 83.9369 6.50116C82.7933 7.46726 82.261 8.86713 82.0047 10.2867L81.9061 10.8388H80.3485L79.8556 13.3625H81.4132L79.6387 22.7081H82.9708L84.7452 13.3625H87.0521L87.5253 10.8388Z" fill="black"/>
<path d="M95.5695 10.8586C95.5695 10.8586 93.4796 16.1229 92.5529 19.0015H92.5135C92.4543 18.0748 91.6854 10.8586 91.6854 10.8586H88.1759L90.1869 21.7224C90.2264 21.959 90.2067 22.1167 90.1081 22.2744C89.7137 23.0237 89.0631 23.7532 88.2942 24.2855C87.6632 24.739 86.9534 25.0347 86.4014 25.2319L87.328 28.0711C87.9984 27.9331 89.418 27.3613 90.601 26.2572C92.1192 24.8376 93.5387 22.6293 94.978 19.6324L99.0594 10.8586H95.5695Z" fill="black"/>
</svg>
