<svg width="122" height="41" viewBox="0 0 122 41" fill="none" xmlns="http://www.w3.org/2000/svg">
<path d="M107.296 31.9183C107.296 31.6156 107.044 31.4642 106.741 31.4642H106.237V32.9778H106.489V32.3723H106.691L107.044 32.9778H107.347L106.943 32.3219C107.145 32.2714 107.296 32.1201 107.296 31.9183ZM106.439 32.1201V31.7165H106.691C106.842 31.7165 106.994 31.7669 106.994 31.9183C106.994 32.1201 106.792 32.1201 106.64 32.1201H106.439ZM106.691 30.9092C105.934 30.9092 105.329 31.5147 105.329 32.2714C105.329 33.0282 105.934 33.5832 106.691 33.5832C107.448 33.5832 108.053 32.9778 108.053 32.2714C108.053 31.5147 107.448 30.9092 106.691 30.9092ZM106.691 33.3814C106.085 33.3814 105.581 32.8769 105.581 32.2714C105.581 31.666 106.085 31.1615 106.691 31.1615C107.296 31.1615 107.801 31.666 107.801 32.2714C107.851 32.8769 107.347 33.3814 106.691 33.3814Z" fill="#0077C5"/>
<path d="M15.2725 15.2188H19.8131V33.3814H15.2725V15.2188ZM34.4441 14.6638C31.7701 14.6638 29.6007 16.2783 28.7935 18.0945H28.6926V15.1684H24.4042V33.3309H28.9448V23.392C28.9448 20.9703 30.307 18.4477 33.1828 18.4477C36.109 18.4477 36.6135 21.1216 36.6135 23.2911V33.3814H41.1541V22.0298C41.1541 18.3468 39.1865 14.6638 34.4441 14.6638ZM73.5441 25.2082C73.5441 27.6299 72.1819 30.1525 69.3061 30.1525C66.3799 30.1525 65.8754 27.4785 65.8754 25.3091V15.2188H61.3348V26.5704C61.3348 30.2534 63.3024 33.8859 68.0449 33.8859C70.7188 33.8859 72.8882 32.2715 73.6954 30.4552H73.7963V33.3814H78.0847V15.2188H73.5441C73.5441 15.2188 73.5441 25.2082 73.5441 25.2082ZM82.7263 33.3814H87.2669V15.2188H82.7263V33.3814ZM43.4749 19.2045H48.5705V33.3814H53.1112V19.2045H58.2068V15.1684H43.4749V19.2045ZM50.8409 12.8476C52.3544 12.8476 53.5652 11.6367 53.5652 10.1232C53.5652 8.60964 52.3544 7.3988 50.8409 7.3988C49.3273 7.3988 48.1165 8.60964 48.1165 10.1232C48.1165 11.6367 49.3273 12.8476 50.8409 12.8476ZM90.4454 15.2188V19.2549H95.541V33.4318H100.082V19.2045H105.177V15.1684H90.4454V15.2188ZM97.8113 12.8476C99.3249 12.8476 100.536 11.6367 100.536 10.1232C100.536 8.60964 99.3249 7.3988 97.8113 7.3988C96.2978 7.3988 95.0869 8.60964 95.0869 10.1232C95.0869 11.5863 96.2978 12.8476 97.8113 12.8476Z" fill="#0077C5"/>
</svg>
