<svg width="191" height="29" viewBox="0 0 191 29" fill="none" xmlns="http://www.w3.org/2000/svg">
<path fill-rule="evenodd" clip-rule="evenodd" d="M47.1231 8.64372C45.1902 8.63788 43.3165 9.3106 41.8288 10.5446V8.83508H36.9937V27.6652H42.0201V15.6348C42.5607 14.9315 43.2509 14.3571 44.0409 13.9533C44.8308 13.5495 45.7006 13.3264 46.5873 13.3002C47.2731 13.2628 47.9593 13.367 48.603 13.6064V8.77129C48.1146 8.68396 47.6193 8.64126 47.1231 8.64372" fill="#293E40"/>
<path fill-rule="evenodd" clip-rule="evenodd" d="M3.28825 21.9244C4.71602 23.1282 6.52371 23.788 8.39126 23.787C9.74356 23.787 10.7897 23.1236 10.7897 22.1923C10.828 19.3601 1.74459 20.4062 1.74459 14.3081C1.74459 10.6977 5.2274 8.4524 8.93984 8.4524C11.206 8.44986 13.4235 9.11064 15.3186 10.3533L12.9202 14.0274C11.8793 13.2449 10.6239 12.7997 9.32256 12.7517C7.93199 12.7517 6.77106 13.3003 6.77106 14.2698C6.77106 16.7193 15.8544 15.7497 15.8544 22.2688C15.8544 25.8409 12.3333 28.0607 8.39126 28.0607C5.67322 28.0186 3.03659 27.1264 0.851562 25.5092L3.28825 21.9244Z" fill="#293E40"/>
<path fill-rule="evenodd" clip-rule="evenodd" d="M34.8505 18.0716C34.8505 12.8282 31.1763 8.45239 25.984 8.45239C20.4217 8.45239 16.8624 13.0323 16.8624 18.2629C16.8041 19.5673 17.0186 20.8694 17.492 22.0862C17.9654 23.303 18.6874 24.4077 19.6118 25.3297C20.5362 26.2517 21.6428 26.9708 22.8608 27.441C24.0788 27.9113 25.3815 28.1223 26.6857 28.0607C28.127 28.0717 29.5544 27.7772 30.8737 27.1967C32.1931 26.6162 33.3745 25.7628 34.3402 24.6927L31.4697 21.7968C30.87 22.459 30.1428 22.9935 29.3318 23.3683C28.5208 23.7431 27.6425 23.9506 26.7495 23.9783C25.4888 24.0295 24.2566 23.5948 23.307 22.7639C22.3575 21.9331 21.7631 20.7695 21.6464 19.5132H34.7229C34.8067 19.0372 34.8494 18.5549 34.8505 18.0716ZM21.9654 15.8262C22.1464 14.8941 22.6467 14.0542 23.3802 13.4511C24.1137 12.848 25.0344 12.5195 25.984 12.522C26.9002 12.5221 27.7845 12.8587 28.4689 13.4678C29.1533 14.0769 29.5901 14.9162 29.6964 15.8262H21.9654Z" fill="#293E40"/>
<path fill-rule="evenodd" clip-rule="evenodd" d="M60.5827 20.3296L65.724 8.83502H70.9546L62.3178 27.6651H58.8477L50.2236 8.83502H55.4415L60.5827 20.3296Z" fill="#293E40"/>
<path fill-rule="evenodd" clip-rule="evenodd" d="M75.1644 -0.0059442C75.8005 0.00411398 76.4195 0.201928 76.9435 0.562646C77.4675 0.923364 77.8733 1.4309 78.1098 2.02149C78.3462 2.61208 78.4029 3.25939 78.2727 3.88209C78.1424 4.5048 77.8311 5.07513 77.3777 5.52143C76.9244 5.96774 76.3492 6.27011 75.7245 6.39057C75.0999 6.51103 74.4535 6.4442 73.8667 6.19848C73.2799 5.95276 72.7788 5.53911 72.4264 5.00948C72.0739 4.47986 71.8858 3.85789 71.8857 3.22171C71.8857 2.79352 71.9708 2.3696 72.1362 1.97464C72.3016 1.57968 72.5439 1.22157 72.8491 0.921181C73.1542 0.620789 73.5161 0.384115 73.9136 0.224944C74.3111 0.0657724 74.7363 -0.012714 75.1644 -0.0059442" fill="#293E40"/>
<path d="M77.6778 8.83502H72.6514V27.6651H77.6778V8.83502Z" fill="#293E40"/>
<path fill-rule="evenodd" clip-rule="evenodd" d="M98.4721 23.8252C97.5205 25.1858 96.2431 26.2863 94.7567 27.0262C93.2702 27.766 91.6221 28.1217 89.9628 28.0607C87.3643 28.0607 84.8722 27.0284 83.0347 25.1909C81.1973 23.3535 80.165 20.8614 80.165 18.2629C80.165 15.6643 81.1973 13.1722 83.0347 11.3348C84.8722 9.49735 87.3643 8.46509 89.9628 8.46509C91.4836 8.45981 92.9855 8.80184 94.3541 9.46511C95.7226 10.1284 96.9216 11.0954 97.8597 12.2923L94.3387 15.3031C93.8403 14.6171 93.1887 14.0569 92.4356 13.6671C91.6826 13.2773 90.849 13.0686 90.0011 13.0578C89.3256 13.0577 88.6567 13.1918 88.0334 13.4523C87.4101 13.7127 86.8447 14.0943 86.37 14.5749C85.8953 15.0556 85.5207 15.6257 85.2681 16.2522C85.0154 16.8787 84.8896 17.5491 84.8981 18.2246C84.8781 18.9067 84.999 19.5855 85.2533 20.2188C85.5075 20.852 85.8896 21.426 86.3757 21.9049C86.8618 22.3838 87.4414 22.7574 88.0784 23.0021C88.7153 23.2469 89.3959 23.3577 90.0776 23.3276C90.9723 23.3106 91.8492 23.0751 92.6319 22.6415C93.4147 22.2079 94.0794 21.5894 94.5683 20.8399L98.4721 23.8252Z" fill="#293E40"/>
<path fill-rule="evenodd" clip-rule="evenodd" d="M116.729 24.68C115.763 25.7501 114.582 26.6034 113.262 27.184C111.943 27.7645 110.516 28.0589 109.074 28.048C107.772 28.1075 106.471 27.8954 105.255 27.4252C104.038 26.9551 102.933 26.2371 102.01 25.3169C101.086 24.3966 100.363 23.2943 99.8885 22.08C99.4136 20.8656 99.1964 19.5657 99.2509 18.2629C99.2509 13.0323 102.81 8.45239 108.385 8.45239C113.565 8.45239 117.239 12.8282 117.239 18.0716C117.242 18.5545 117.203 19.0368 117.124 19.5132H104.086C104.203 20.7695 104.797 21.9331 105.747 22.7639C106.696 23.5948 107.928 24.0295 109.189 23.9783C110.082 23.9506 110.96 23.7431 111.771 23.3683C112.582 22.9935 113.31 22.459 113.909 21.7968L116.729 24.68ZM112.059 15.8262C111.935 14.9238 111.493 14.0952 110.813 13.4896C110.132 12.8839 109.258 12.5409 108.347 12.522C107.395 12.5165 106.471 12.8437 105.735 13.447C104.999 14.0503 104.497 14.8919 104.316 15.8262H112.059Z" fill="#293E40"/>
<path fill-rule="evenodd" clip-rule="evenodd" d="M119.19 27.6651V8.83498H124.026V10.3531C125.516 9.11536 127.395 8.44234 129.333 8.45226C130.571 8.44869 131.794 8.71774 132.916 9.24029C134.039 9.76284 135.032 10.5261 135.826 11.4758C137.102 12.9557 137.765 14.8565 137.765 18.0714V27.6651H132.726V17.6887C132.796 17.0549 132.733 16.4136 132.542 15.8053C132.351 15.197 132.036 14.635 131.616 14.1549C130.848 13.4454 129.829 13.0692 128.784 13.1088C127.9 13.1344 127.033 13.356 126.246 13.7576C125.458 14.1591 124.77 14.7306 124.23 15.4306V27.6651H119.19Z" fill="#293E40"/>
<path fill-rule="evenodd" clip-rule="evenodd" d="M150.702 8.4524C148.497 8.44982 146.342 9.10926 144.517 10.3453C142.691 11.5813 141.278 13.337 140.462 15.3851C139.645 17.4331 139.463 19.679 139.937 21.8321C140.412 23.9852 141.522 25.9462 143.124 27.4611C143.5 27.82 143.992 28.0327 144.512 28.0607C145.031 28.0888 145.543 27.9305 145.956 27.6142C147.311 26.6047 148.955 26.0593 150.644 26.0593C152.334 26.0593 153.978 26.6047 155.333 27.6142C155.749 27.9297 156.264 28.0864 156.786 28.056C157.307 28.0256 157.801 27.8101 158.178 27.4484C159.769 25.9386 160.873 23.988 161.348 21.8466C161.823 19.7053 161.648 17.4708 160.845 15.4298C160.041 13.3887 158.647 11.6341 156.84 10.3909C155.032 9.14779 152.895 8.47276 150.702 8.4524V8.4524ZM150.702 24.9479C149.978 24.9672 149.258 24.8388 148.585 24.5706C147.912 24.3024 147.301 23.9 146.789 23.3879C146.277 22.8758 145.874 22.2647 145.606 21.592C145.338 20.9192 145.21 20.1989 145.229 19.4749C145.193 18.7331 145.308 17.9918 145.567 17.2958C145.827 16.5998 146.224 15.9637 146.737 15.4261C147.249 14.8884 147.865 14.4604 148.548 14.168C149.231 13.8755 149.966 13.7247 150.708 13.7247C151.451 13.7247 152.186 13.8755 152.868 14.168C153.551 14.4604 154.167 14.8884 154.68 15.4261C155.192 15.9637 155.59 16.5998 155.849 17.2958C156.108 17.9918 156.223 18.7331 156.188 19.4749C156.207 20.2 156.078 20.9214 155.809 21.595C155.54 22.2687 155.137 22.8803 154.623 23.3926C154.11 23.9049 153.497 24.3071 152.823 24.5745C152.149 24.8419 151.427 24.969 150.702 24.9479" fill="#81B5A1"/>
<path fill-rule="evenodd" clip-rule="evenodd" d="M171.561 27.6651H167.81L160.347 8.83502H165.36L169.456 19.6024L173.474 8.83502H177.671L181.652 19.6024L185.772 8.83502H190.799L183.323 27.6651H179.585L175.566 16.9488L171.561 27.6651Z" fill="#293E40"/>
<path d="M188.043 25.2794V25.6877H187.405V27.6651H186.946V25.6877H186.308V25.2794H188.043Z" fill="#293E40"/>
<path d="M189.599 26.7083L190.467 25.2794H190.798V27.6651H190.339V26.3255L189.765 27.2696H189.433L188.872 26.3255V27.6651H188.4V25.2794H188.732L189.599 26.7083Z" fill="#293E40"/>
</svg>
