<svg width="32" height="32" viewBox="0 0 32 32" fill="none" xmlns="http://www.w3.org/2000/svg">
<g clip-path="url(#clip0_5_3756)">
<path opacity="0.2" d="M14.4995 24.9995C20.2985 24.9995 24.9995 20.2985 24.9995 14.4995C24.9995 8.70052 20.2985 3.99951 14.4995 3.99951C8.70052 3.99951 3.99951 8.70052 3.99951 14.4995C3.99951 20.2985 8.70052 24.9995 14.4995 24.9995Z" fill="#0077B6"/>
<path d="M10.4995 14.5H18.4995" stroke="#0077B6" stroke-width="2" stroke-linecap="round" stroke-linejoin="round"/>
<path d="M14.4995 10.5V18.5" stroke="#0077B6" stroke-width="2" stroke-linecap="round" stroke-linejoin="round"/>
<path d="M14.4995 24.9995C20.2985 24.9995 24.9995 20.2985 24.9995 14.4995C24.9995 8.70052 20.2985 3.99951 14.4995 3.99951C8.70052 3.99951 3.99951 8.70052 3.99951 14.4995C3.99951 20.2985 8.70052 24.9995 14.4995 24.9995Z" stroke="#0077B6" stroke-width="2" stroke-linecap="round" stroke-linejoin="round"/>
<path d="M21.9238 21.9246L27.9989 27.9996" stroke="#0077B6" stroke-width="2" stroke-linecap="round" stroke-linejoin="round"/>
</g>
<defs>
<clipPath id="clip0_5_3756">
<rect width="32" height="32" fill="white"/>
</clipPath>
</defs>
</svg>
