<svg width="141" height="71" viewBox="0 0 141 71" fill="none" xmlns="http://www.w3.org/2000/svg">
<path d="M3.30603 3.54285L30.2661 0.676308C33.5769 0.266318 34.4287 0.540941 36.5095 2.72343L45.1154 11.4567C46.5355 12.9585 47.0088 13.3674 47.0088 15.0045V62.9035C47.0088 65.9054 46.2514 67.6808 43.6034 67.9524L12.2948 70.6822C10.307 70.8189 9.36094 70.41 8.31995 68.4982L1.98236 56.6261C0.846743 54.4408 0.374512 52.806 0.374512 50.893V8.31725C0.374512 5.86237 1.1321 3.81468 3.30603 3.54285Z" fill="white"/>
<path fill-rule="evenodd" clip-rule="evenodd" d="M25.6392 16.0913L2.51447 17.7249C0.649815 17.8798 0 19.0468 0 20.4458V44.7089C0 45.7991 0.405051 46.7307 1.37912 47.9761L6.8151 54.7418C7.708 55.8313 8.51946 56.0643 10.2245 55.9864L37.079 54.4307C39.3503 54.276 40 53.2642 40 51.5535V24.2567C40 23.3724 39.6352 23.117 38.56 22.3639C38.5008 22.3225 38.4395 22.2795 38.376 22.2349L30.9944 17.258C29.2096 16.0142 28.4789 15.8577 25.6392 16.0913ZM10.8326 23.809C8.64027 23.951 8.14211 23.9833 6.8971 23.013L3.73103 20.6023C3.40812 20.2905 3.57008 19.9017 4.38079 19.8245L26.6111 18.269C28.4767 18.1132 29.45 18.7363 30.1807 19.2804L33.9934 21.9248C34.1558 22.0022 34.5607 22.4682 34.0738 22.4682L11.1157 23.7907C11.0199 23.7969 10.9273 23.8029 10.8374 23.8087L10.8343 23.8089L10.8326 23.809ZM8.27545 51.3198V28.1458C8.27545 27.1351 8.59999 26.6681 9.57302 26.5896L35.9396 25.1126C36.8339 25.0349 37.2389 25.5795 37.2389 26.5896V49.6081C37.2389 50.6198 37.0762 51.4765 35.6153 51.5535L10.3844 52.9541C8.9242 53.0311 8.27545 52.5653 8.27545 51.3198ZM33.1834 29.3889C33.3452 30.0895 33.1834 30.7895 32.4518 30.8682L31.2361 31.1006V48.209C30.1807 48.7533 29.2073 49.0645 28.3962 49.0645C27.0977 49.0645 26.7724 48.6753 25.7998 47.5095L17.8479 35.5334V47.1206L20.3642 47.6654C20.3642 47.6654 20.3642 49.0645 18.3341 49.0645L12.7374 49.3759C12.5748 49.0645 12.7374 48.2874 13.3051 48.1317L14.7656 47.7434V32.4231L12.7378 32.2672C12.5752 31.5666 12.9802 30.5565 14.1168 30.4781L20.1207 30.0898L28.3962 42.2217V31.4894L26.2863 31.257C26.1243 30.4006 26.7724 29.7787 27.5839 29.7016L33.1834 29.3889Z" fill="#000008"/>
<path d="M95.9522 46.697H92.5242V31.6168H95.9522V46.697Z" fill="#000008"/>
<path d="M96.2854 27.0678C96.2854 28.212 95.3694 29.1218 94.2313 29.1218C93.107 29.1218 92.1772 28.212 92.1772 27.0678C92.1772 25.9237 93.107 25.0001 94.2313 25.0001C95.3694 25.0001 96.2854 25.9237 96.2854 27.0678Z" fill="#000008"/>
<path d="M50.4558 33.1603V46.6968H47V26.8057H50.1089L59.9352 40.3283H60.1712V26.8057H63.6131V46.6968H60.518L50.6918 33.1603H50.4558Z" fill="#000008"/>
<path fill-rule="evenodd" clip-rule="evenodd" d="M80.6375 39.1568C80.6375 44.0502 77.8756 47.0001 73.3372 47.0001C68.785 47.0001 66.0369 44.0502 66.0369 39.1568C66.0369 34.2908 68.8266 31.3132 73.3372 31.3132C77.8618 31.3132 80.6375 34.277 80.6375 39.1568ZM69.5621 39.1568C69.5621 42.3133 70.9361 44.1329 73.3372 44.1329C75.7382 44.1329 77.0984 42.3133 77.0984 39.1568C77.0984 36.0138 75.7244 34.1805 73.3372 34.1805C70.9361 34.1805 69.5621 36.0138 69.5621 39.1568Z" fill="#000008"/>
<path d="M83.7819 27.9219V31.7127H81.3809V34.442H83.7819V42.6714C83.7819 45.5938 85.1697 46.7654 88.6534 46.7654C89.3196 46.7654 89.9579 46.6964 90.4577 46.5999V43.9257L90.4239 43.9291C90.0267 43.9686 89.7642 43.9947 89.2918 43.9947C87.8485 43.9947 87.2099 43.333 87.2099 41.8444V34.442H90.4577V31.7127H87.2099V27.9219H83.7819Z" fill="#000008"/>
<path fill-rule="evenodd" clip-rule="evenodd" d="M105.354 47.0001C109.893 47.0001 112.655 44.0502 112.655 39.1568C112.655 34.277 109.879 31.3132 105.354 31.3132C100.844 31.3132 98.054 34.2908 98.054 39.1568C98.054 44.0502 100.802 47.0001 105.354 47.0001ZM105.354 44.1329C102.953 44.1329 101.579 42.3133 101.579 39.1568C101.579 36.0138 102.953 34.1805 105.354 34.1805C107.742 34.1805 109.115 36.0138 109.115 39.1568C109.115 42.3133 107.755 44.1329 105.354 44.1329Z" fill="#000008"/>
<path d="M118.145 46.6968H114.703V31.6166H118.02V34.0288H118.256C118.978 32.3471 120.505 31.3132 122.767 31.3132C126.154 31.3132 128 33.3396 128 36.9374V46.6968H124.558V37.7507C124.558 35.4487 123.586 34.2908 121.49 34.2908C119.436 34.2908 118.145 35.6967 118.145 37.9161V46.6968Z" fill="#000008"/>
</svg>
