<svg width="141" height="71" viewBox="0 0 141 71" fill="none" xmlns="http://www.w3.org/2000/svg">
<rect width="140.387" height="70.1936" transform="translate(0 0.0323486)" fill="white"/>
<path d="M64.5754 16.8479C66.7352 14.611 69.7434 13.1968 73.0603 13.1968C77.4827 13.1968 81.3138 15.6652 83.3708 19.3163C85.1449 18.5192 87.1247 18.0821 89.2074 18.0821C97.1781 18.0821 103.606 24.5872 103.606 32.6094C103.606 40.6315 97.1524 47.1366 89.2074 47.1366C88.2303 47.1366 87.279 47.0337 86.3791 46.8538C84.5792 50.0678 81.1338 52.2533 77.1742 52.2533C75.5286 52.2533 73.9602 51.8676 72.5718 51.1991C70.7462 55.493 66.478 58.527 61.5156 58.527C56.3475 58.527 51.9251 55.2616 50.2281 50.6591C49.4825 50.8134 48.7111 50.8905 47.9397 50.8905C41.7689 50.8905 36.7808 45.851 36.7808 39.603C36.7808 35.4377 39.0177 31.7866 42.3602 29.8325C41.666 28.264 41.2803 26.5156 41.2803 24.6644C41.2546 17.5422 47.0912 11.7313 54.2392 11.7313C58.4559 11.7313 62.2099 13.7368 64.5754 16.8479" fill="#00A1E0"/>
<path d="M46.4485 36.0033L46.7313 35.2577C46.7828 35.1291 46.8599 35.1805 46.9113 35.2062C46.9885 35.2577 47.0399 35.2834 47.1427 35.3605C47.9398 35.8748 48.6855 35.8748 48.9169 35.8748C49.5082 35.8748 49.8939 35.5662 49.8939 35.1291V35.1034C49.8939 34.6406 49.3283 34.4606 48.6597 34.2549L48.5055 34.2035C47.6056 33.9464 46.6285 33.5607 46.6285 32.4293V32.4036C46.6285 31.3237 47.5027 30.5524 48.7626 30.5524H48.8911C49.6368 30.5524 50.331 30.7581 50.8453 31.0923C50.8967 31.118 50.9481 31.1695 50.9224 31.2466C50.8967 31.3237 50.6653 31.9151 50.6396 31.9922C50.5881 32.1208 50.4596 32.0437 50.4596 32.0437C49.9968 31.7866 49.3025 31.6066 48.7112 31.6066C48.1712 31.6066 47.837 31.8894 47.837 32.2751V32.3008C47.837 32.7379 48.4283 32.9436 49.0968 33.1493L49.2254 33.175C50.1253 33.4578 51.0767 33.8435 51.0767 34.9491V34.9748C51.0767 36.1576 50.2282 36.8775 48.8654 36.8775C48.1969 36.8775 47.5541 36.7747 46.8599 36.4147C46.7313 36.3376 46.6028 36.2861 46.4742 36.1833C46.4485 36.1319 46.3971 36.1062 46.4485 36.0033V36.0033ZM66.5038 36.0033L66.7866 35.2577C66.8381 35.1291 66.9409 35.1805 66.9666 35.2062C67.0437 35.2577 67.0952 35.2834 67.198 35.3605C67.9951 35.8748 68.7407 35.8748 68.9721 35.8748C69.5635 35.8748 69.9492 35.5662 69.9492 35.1291V35.1034C69.9492 34.6406 69.3835 34.4606 68.715 34.2549L68.5607 34.2035C67.6608 33.9464 66.6838 33.5607 66.6838 32.4293V32.4036C66.6838 31.3237 67.558 30.5524 68.8179 30.5524H68.9464C69.6921 30.5524 70.3863 30.7581 70.9005 31.0923C70.952 31.118 71.0034 31.1695 70.9777 31.2466C70.952 31.3237 70.7205 31.9151 70.6948 31.9922C70.6434 32.1208 70.5149 32.0437 70.5149 32.0437C70.052 31.7866 69.3578 31.6066 68.7664 31.6066C68.2265 31.6066 67.8922 31.8894 67.8922 32.2751V32.3008C67.8922 32.7379 68.4836 32.9436 69.1521 33.1493L69.2807 33.175C70.1806 33.4578 71.1319 33.8435 71.1319 34.9491V34.9748C71.1319 36.1576 70.2834 36.8775 68.9207 36.8775C68.2522 36.8775 67.6094 36.7747 66.9152 36.4147C66.7866 36.3376 66.6581 36.2861 66.5295 36.1833C66.5295 36.1319 66.4781 36.1062 66.5038 36.0033V36.0033ZM81.3653 32.4808C81.4681 32.8665 81.5453 33.2778 81.5453 33.7149C81.5453 34.1521 81.4938 34.5634 81.3653 34.9491C81.2624 35.3348 81.0824 35.6691 80.851 35.9519C80.6196 36.2347 80.3111 36.4661 79.9768 36.6204C79.6169 36.7747 79.2055 36.8518 78.7427 36.8518C78.2798 36.8518 77.8685 36.7747 77.5085 36.6204C77.1485 36.4661 76.8657 36.2347 76.6343 35.9519C76.4029 35.6691 76.2229 35.3348 76.12 34.9491C76.0172 34.5634 75.9401 34.1521 75.9401 33.7149C75.9401 33.2778 75.9915 32.8665 76.12 32.4808C76.2229 32.0951 76.4029 31.7608 76.6343 31.478C76.8657 31.1952 77.1742 30.9638 77.5085 30.8095C77.8685 30.6552 78.2798 30.5524 78.7427 30.5524C79.2055 30.5524 79.6169 30.6295 79.9768 30.8095C80.3368 30.9638 80.6196 31.1952 80.851 31.478C81.0824 31.7608 81.2624 32.0951 81.3653 32.4808ZM80.2082 33.6892C80.2082 33.0207 80.0797 32.5065 79.8483 32.1465C79.6169 31.7866 79.2312 31.6066 78.7427 31.6066C78.2284 31.6066 77.8685 31.7866 77.637 32.1465C77.4056 32.5065 77.2771 33.0207 77.2771 33.6892C77.2771 34.3577 77.4056 34.872 77.637 35.2577C77.8685 35.6176 78.2284 35.7976 78.7427 35.7976C79.2569 35.7976 79.6169 35.6176 79.8483 35.2577C80.1054 34.8977 80.2082 34.3577 80.2082 33.6892ZM90.7758 35.6176L91.0587 36.389C91.0844 36.4918 91.0072 36.5176 91.0072 36.5176C90.5701 36.6975 89.9788 36.8004 89.3874 36.8004C88.3846 36.8004 87.639 36.5176 87.1247 35.9519C86.6105 35.3862 86.3534 34.6149 86.3534 33.6635C86.3534 33.2264 86.4048 32.815 86.5334 32.4293C86.6619 32.0437 86.8419 31.7094 87.099 31.4266C87.3562 31.1438 87.6647 30.9123 88.0247 30.7581C88.3846 30.6038 88.8217 30.501 89.3103 30.501C89.6445 30.501 89.9273 30.5267 90.1587 30.5524C90.4159 30.6038 90.7758 30.6809 90.9301 30.7581C90.9558 30.7581 91.033 30.8095 91.0072 30.8866C90.9044 31.1952 90.8273 31.4009 90.7244 31.658C90.673 31.7866 90.5959 31.7351 90.5959 31.7351C90.2102 31.6066 89.8502 31.5551 89.3874 31.5551C88.8217 31.5551 88.3846 31.7351 88.1275 32.1208C87.8447 32.4808 87.6904 32.9693 87.6904 33.6378C87.6904 34.3577 87.8704 34.872 88.1789 35.2062C88.4875 35.5405 88.9246 35.6948 89.4902 35.6948C89.7216 35.6948 89.9273 35.6691 90.1073 35.6433C90.2873 35.6176 90.4673 35.5662 90.6473 35.4891C90.6216 35.5405 90.7244 35.5148 90.7758 35.6176ZM96.6124 32.2494C96.8696 33.1236 96.741 33.8692 96.7153 33.9206C96.7153 34.0235 96.6124 34.0235 96.6124 34.0235H92.7299C92.7557 34.6149 92.8842 35.0263 93.1928 35.3091C93.4756 35.5919 93.9127 35.7719 94.5298 35.7719C95.4554 35.7719 95.8411 35.5919 96.1239 35.4891C96.1239 35.4891 96.2268 35.4634 96.2782 35.5662L96.5353 36.2861C96.5867 36.4147 96.5353 36.4404 96.5096 36.4661C96.2782 36.5947 95.6868 36.8518 94.5555 36.8518C94.0155 36.8518 93.527 36.7747 93.1413 36.6204C92.7556 36.4661 92.4214 36.2604 92.1643 35.9776C91.9072 35.6948 91.7272 35.3605 91.5986 35.0005C91.4701 34.6149 91.4186 34.2035 91.4186 33.7664C91.4186 33.3293 91.4701 32.9179 91.5986 32.5322C91.7015 32.1465 91.8814 31.8123 92.1129 31.5294C92.3443 31.2466 92.6528 31.0152 93.0128 30.8609C93.3727 30.6809 93.8098 30.6038 94.2984 30.6038C94.7098 30.6038 95.0954 30.6809 95.404 30.8352C95.6354 30.9381 95.8925 31.118 96.1496 31.4009C96.2782 31.5037 96.5096 31.8894 96.6124 32.2494V32.2494ZM92.7556 33.0721H95.5068C95.4811 32.7122 95.404 32.4036 95.2497 32.1465C95.0183 31.7866 94.684 31.5809 94.1698 31.5809C93.6556 31.5809 93.2956 31.7866 93.0642 32.1465C92.9099 32.3779 92.8328 32.6865 92.7556 33.0721ZM65.5782 32.2494C65.8353 33.1236 65.7067 33.8692 65.7067 33.9206C65.7067 34.0235 65.6039 34.0235 65.6039 34.0235H61.7214C61.7471 34.6149 61.8757 35.0263 62.1842 35.3091C62.467 35.5919 62.9041 35.7719 63.5212 35.7719C64.4468 35.7719 64.8325 35.5919 65.1154 35.4891C65.1154 35.4891 65.2182 35.4634 65.2696 35.5662L65.5267 36.2861C65.5782 36.4147 65.5267 36.4404 65.501 36.4661C65.2696 36.5947 64.6783 36.8518 63.5469 36.8518C63.007 36.8518 62.5185 36.7747 62.1328 36.6204C61.7471 36.4661 61.4128 36.2604 61.1557 35.9776C60.8986 35.6948 60.7186 35.3605 60.5901 35.0005C60.4615 34.6149 60.4101 34.2035 60.4101 33.7664C60.4101 33.3293 60.4615 32.9179 60.5901 32.5322C60.6929 32.1465 60.8729 31.8123 61.1043 31.5294C61.3357 31.2466 61.6442 31.0152 62.0042 30.8609C62.3642 30.6809 62.8013 30.6038 63.2898 30.6038C63.7012 30.6038 64.0869 30.6809 64.3954 30.8352C64.6268 30.9381 64.8839 31.118 65.1411 31.4009C65.2439 31.5037 65.501 31.8894 65.5782 32.2494V32.2494ZM61.7214 33.0721H64.4983C64.4726 32.7122 64.3954 32.4036 64.2412 32.1465C64.0097 31.7866 63.6755 31.5809 63.1613 31.5809C62.647 31.5809 62.287 31.7866 62.0556 32.1465C61.8757 32.3779 61.7985 32.6865 61.7214 33.0721ZM54.9077 32.8665C54.9077 32.8665 55.2163 32.8922 55.5505 32.9436V32.7893C55.5505 32.2751 55.4477 32.018 55.242 31.8637C55.0363 31.7094 54.702 31.6066 54.2906 31.6066C54.2906 31.6066 53.3393 31.6066 52.5937 31.9922C52.5679 32.018 52.5422 32.018 52.5422 32.018C52.5422 32.018 52.4394 32.0437 52.4137 31.9665L52.1308 31.2209C52.0794 31.118 52.1566 31.0666 52.1566 31.0666C52.5165 30.7838 53.3393 30.6295 53.3393 30.6295C53.6221 30.5781 54.085 30.5267 54.3678 30.5267C55.1391 30.5267 55.7305 30.7066 56.1419 31.0666C56.5533 31.4266 56.759 31.9922 56.759 32.7893V36.3376C56.759 36.3376 56.759 36.4404 56.6819 36.4661C56.6819 36.4661 56.5276 36.5176 56.399 36.5433C56.2705 36.569 55.8076 36.6718 55.422 36.7232C55.0363 36.8004 54.6506 36.8261 54.2392 36.8261C53.8535 36.8261 53.5193 36.8004 53.2107 36.7232C52.9022 36.6461 52.6451 36.5433 52.4137 36.389C52.208 36.2347 52.028 36.029 51.8994 35.7719C51.7709 35.5405 51.7195 35.232 51.7195 34.8977C51.7195 34.5634 51.7966 34.2549 51.9252 33.9978C52.0537 33.7407 52.2594 33.535 52.4908 33.355C52.7222 33.175 53.0051 33.0721 53.2879 32.9693C53.5964 32.8922 53.905 32.8407 54.2392 32.8407C54.5478 32.8665 54.7535 32.8665 54.9077 32.8665V32.8665ZM53.365 35.5919C53.365 35.5919 53.725 35.8748 54.4963 35.8233C55.062 35.7976 55.5505 35.6948 55.5505 35.6948V33.9206C55.5505 33.9206 55.062 33.8435 54.4963 33.8435C53.6993 33.8435 53.365 34.1263 53.365 34.1263C53.1336 34.2806 53.0308 34.5377 53.0308 34.872C53.0308 35.0777 53.0822 35.2577 53.1593 35.3862C53.185 35.4376 53.2107 35.4891 53.365 35.5919ZM86.1477 30.8866C86.122 30.9895 85.9163 31.5294 85.8649 31.7094C85.8391 31.7866 85.7877 31.8123 85.7106 31.8123C85.7106 31.8123 85.4792 31.7608 85.2735 31.7608C85.1449 31.7608 84.9392 31.7866 84.7593 31.838C84.5793 31.8894 84.425 31.9922 84.2707 32.1208C84.1165 32.2494 84.0136 32.4551 83.9365 32.6865C83.8593 32.9179 83.8079 33.3036 83.8079 33.7149V36.5947C83.8079 36.6718 83.7565 36.7232 83.6793 36.7232H82.6509C82.5737 36.7232 82.5223 36.6718 82.5223 36.5947V30.8095C82.5223 30.7324 82.5737 30.6809 82.6252 30.6809H83.6279C83.7051 30.6809 83.7308 30.7324 83.7308 30.8095V31.2723C83.885 31.0666 84.1422 30.8866 84.3736 30.7838C84.605 30.6809 84.8878 30.6038 85.3763 30.6295C85.6335 30.6552 85.9677 30.7066 86.0191 30.7324C86.122 30.7581 86.1734 30.7838 86.1477 30.8866V30.8866ZM76.6086 28.2126C76.6343 28.2126 76.7114 28.264 76.6857 28.3411L76.3772 29.1639C76.3515 29.2154 76.3257 29.2668 76.1972 29.2154C76.1715 29.2154 76.12 29.1896 75.9915 29.1639C75.9144 29.1382 75.7858 29.1382 75.6829 29.1382C75.5287 29.1382 75.4001 29.1639 75.2716 29.1896C75.143 29.2154 75.0401 29.2925 74.9373 29.3953C74.817 29.5127 74.721 29.6524 74.6545 29.8067C74.5002 30.2181 74.4488 30.6552 74.4488 30.6809H75.6829C75.7858 30.6809 75.8115 30.7324 75.8115 30.8095L75.6572 31.6066C75.6315 31.7351 75.5287 31.7094 75.5287 31.7094H74.2431L73.4203 36.6718C73.3175 37.1861 73.2146 37.6232 73.086 37.9831C72.9575 38.3431 72.8032 38.6002 72.5718 38.8573C72.3661 39.0887 72.1347 39.2687 71.8519 39.3459C71.5948 39.4487 71.2605 39.5001 70.9005 39.5001C70.7205 39.5001 70.5406 39.5001 70.3349 39.4487C70.1806 39.423 70.1035 39.3973 69.9749 39.3459C69.9235 39.3202 69.8978 39.2687 69.9235 39.1916C69.9492 39.1145 70.1806 38.4974 70.2063 38.3945C70.2577 38.2917 70.3349 38.3431 70.3349 38.3431C70.412 38.3688 70.4634 38.3945 70.5406 38.4202C70.6434 38.4459 70.7463 38.4459 70.8491 38.4459C71.0291 38.4459 71.1834 38.4202 71.3119 38.3688C71.4662 38.3174 71.569 38.2145 71.6719 38.086C71.7747 37.9574 71.8519 37.7774 71.9547 37.546C72.0319 37.3146 72.109 36.9804 72.1861 36.5947L73.0603 31.7351H72.2118C72.109 31.7351 72.0833 31.6837 72.0833 31.6066L72.2376 30.8095C72.2633 30.6809 72.3661 30.7066 72.3661 30.7066H73.2403L73.2917 30.4495C73.4203 29.6782 73.6774 29.0868 74.0631 28.7011C74.4488 28.3154 75.0144 28.1097 75.7087 28.1097C75.9144 28.1097 76.0943 28.1355 76.2486 28.1612C76.3515 28.1355 76.48 28.1612 76.6086 28.2126V28.2126ZM59.2788 36.569C59.2788 36.6461 59.2273 36.6975 59.1759 36.6975H58.1474C58.0703 36.6975 58.0446 36.6461 58.0446 36.569V28.3154C58.0446 28.264 58.096 28.1869 58.1474 28.1869H59.1759C59.253 28.1869 59.2788 28.2383 59.2788 28.3154V36.569Z" fill="white"/>
</svg>
