<svg width="142" height="71" viewBox="0 0 142 71" fill="none" xmlns="http://www.w3.org/2000/svg">
<rect width="140.387" height="70.1936" transform="translate(0.806396 0.0323486)" fill="white"/>
<path d="M30.5039 15.0853V55.1527H71.4337L111.496 15.0898H30.5039V15.0853Z" fill="url(#paint0_linear_5_3558)"/>
<path d="M82.3476 51.057V54.0452H82.7986V52.7485H83.306L84.1235 54.0452H84.631L83.757 52.7485C84.1937 52.6943 84.5464 52.4404 84.5464 51.9027C84.5464 51.3137 84.1859 51.057 83.4752 51.057H82.3476ZM82.7986 51.4517H83.4187C83.7237 51.4517 84.0672 51.5013 84.0672 51.8745C84.0672 52.341 83.7194 52.382 83.3342 52.382H82.7986V51.4517ZM83.3624 49.9575C81.9317 49.9575 80.7124 51.06 80.7124 52.5511C80.7124 54.0531 81.9316 55.1729 83.3624 55.1729C84.7733 55.1729 85.956 54.0533 85.956 52.5511C85.956 51.06 84.7733 49.9575 83.3624 49.9575ZM83.3624 50.3804C84.5297 50.3804 85.4485 51.3234 85.4485 52.5511C85.4485 53.7998 84.5297 54.7218 83.3624 54.7218C82.1752 54.7218 81.2199 53.7998 81.2199 52.5511C81.2199 51.3234 82.1752 50.3804 83.3624 50.3804Z" fill="#1870C5"/>
<path fill-rule="evenodd" clip-rule="evenodd" d="M79.0348 34.257H77.2793V27.8367H79.0348C81.3785 27.8367 83.244 28.6089 83.244 31.0058C83.244 33.4812 81.3785 34.257 79.0348 34.257V34.257ZM60.14 38.847C59.2108 38.847 58.3394 38.6774 57.5861 38.3941L60.1148 30.4194H60.1689L62.6452 38.4158C61.8991 38.6828 61.0502 38.847 60.1427 38.847H60.14ZM78.5693 22.6206H70.5973V41.5768L63.633 22.6206H56.73L50.7797 38.469C50.1509 34.4744 46.0129 33.0915 42.7599 32.0604C40.6156 31.3703 38.3332 30.3563 38.354 29.2331C38.372 28.3148 39.58 27.4632 41.9624 27.5904C43.5682 27.6716 44.9845 27.8015 47.7964 29.161L50.5659 24.3365C48.0003 23.0257 44.4451 22.203 41.5367 22.1967H41.5186C38.1258 22.1967 35.2985 23.3026 33.5448 25.1132C32.3261 26.3798 31.6666 27.9819 31.6369 29.7654C31.5918 32.2083 32.4912 33.9422 34.3739 35.3287C35.967 36.4961 37.9995 37.2475 39.7947 37.8104C42.0094 38.4933 43.8172 39.0896 43.7964 40.3607C43.7784 40.8235 43.6061 41.2574 43.2714 41.6002C42.7202 42.1731 41.8731 42.3851 40.7013 42.4112C38.4424 42.4563 36.7672 42.1045 34.0987 40.5276L31.6369 45.4198C34.2972 46.9344 37.4465 47.8203 40.6607 47.8203H41.0766C43.8731 47.7662 46.132 46.9678 47.9371 45.5172L48.2294 45.2619L47.432 47.4053H54.6714L55.8875 43.7076C57.1594 44.1379 58.6082 44.3796 60.1418 44.3796C61.6384 44.3796 63.0502 44.1541 64.2997 43.7427L65.4688 47.4053H77.2811V39.7464H79.8584C86.083 39.7464 89.769 36.5782 89.769 31.2611C89.769 25.3432 86.1894 22.6288 78.5684 22.6288" fill="white"/>
<defs>
<linearGradient id="paint0_linear_5_3558" x1="70.9718" y1="15.107" x2="70.9718" y2="55.1535" gradientUnits="userSpaceOnUse">
<stop stop-color="#00B8F1"/>
<stop offset="0.2199" stop-color="#06A5E5"/>
<stop offset="0.7943" stop-color="#1870C5"/>
<stop offset="1" stop-color="#1D61BC"/>
</linearGradient>
</defs>
</svg>
