<svg width="17" height="17" viewBox="0 0 17 17" fill="none" xmlns="http://www.w3.org/2000/svg">
<path d="M8.66034 3.99177C10.1626 3.99177 11.1759 4.64066 11.7537 5.18288L14.0114 2.97844C12.6248 1.68955 10.8203 0.898438 8.66034 0.898438C5.53145 0.898438 2.82923 2.69399 1.51367 5.30733L4.10034 7.31621C4.74923 5.38733 6.54478 3.99177 8.66034 3.99177V3.99177Z" fill="#EA4335"/>
<path d="M16.3402 9.07599C16.3402 8.41821 16.2868 7.93821 16.1713 7.44043H8.66016V10.4093H13.069C12.9802 11.1471 12.5002 12.2582 11.4335 13.0049L13.9579 14.9604C15.469 13.5649 16.3402 11.5115 16.3402 9.07599V9.07599Z" fill="#4285F4"/>
<path d="M4.10905 10.481C3.94016 9.98317 3.84238 9.44984 3.84238 8.89873C3.84238 8.34762 3.94016 7.81428 4.10016 7.31651L1.51349 5.30762C0.971267 6.39206 0.660156 7.60984 0.660156 8.89873C0.660156 10.1876 0.971267 11.4054 1.51349 12.4898L4.10905 10.481V10.481Z" fill="#FBBC05"/>
<path d="M8.66024 16.8982C10.8202 16.8982 12.6336 16.1871 13.958 14.9605L11.4336 13.0049C10.758 13.476 9.85135 13.8049 8.66024 13.8049C6.54468 13.8049 4.74913 12.4094 4.10913 10.4805L1.52246 12.4894C2.83802 15.1027 5.53135 16.8982 8.66024 16.8982V16.8982Z" fill="#34A853"/>
</svg>
