<svg width="180" height="40" viewBox="0 0 180 40" fill="none" xmlns="http://www.w3.org/2000/svg">
<g clip-path="url(#clip0_5_4061)">
<path d="M34.6279 13.6196H14.5688C14.1862 13.6196 13.876 13.9298 13.876 14.3125V16.6479C13.876 17.0305 14.1862 17.3407 14.5688 17.3407H34.6279C35.0106 17.3407 35.3208 17.0305 35.3208 16.6479V14.3125C35.3208 13.9298 35.0106 13.6196 34.6279 13.6196Z" fill="#52BD94"/>
<path d="M21.3594 22.9175H1.30028C0.917627 22.9175 0.607422 23.2277 0.607422 23.6104V25.9458C0.607422 26.3284 0.917627 26.6386 1.30028 26.6386H21.3594C21.742 26.6386 22.0522 26.3284 22.0522 25.9458V23.6104C22.0522 23.2277 21.742 22.9175 21.3594 22.9175Z" fill="#52BD94"/>
<path fill-rule="evenodd" clip-rule="evenodd" d="M3.1802 16.1657C3.35617 16.2112 3.54294 16.1859 3.70051 16.0954C3.85809 16.0048 3.97394 15.8562 4.02326 15.6812C5.13398 12.2045 7.50356 9.26813 10.6672 7.44809C13.8309 5.62804 17.5604 5.05561 21.1243 5.84307C21.2968 5.87861 21.4763 5.84668 21.626 5.75384C21.7756 5.661 21.8839 5.51433 21.9286 5.34402L22.5343 3.08374C22.558 2.993 22.5631 2.89841 22.5493 2.80565C22.5354 2.7129 22.503 2.6239 22.4539 2.54401C22.4048 2.46412 22.34 2.39499 22.2635 2.34078C22.187 2.28657 22.1003 2.2484 22.0086 2.22857C17.5049 1.21482 12.7846 1.93548 8.78858 4.24689C4.79255 6.5583 1.81431 10.2907 0.447512 14.7001C0.421778 14.7885 0.413937 14.8812 0.424447 14.9727C0.434957 15.0642 0.463607 15.1527 0.508721 15.233C0.553836 15.3133 0.614509 15.3838 0.687193 15.4404C0.759876 15.497 0.843112 15.5385 0.932031 15.5625L3.1802 16.1657Z" fill="#52BD94"/>
<path fill-rule="evenodd" clip-rule="evenodd" d="M32.7528 24.0828C32.5755 24.0352 32.3865 24.0593 32.2269 24.15C32.0672 24.2407 31.9498 24.3906 31.9 24.5674C30.7917 28.0464 28.4231 30.9855 25.2592 32.8079C22.0952 34.6304 18.3644 35.2045 14.7989 34.4176C14.6264 34.3815 14.4466 34.4132 14.2968 34.5061C14.147 34.599 14.0388 34.7461 13.9946 34.9167L13.4011 37.1648C13.377 37.2557 13.3716 37.3506 13.3853 37.4436C13.3989 37.5367 13.4313 37.626 13.4804 37.7061C13.5296 37.7863 13.5945 37.8557 13.6712 37.91C13.7479 37.9644 13.8349 38.0026 13.9268 38.0224C18.4306 39.0337 23.1502 38.3117 27.1457 36.0002C31.1412 33.6886 34.1196 29.9571 35.4879 25.5485C35.5139 25.4602 35.522 25.3676 35.5116 25.2762C35.5012 25.1847 35.4726 25.0963 35.4274 25.0161C35.3822 24.9359 35.3214 24.8656 35.2486 24.8093C35.1757 24.753 35.0923 24.712 35.0033 24.6885L32.7528 24.0828Z" fill="#52BD94"/>
<path d="M28.5667 9.53515C29.6932 9.53515 30.6065 8.62189 30.6065 7.49533C30.6065 6.36877 29.6932 5.45551 28.5667 5.45551C27.4401 5.45551 26.5269 6.36877 26.5269 7.49533C26.5269 8.62189 27.4401 9.53515 28.5667 9.53515Z" fill="#52BD94"/>
<path d="M7.36648 34.8004C8.49305 34.8004 9.40631 33.8871 9.40631 32.7605C9.40631 31.634 8.49305 30.7207 7.36648 30.7207C6.23992 30.7207 5.32666 31.634 5.32666 32.7605C5.32666 33.8871 6.23992 34.8004 7.36648 34.8004Z" fill="#52BD94"/>
<path fill-rule="evenodd" clip-rule="evenodd" d="M85.2773 16.4298C86.0211 15.613 86.9298 14.9635 87.9434 14.5241C88.957 14.0848 90.0523 13.8656 91.1569 13.8812C93.3033 13.8812 94.9749 14.545 96.0312 15.8193V14.7631C96.0381 14.6171 96.0989 14.4788 96.2018 14.375C96.3047 14.2712 96.4424 14.2092 96.5884 14.201H99.418C99.5637 14.2098 99.7011 14.2719 99.8039 14.3756C99.9067 14.4793 99.9677 14.6173 99.9751 14.7631V30.4736C100.063 32.6905 99.3778 34.869 98.0371 36.6367C96.5108 38.4924 94.1948 39.4323 91.1521 39.4323C86.9222 39.4323 83.5839 36.7554 83.034 32.9325C83.0206 32.7946 83.0559 32.6564 83.1338 32.5418C83.2117 32.4272 83.3272 32.3434 83.4603 32.3051L86.2245 31.6558C86.239 31.6547 86.2536 31.6547 86.2681 31.6558C86.3402 31.6448 86.4138 31.6483 86.4845 31.6659C86.5553 31.6835 86.6219 31.7149 86.6805 31.7584C86.739 31.8018 86.7884 31.8565 86.8257 31.9191C86.8631 31.9818 86.8876 32.0512 86.898 32.1234C87.0214 33.1577 87.5264 34.1087 88.3141 34.7903C89.1018 35.4718 90.1156 35.8348 91.1569 35.8081C94.4613 35.8081 96.0021 34.1123 96.0021 30.5681V29.192C95.3957 29.8715 94.6474 30.4094 93.8101 30.7678C92.9729 31.1261 92.0671 31.2961 91.1569 31.2658C86.4547 31.2658 83.0436 27.6149 83.0436 22.5905C83.0019 20.3315 83.7975 18.1371 85.2773 16.4298V16.4298ZM140.147 13.6656H140.294C145.35 13.7335 148.483 17.2535 148.483 22.886C148.482 23.1846 148.466 23.483 148.434 23.78C148.418 23.913 148.354 24.0356 148.255 24.1248C148.155 24.214 148.026 24.2637 147.892 24.2645H135.873C135.909 25.4777 136.421 26.628 137.298 27.467C138.175 28.3061 139.347 28.7664 140.561 28.7487C141.511 28.8081 142.454 28.5436 143.235 27.9985C144.016 27.4534 144.589 26.6598 144.861 25.7471C144.911 25.6136 145.011 25.5047 145.14 25.4429C145.268 25.3811 145.416 25.3712 145.551 25.4152L147.943 26.2631C148.012 26.2857 148.075 26.3226 148.129 26.3714C148.183 26.4203 148.226 26.48 148.255 26.5466C148.288 26.6109 148.307 26.6812 148.312 26.7532C148.317 26.8252 148.308 26.8974 148.284 26.9657C147.742 28.5725 146.697 29.9625 145.305 30.9308C143.913 31.8991 142.246 32.3945 140.551 32.3438C139.422 32.3548 138.301 32.1417 137.254 31.7167C136.208 31.2917 135.256 30.6633 134.454 29.8679C133.578 28.9473 132.895 27.861 132.446 26.6728C131.996 25.4846 131.788 24.2186 131.835 22.949C131.835 17.1348 136.06 13.6535 140.142 13.6535L140.147 13.6656ZM72.1492 13.6656C77.2948 13.6656 80.4926 17.2002 80.4926 22.8884C80.4922 23.1871 80.476 23.4855 80.4442 23.7824C80.4298 23.916 80.3663 24.0395 80.2661 24.129C80.1658 24.2186 80.0359 24.2677 79.9015 24.2669H67.883C67.9167 25.487 68.4315 26.6442 69.3152 27.4861C70.1988 28.328 71.3796 28.7862 72.5998 28.7608C73.5505 28.8211 74.4935 28.557 75.2746 28.0118C76.0557 27.4665 76.6287 26.6724 76.8999 25.7592C76.9488 25.6246 77.0484 25.5145 77.1775 25.4524C77.3065 25.3904 77.4548 25.3814 77.5904 25.4273L79.9912 26.2728C80.0604 26.2951 80.1241 26.3319 80.178 26.3808C80.2319 26.4297 80.2748 26.4895 80.3037 26.5563C80.3312 26.6227 80.3454 26.6939 80.3454 26.7658C80.3454 26.8377 80.3312 26.9089 80.3037 26.9754C79.7615 28.5814 78.718 29.9708 77.3267 30.939C75.9354 31.9073 74.2699 32.4031 72.5756 32.3535C71.444 32.3657 70.3213 32.1532 69.2725 31.7282C68.2237 31.3032 67.2697 30.6742 66.4658 29.8776C65.592 28.9559 64.9104 27.8694 64.4608 26.6815C64.0111 25.4936 63.8025 24.2281 63.847 22.9587C63.847 17.1445 68.072 13.6632 72.1565 13.6632L72.1492 13.6656ZM53.9459 13.6656C56.2546 13.6656 58.1224 14.2253 59.5057 15.3324C60.4398 16.0774 61.1327 17.0822 61.4971 18.2201C61.5086 18.2685 61.5103 18.3186 61.5022 18.3677C61.4941 18.4168 61.4764 18.4637 61.45 18.5059C61.4237 18.548 61.3892 18.5845 61.3486 18.6132C61.308 18.6419 61.2622 18.6623 61.2136 18.6731L58.3477 19.6204C58.2205 19.6688 58.08 19.6688 57.9528 19.6204C57.8988 19.5954 57.8507 19.5591 57.8118 19.514C57.7729 19.4689 57.7442 19.4159 57.7275 19.3587C57.4853 18.4309 56.6519 16.8731 53.941 16.8731C52.049 16.8731 50.9152 17.9585 50.9152 19.0099C50.9152 19.7076 51.2762 20.6064 52.9817 20.931L56.131 21.5221C59.6511 22.2319 61.6667 24.1579 61.6667 26.8397V26.7937C61.6667 29.4585 59.1036 32.3051 54.3408 32.3051C48.8172 32.3051 46.6466 29.1799 46.2469 27.3363C46.2336 27.24 46.2562 27.1422 46.3102 27.0614C46.3642 26.9806 46.446 26.9224 46.54 26.8978L49.4956 25.9773C49.5484 25.9676 49.6026 25.9676 49.6555 25.9773C49.7398 25.9757 49.8232 25.9957 49.8977 26.0354C49.9513 26.0612 49.9986 26.0984 50.0363 26.1444C50.074 26.1905 50.1011 26.2442 50.1157 26.3019C50.4888 28.0752 52.0902 29.1315 54.394 29.1315C56.538 29.1315 57.5143 28.0098 57.5143 26.9923C57.5143 25.9748 56.6446 25.2263 55.1499 24.9259L51.8358 24.2814C48.7446 23.6976 46.8186 21.7765 46.8186 19.2764C46.8186 16.2336 50.0867 13.6656 53.9459 13.6656ZM175.693 8.73566C175.844 8.74492 175.985 8.81126 176.088 8.92113C176.191 9.031 176.248 9.17609 176.248 9.32677V14.172H179.356C179.506 14.183 179.645 14.25 179.747 14.3596C179.849 14.4692 179.906 14.6133 179.906 14.7631V17.3456C179.907 17.4925 179.849 17.6338 179.746 17.7386C179.643 17.8434 179.503 17.9033 179.356 17.9052H176.248V26.5272C176.248 27.9565 176.815 28.5476 178.273 28.5476C178.606 28.5421 178.938 28.5145 179.267 28.4653C179.346 28.4517 179.428 28.4557 179.506 28.477C179.583 28.4984 179.656 28.5365 179.717 28.5888C179.776 28.6434 179.823 28.7093 179.856 28.7826C179.888 28.8559 179.905 28.935 179.906 29.0152V31.4378C179.907 31.5583 179.869 31.6759 179.797 31.7729C179.726 31.8699 179.624 31.941 179.509 31.9756C178.8 32.1745 178.065 32.2699 177.329 32.259C174.213 32.259 172.282 30.2556 172.282 27.0238V17.9415H169.593C169.448 17.9327 169.311 17.8705 169.208 17.7667C169.106 17.663 169.045 17.5251 169.038 17.3795V14.7921C169.038 14.6413 169.095 14.4959 169.198 14.3859C169.301 14.2759 169.443 14.2097 169.593 14.201H170.291C171.136 14.201 172.561 13.9055 172.561 11.8899V9.32677C172.56 9.17592 172.617 9.0305 172.72 8.92051C172.824 8.81051 172.965 8.74435 173.116 8.73566H175.693ZM117.357 16.5534C117.965 15.6247 118.804 14.8702 119.791 14.3639C120.779 13.8576 121.881 13.6169 122.99 13.6656V13.6656C126.062 13.6656 129.165 15.829 129.165 20.5555V31.4959C129.157 31.6417 129.097 31.7797 128.994 31.8834C128.891 31.9871 128.754 32.0492 128.608 32.058H125.776C125.63 32.0486 125.494 31.9862 125.391 31.8826C125.289 31.779 125.228 31.6413 125.221 31.4959V20.9068C125.221 19.5671 124.802 17.3092 121.965 17.3092C119.891 17.3092 118.418 18.9396 118.418 21.3041V31.4959C118.411 31.6415 118.351 31.7794 118.249 31.8832C118.146 31.9869 118.009 32.0492 117.864 32.058H114.995C114.849 32.0492 114.712 31.9871 114.609 31.8834C114.506 31.7797 114.446 31.6417 114.438 31.4959V20.9068C114.443 19.5671 114.026 17.2995 111.187 17.2995C109.031 17.2995 107.577 18.9178 107.577 21.3283V31.4959C107.57 31.6413 107.509 31.779 107.407 31.8826C107.305 31.9862 107.168 32.0486 107.022 32.058H104.193C104.048 32.048 103.912 31.9853 103.811 31.8816C103.71 31.778 103.65 31.6407 103.643 31.4959V14.7267C103.65 14.5821 103.71 14.4451 103.811 14.3416C103.913 14.2381 104.048 14.1751 104.193 14.1647H106.916C107.061 14.174 107.198 14.2364 107.3 14.3401C107.403 14.4437 107.463 14.5813 107.471 14.7267V15.737C108.077 15.0734 108.817 14.5458 109.642 14.1888C110.467 13.8318 111.359 13.6535 112.258 13.6656C113.29 13.6354 114.312 13.8886 115.211 14.3976C116.11 14.9067 116.852 15.6522 117.357 16.5534V16.5534ZM160.506 13.6656C161.412 13.6269 162.314 13.7945 163.146 14.1559C163.977 14.5173 164.716 15.0629 165.305 15.7515C166.405 17.1994 166.965 18.986 166.887 20.8026V31.4959C166.881 31.6405 166.822 31.7778 166.721 31.8815C166.62 31.9851 166.484 32.048 166.34 32.058H163.474C163.328 32.0487 163.191 31.9864 163.088 31.8828C162.986 31.7792 162.925 31.6416 162.917 31.4959V21.3743C162.917 18.7264 161.671 17.3795 159.307 17.3795C158.792 17.3629 158.281 17.4676 157.814 17.6852C157.347 17.9028 156.938 18.2271 156.62 18.632C155.979 19.5539 155.655 20.6592 155.697 21.7813V31.4959C155.69 31.6413 155.629 31.779 155.527 31.8826C155.425 31.9862 155.288 32.0486 155.142 32.058H152.281C152.136 32.0486 151.999 31.9862 151.897 31.8826C151.795 31.779 151.734 31.6413 151.727 31.4959V14.7146C151.732 14.5684 151.792 14.4296 151.895 14.3252C151.998 14.2209 152.135 14.1585 152.281 14.1502H155.077C155.221 14.1595 155.357 14.2218 155.459 14.325C155.56 14.4282 155.62 14.5652 155.627 14.7098V15.892C156.22 15.1769 156.966 14.6051 157.811 14.2195C158.656 13.834 159.578 13.6446 160.506 13.6656ZM91.6487 17.4158C88.8579 17.4158 87.0869 19.3999 87.0869 22.5905C87.0869 25.781 88.8361 27.7627 91.6487 27.7627C94.3305 27.7627 96.1378 25.6817 96.1378 22.5905C96.1378 19.4992 94.3305 17.4158 91.6487 17.4158ZM72.1783 17.2559C71.1486 17.2381 70.1492 17.6052 69.3759 18.2854C68.6025 18.9656 68.1108 19.9098 67.9969 20.9334H76.4033C76.2022 18.6634 74.5888 17.2559 72.1783 17.2559V17.2559ZM140.193 17.2559C139.164 17.2399 138.166 17.6078 137.394 18.2877C136.622 18.9676 136.13 19.9109 136.016 20.9334H144.425C144.217 18.6634 142.613 17.2559 140.19 17.2559H140.193Z" fill="#52BD94"/>
<path d="M50.9876 2.32551V7.96046H49.3911V2.32551H47.1841V0.959167H53.2188V2.32551H50.9876Z" fill="#52BD94"/>
<path d="M63.1832 7.98469H61.5237L60.0023 2.82456L58.4543 7.98469H56.8287L54.7695 0.959167H56.4653L57.7711 6.01997L59.2441 0.959167H60.9399L62.3934 6.01997L63.658 0.959167H65.2182L63.1832 7.98469Z" fill="#52BD94"/>
<path d="M67.4155 7.96046V0.959167H68.9878V7.96046H67.4155Z" fill="#52BD94"/>
<path d="M71.8169 7.96046V0.959167H73.4134V6.58201H76.1461V7.96046H71.8169Z" fill="#52BD94"/>
<path d="M78.5254 7.96046V0.959167H80.1098V7.96046H78.5254Z" fill="#52BD94"/>
<path d="M86.0378 8.09368C84.0998 8.09368 82.5493 6.70311 82.5493 4.4719C82.5493 2.24069 84.1216 0.838013 86.05 0.838013C87.9783 0.838013 89.5361 2.22858 89.5361 4.4719C89.5361 6.71523 87.9759 8.09368 86.0378 8.09368ZM86.0378 2.11956C84.8266 2.11956 84.1216 3.11767 84.1216 4.45979C84.1216 5.80191 84.8484 6.81213 86.0378 6.81213C87.2273 6.81213 87.9275 5.78979 87.9275 4.4719C87.9275 3.15401 87.2201 2.11956 86.05 2.11956H86.0378Z" fill="#52BD94"/>
</g>
<defs>
<clipPath id="clip0_5_4061">
<rect width="179.5" height="38.6065" fill="white" transform="translate(0.40625 0.825928)"/>
</clipPath>
</defs>
</svg>
