<svg width="88" height="23" viewBox="0 0 88 23" fill="none" xmlns="http://www.w3.org/2000/svg">
<path d="M0.708984 1.02856H6.55038C11.5527 1.02856 14.7154 4.25585 14.7154 9.29043C14.7154 14.325 11.5688 17.5523 6.55038 17.5523H0.708984V1.02856ZM6.42129 14.5348C9.56789 14.5348 11.2945 12.5177 11.2945 9.30656C11.2945 6.07927 9.56789 4.06222 6.42129 4.06222H4.12991V14.5348H6.42129V14.5348Z" fill="#007EE5"/>
<path d="M23.5744 8.82244C23.1226 8.54812 22.5256 8.41903 21.8962 8.41903C20.7667 8.41903 19.8469 9.01608 19.6049 10.1134V17.5684H16.2808V5.53061H19.621V6.70857C20.1374 5.85333 21.1217 5.25629 22.3158 5.25629C22.8806 5.25629 23.3969 5.36924 23.5744 5.46606V8.82244Z" fill="#007EE5"/>
<path d="M30.2389 17.8427C26.7373 17.8427 24.333 15.2609 24.333 11.5656C24.333 7.85426 26.7373 5.25629 30.2389 5.25629C33.7406 5.25629 36.1288 7.83812 36.1288 11.5656C36.1288 15.2609 33.7406 17.8427 30.2389 17.8427ZM30.2389 8.0963C28.5608 8.0963 27.6571 9.54858 27.6571 11.5656C27.6571 13.5504 28.5769 15.0188 30.2389 15.0188C31.901 15.0188 32.8208 13.5666 32.8208 11.5656C32.8208 9.54858 31.901 8.0963 30.2389 8.0963Z" fill="#007EE5"/>
<path d="M40.9047 22.0221H37.5645V5.53061H40.9047V6.53107C41.4372 5.88562 42.6313 5.27243 43.9222 5.27243C47.4238 5.27243 49.4086 8.17699 49.4086 11.5818C49.4086 14.9704 47.4238 17.8589 43.9222 17.8589C42.6313 17.8589 41.4372 17.2457 40.9047 16.6002V22.0221V22.0221ZM40.9047 13.5343C41.3081 14.3734 42.1956 14.9382 43.1638 14.9382C44.9711 14.9382 46.0522 13.4859 46.0522 11.5656C46.0522 9.62927 44.9711 8.17699 43.1638 8.17699C42.1633 8.17699 41.3081 8.77404 40.9047 9.58086V13.5343Z" fill="#007EE5"/>
<path d="M54.2172 17.5684H50.8447V0.0603638H54.2172V6.53108C54.7497 5.88562 55.9438 5.27244 57.2348 5.27244C60.7364 5.27244 62.705 8.12859 62.705 11.5818C62.705 15.035 60.7364 17.8589 57.2348 17.8589C55.9438 17.8589 54.7497 17.2457 54.2172 16.6002V17.5684ZM54.2172 13.5343C54.5884 14.3734 55.4759 14.9382 56.4763 14.9382C58.2836 14.9382 59.3648 13.4859 59.3648 11.5657C59.3648 9.62928 58.2836 8.177 56.4763 8.177C55.5082 8.177 54.5884 8.77405 54.2172 9.58087V13.5343Z" fill="#007EE5"/>
<path d="M69.8054 17.875C66.3038 17.875 63.8994 15.2932 63.8994 11.5979C63.8994 7.88654 66.3038 5.28857 69.8054 5.28857C73.307 5.28857 75.6952 7.87041 75.6952 11.5979C75.6952 15.2932 73.2908 17.875 69.8054 17.875ZM69.8054 8.12859C68.1272 8.12859 67.2235 9.58087 67.2235 11.5979C67.2235 13.5827 68.1433 15.0511 69.8054 15.0511C71.4674 15.0511 72.3872 13.5988 72.3872 11.5979C72.3872 9.58087 71.4674 8.12859 69.8054 8.12859Z" fill="#007EE5"/>
<path d="M83.1985 11.3559L87.5876 17.5845H83.8924L81.3105 13.8086L78.6964 17.5845H75.1948L79.5355 11.4366L75.453 5.54675H79.1483L81.4719 8.96768L83.8278 5.54675H87.3294L83.1985 11.3559Z" fill="#007EE5"/>
</svg>
