<svg width="28" height="29" viewBox="0 0 28 29" fill="none" xmlns="http://www.w3.org/2000/svg">
<path d="M13.9997 16.0413C14.8511 16.0413 15.5413 15.3511 15.5413 14.4997C15.5413 13.6482 14.8511 12.958 13.9997 12.958C13.1482 12.958 12.458 13.6482 12.458 14.4997C12.458 15.3511 13.1482 16.0413 13.9997 16.0413Z" stroke="#0077B6" stroke-width="2" stroke-linecap="round" stroke-linejoin="round"/>
<path d="M26.6416 27.1416C29.7866 24.012 26.6724 15.7949 19.7041 8.79572C12.7049 1.82739 4.4878 -1.28678 1.35822 1.85822C-1.78678 4.9878 1.32739 13.2049 8.29572 20.2041C15.2949 27.1724 23.512 30.2866 26.6416 27.1416Z" stroke="#0077B6" stroke-width="2" stroke-linecap="round" stroke-linejoin="round"/>
<path d="M19.7041 20.2041C26.6724 13.2049 29.7866 4.9878 26.6416 1.85822C23.512 -1.28678 15.2949 1.82739 8.29572 8.79572C1.32739 15.7949 -1.78678 24.012 1.35822 27.1416C4.4878 30.2866 12.7049 27.1724 19.7041 20.2041Z" stroke="#0077B6" stroke-width="2" stroke-linecap="round" stroke-linejoin="round"/>
</svg>
