<svg width="78" height="75" viewBox="0 0 78 75" fill="none" xmlns="http://www.w3.org/2000/svg">
<rect y="0.5" width="78" height="74" rx="37" fill="#F2F7FF"/>
<path d="M39 28.0556V54.5M39 28.0556C39 26.0517 38.1993 24.1299 36.774 22.713C35.3487 21.296 33.4156 20.5 31.4 20.5H21.9C21.3961 20.5 20.9128 20.699 20.5565 21.0532C20.2002 21.4075 20 21.8879 20 22.3889V46.9444C20 47.4454 20.2002 47.9259 20.5565 48.2801C20.9128 48.6343 21.3961 48.8333 21.9 48.8333H33.3C34.8117 48.8333 36.2616 49.4304 37.3305 50.4931C38.3995 51.5558 39 52.9971 39 54.5M39 28.0556C39 26.0517 39.8007 24.1299 41.226 22.713C42.6513 21.296 44.5844 20.5 46.6 20.5H56.1C56.6039 20.5 57.0872 20.699 57.4435 21.0532C57.7998 21.4075 58 21.8879 58 22.3889V46.9444C58 47.4454 57.7998 47.9259 57.4435 48.2801C57.0872 48.6343 56.6039 48.8333 56.1 48.8333H44.7C43.1883 48.8333 41.7384 49.4304 40.6695 50.4931C39.6005 51.5558 39 52.9971 39 54.5M46.6 37.5H50.4M46.6 29.9444H50.4M27.6 37.5H31.4M27.6 29.9444H31.4" stroke="#0077B6" stroke-width="2" stroke-linecap="round" stroke-linejoin="round"/>
</svg>
