<svg width="40" height="39" viewBox="0 0 40 39" fill="none" xmlns="http://www.w3.org/2000/svg">
<path d="M26.5 14.625C26.5 23.2862 13.5 23.2862 13.5 14.625H16.75C16.75 18.9638 23.25 18.9638 23.25 14.625M33 29.25V34.125H7V29.25C7 24.9112 15.6612 22.75 20 22.75C24.3388 22.75 33 24.9112 33 29.25ZM29.9125 29.25C29.9125 28.21 24.8263 25.8375 20 25.8375C15.1737 25.8375 10.0875 28.21 10.0875 29.25V31.0375H29.9125M20.8125 3.25C21.2675 3.25 21.625 3.6075 21.625 4.0625V8.9375H23.25V4.875C24.4 5.40723 25.3635 6.27281 26.0155 7.35944C26.6675 8.44606 26.9778 9.70356 26.9062 10.9688C26.9062 10.9688 28.0437 11.1962 28.125 13H11.875C11.875 11.1962 13.0938 10.9688 13.0938 10.9688C13.0222 9.70356 13.3325 8.44606 13.9845 7.35944C14.6365 6.27281 15.6 5.40723 16.75 4.875V8.9375H18.375V4.0625C18.375 3.6075 18.7325 3.25 19.1875 3.25" fill="#0077B6"/>
</svg>
