<svg width="18" height="14" viewBox="0 0 18 14" fill="none" xmlns="http://www.w3.org/2000/svg">
<g clip-path="url(#clip0_31_6936)">
<path d="M17.7793 1.7049C17.1123 1.98937 16.4049 2.1761 15.6806 2.25887C16.4351 1.82346 17.0144 1.13398 17.2872 0.312468C16.5699 0.722276 15.7852 1.01101 14.9669 1.1662C14.3003 0.482477 13.3507 0.0551758 12.2997 0.0551758C10.2817 0.0551758 8.64554 1.63041 8.64554 3.57326C8.64554 3.84904 8.67789 4.11752 8.74016 4.37508C5.70332 4.22831 3.01087 2.82771 1.2086 0.699176C0.894132 1.21878 0.71394 1.82319 0.71394 2.46786C0.71394 3.68848 1.35908 4.76527 2.3395 5.39621C1.75923 5.37871 1.19173 5.22781 0.684371 4.95611C0.684163 4.97085 0.684163 4.98559 0.684163 5.00039C0.684163 6.70497 1.9437 8.12694 3.61525 8.45015C3.07716 8.59105 2.51275 8.61167 1.96513 8.51043C2.43008 9.90816 3.77958 10.9253 5.37849 10.9537C4.12793 11.8973 2.55232 12.4598 0.840422 12.4598C0.545435 12.4598 0.254623 12.4431 -0.03125 12.4106C1.58582 13.4088 3.50651 13.9913 5.57002 13.9913C12.2912 13.9913 15.9665 8.63034 15.9665 3.98127C15.9665 3.82868 15.963 3.67695 15.9559 3.5261C16.6713 3.02819 17.2887 2.41147 17.7793 1.7049" fill="white"/>
</g>
<defs>
<clipPath id="clip0_31_6936">
<rect width="18" height="14" fill="white"/>
</clipPath>
</defs>
</svg>
