<svg width="88" height="13" viewBox="0 0 88 13" fill="none" xmlns="http://www.w3.org/2000/svg">
<path d="M6.06897 0L7.43153 4.49139H11.8409L8.27365 7.26722L9.63621 11.7586L6.06897 8.98278L2.50172 11.7586L3.86428 7.26722L0.297036 4.49139H4.7064L6.06897 0Z" fill="#F4A261"/>
<path d="M25.0344 0L26.397 4.49139H30.8063L27.2391 7.26722L28.6017 11.7586L25.0344 8.98278L21.4672 11.7586L22.8297 7.26722L19.2625 4.49139H23.6719L25.0344 0Z" fill="#F4A261"/>
<path d="M44 0L45.3626 4.49139H49.7719L46.2047 7.26722L47.5672 11.7586L44 8.98278L40.4327 11.7586L41.7953 7.26722L38.2281 4.49139H42.6374L44 0Z" fill="#F4A261"/>
<path d="M62.9656 0L64.3281 4.49139H68.7375L65.1703 7.26722L66.5328 11.7586L62.9656 8.98278L59.3983 11.7586L60.7609 7.26722L57.1936 4.49139H61.603L62.9656 0Z" fill="#F4A261"/>
<path d="M81.931 0L83.2936 4.49139H87.703L84.1357 7.26722L85.4983 11.7586L81.931 8.98278L78.3638 11.7586L79.7263 7.26722L76.1591 4.49139H80.5685L81.931 0Z" fill="#C4C4C4"/>
</svg>
