<svg width="16" height="18" viewBox="0 0 16 18" fill="none" xmlns="http://www.w3.org/2000/svg">
<g clip-path="url(#clip0_41_1407)">
<path d="M7.87705 4.95732C5.62953 4.95732 3.81667 6.76084 3.81667 8.99677C3.81667 11.2327 5.62953 13.0362 7.87705 13.0362C10.1246 13.0362 11.9374 11.2327 11.9374 8.99677C11.9374 6.76084 10.1246 4.95732 7.87705 4.95732ZM7.87705 11.6229C6.42464 11.6229 5.23727 10.4452 5.23727 8.99677C5.23727 7.54834 6.42111 6.3706 7.87705 6.3706C9.33298 6.3706 10.5168 7.54834 10.5168 8.99677C10.5168 10.4452 9.32945 11.6229 7.87705 11.6229V11.6229ZM13.0506 4.79209C13.0506 5.31592 12.6265 5.73428 12.1035 5.73428C11.577 5.73428 11.1564 5.3124 11.1564 4.79209C11.1564 4.27178 11.5805 3.8499 12.1035 3.8499C12.6265 3.8499 13.0506 4.27178 13.0506 4.79209ZM15.7398 5.74834C15.6797 4.48623 15.39 3.36826 14.4606 2.44717C13.5347 1.52607 12.411 1.23779 11.1423 1.17451C9.83479 1.10068 5.91577 1.10068 4.60825 1.17451C3.34314 1.23428 2.21938 1.52256 1.28998 2.44365C0.360585 3.36474 0.074345 4.48271 0.010736 5.74482C-0.0634745 7.0456 -0.0634745 10.9444 0.010736 12.2452C0.0708111 13.5073 0.360585 14.6253 1.28998 15.5464C2.21938 16.4675 3.33961 16.7558 4.60825 16.819C5.91577 16.8929 9.83479 16.8929 11.1423 16.819C12.411 16.7593 13.5347 16.471 14.4606 15.5464C15.3864 14.6253 15.6762 13.5073 15.7398 12.2452C15.814 10.9444 15.814 7.04912 15.7398 5.74834V5.74834ZM14.0507 13.6409C13.775 14.33 13.2414 14.8608 12.5452 15.1386C11.5028 15.5499 9.02908 15.455 7.87705 15.455C6.72502 15.455 4.2478 15.5464 3.20885 15.1386C2.51622 14.8643 1.98261 14.3335 1.70344 13.6409C1.28998 12.6038 1.3854 10.1429 1.3854 8.99677C1.3854 7.85068 1.29352 5.38623 1.70344 4.35263C1.97908 3.66357 2.51269 3.13271 3.20885 2.85498C4.25133 2.44365 6.72502 2.53857 7.87705 2.53857C9.02908 2.53857 11.5063 2.44717 12.5452 2.85498C13.2379 3.1292 13.7715 3.66006 14.0507 4.35263C14.4641 5.38974 14.3687 7.85068 14.3687 8.99677C14.3687 10.1429 14.4641 12.6073 14.0507 13.6409Z" fill="white"/>
</g>
<defs>
<clipPath id="clip0_41_1407">
<rect width="16" height="18" fill="white"/>
</clipPath>
</defs>
</svg>
