<svg width="24" height="25" viewBox="0 0 24 25" fill="none" xmlns="http://www.w3.org/2000/svg">
<path d="M12.0001 10.625L12.0001 20.75" stroke="#18191C" stroke-width="2" stroke-linecap="round" stroke-linejoin="round"/>
<path d="M12.0001 4.25L12.0001 6.875" stroke="#18191C" stroke-width="2" stroke-linecap="round" stroke-linejoin="round"/>
<path d="M12.0001 10.625C13.0357 10.625 13.8751 9.78553 13.8751 8.75C13.8751 7.71447 13.0357 6.875 12.0001 6.875C10.9646 6.875 10.1251 7.71447 10.1251 8.75C10.1251 9.78553 10.9646 10.625 12.0001 10.625Z" stroke="#18191C" stroke-width="2" stroke-linecap="round" stroke-linejoin="round"/>
<path d="M18.7501 18.125L18.7502 20.75" stroke="#18191C" stroke-width="2" stroke-linecap="round" stroke-linejoin="round"/>
<path d="M18.7502 4.25L18.7501 14.375" stroke="#18191C" stroke-width="2" stroke-linecap="round" stroke-linejoin="round"/>
<path d="M18.7501 18.125C19.7857 18.125 20.6251 17.2855 20.6251 16.25C20.6251 15.2145 19.7857 14.375 18.7501 14.375C17.7146 14.375 16.8751 15.2145 16.8751 16.25C16.8751 17.2855 17.7146 18.125 18.7501 18.125Z" stroke="#18191C" stroke-width="2" stroke-linecap="round" stroke-linejoin="round"/>
<path d="M5.25007 15.125L5.25 20.75" stroke="#18191C" stroke-width="2" stroke-linecap="round" stroke-linejoin="round"/>
<path d="M5.25 4.25L5.25007 11.375" stroke="#18191C" stroke-width="2" stroke-linecap="round" stroke-linejoin="round"/>
<path d="M5.25012 15.125C6.28566 15.125 7.12512 14.2855 7.12512 13.25C7.12512 12.2145 6.28566 11.375 5.25012 11.375C4.21459 11.375 3.37512 12.2145 3.37512 13.25C3.37512 14.2855 4.21459 15.125 5.25012 15.125Z" stroke="#18191C" stroke-width="2" stroke-linecap="round" stroke-linejoin="round"/>
</svg>
