<svg width="108" height="107" viewBox="0 0 108 107" fill="none" xmlns="http://www.w3.org/2000/svg">
<path d="M48.9922 12.8899C51.1148 8.1725 57.8129 8.1725 59.9355 12.8899L67.8279 30.4302C68.7045 32.3784 70.5508 33.7135 72.6755 33.9357L91.8557 35.9411C97.0363 36.4828 99.1133 42.9154 95.2276 46.3844L80.9794 59.1048C79.3712 60.5406 78.6569 62.7287 79.1082 64.8368L83.1004 83.483C84.1863 88.5548 78.7602 92.5219 74.2567 89.9487L57.4405 80.3403C55.596 79.2864 53.3317 79.2864 51.4872 80.3403L34.671 89.9487C30.1676 92.5219 24.7414 88.5548 25.8273 83.483L29.8195 64.8368C30.2709 62.7288 29.5566 60.5406 27.9484 59.1048L13.7001 46.3844C9.81447 42.9154 11.8914 36.4828 17.072 35.9411L36.2522 33.9357C38.3769 33.7135 40.2233 32.3784 41.0999 30.4302L48.9922 12.8899Z" fill="white"/>
</svg>
