<svg width="326" height="326" viewBox="0 0 326 326" fill="none" xmlns="http://www.w3.org/2000/svg">
<path d="M111.362 55.3222C113.596 50.9493 118.674 48.8456 123.346 50.3579L159.892 62.1883C161.894 62.8364 164.05 62.8364 166.052 62.1883L202.598 50.3579C207.27 48.8456 212.349 50.9493 214.583 55.3222L232.059 89.5295C233.017 91.4034 234.541 92.9275 236.415 93.8849L270.622 111.361C274.995 113.596 277.099 118.674 275.586 123.346L263.756 159.892C263.108 161.894 263.108 164.05 263.756 166.052L275.586 202.598C277.099 207.27 274.995 212.348 270.622 214.583L236.415 232.059C234.541 233.017 233.017 234.541 232.059 236.415L214.583 270.622C212.349 274.995 207.27 277.099 202.598 275.586L166.052 263.756C164.05 263.108 161.894 263.108 159.892 263.756L123.346 275.586C118.674 277.099 113.596 274.995 111.362 270.622L93.885 236.415C92.9276 234.541 91.4034 233.017 89.5295 232.059L55.3223 214.583C50.9493 212.348 48.8456 207.27 50.358 202.598L62.1884 166.052C62.8365 164.05 62.8365 161.894 62.1884 159.892L50.358 123.346C48.8456 118.674 50.9493 113.596 55.3223 111.361L89.5295 93.8849C91.4034 92.9275 92.9276 91.4034 93.885 89.5295L111.362 55.3222Z" fill="url(#paint0_linear_36_10779)"/>
<defs>
<linearGradient id="paint0_linear_36_10779" x1="115.239" y1="47.7334" x2="210.706" y2="278.211" gradientUnits="userSpaceOnUse">
<stop stop-color="#5795F6"/>
<stop offset="1" stop-color="#B1CEFB"/>
</linearGradient>
</defs>
</svg>
