<svg width="193" height="54" viewBox="0 0 193 54" fill="none" xmlns="http://www.w3.org/2000/svg">
<path d="M191.791 47.7721C191.791 50.6498 189.348 52.9808 186.326 52.9808H7.46767C4.447 52.9808 1.99512 50.6498 1.99512 47.7721V6.23409C1.99512 3.35773 4.447 1.01855 7.46767 1.01855H186.324C189.348 1.01855 191.79 3.35773 191.79 6.23409L191.791 47.7721Z" fill="black"/>
<path d="M185.749 1.08168C189.04 1.08168 191.718 3.62475 191.718 6.75V47.25C191.718 50.3752 189.04 52.9183 185.749 52.9183H8.03717C4.74595 52.9183 2.06784 50.3752 2.06784 47.25V6.75C2.06784 3.62475 4.74595 1.08168 8.03717 1.08168H185.749ZM185.749 -1.8703e-06H8.03717C4.1293 -1.8703e-06 0.928711 3.03919 0.928711 6.75V47.25C0.928711 50.9608 4.1293 54 8.03717 54H185.749C189.657 54 192.857 50.9608 192.857 47.25V6.75C192.857 3.03919 189.657 -1.8703e-06 185.749 -1.8703e-06Z" fill="#A6A6A6"/>
<path d="M43.7609 26.708C43.7196 22.357 47.5127 20.2402 47.6861 20.1416C45.538 17.1676 42.2084 16.7612 41.0383 16.7288C38.2418 16.4494 35.5293 18.3178 34.1047 18.3178C32.6517 18.3178 30.4581 16.7558 28.0938 16.8017C25.0514 16.8463 22.2052 18.5189 20.6441 21.1163C17.4226 26.4124 19.8252 34.1951 22.9117 38.476C24.4557 40.5725 26.2598 42.9134 28.6213 42.8311C30.9315 42.7406 31.7945 41.4325 34.5824 41.4325C37.3448 41.4325 38.1551 42.8311 40.5635 42.7784C43.0429 42.7406 44.6039 40.6724 46.0939 38.557C47.8781 36.154 48.5946 33.7874 48.623 33.6659C48.5648 33.647 43.8078 31.9231 43.7609 26.708Z" fill="white"/>
<path d="M39.2114 13.9127C40.454 12.4372 41.3042 10.4297 41.0682 8.39258C39.2697 8.46818 37.0206 9.57383 35.7254 11.017C34.5796 12.2887 33.5559 14.3731 33.8204 16.3333C35.8406 16.4764 37.9149 15.3653 39.2114 13.9127Z" fill="white"/>
<path d="M77.1954 42.5293H73.9667L72.1981 37.2521H66.0507L64.366 42.5293H61.2227L67.3132 24.5635H71.075L77.1954 42.5293ZM71.665 35.0381L70.0656 30.3469C69.8964 29.8676 69.5794 28.739 69.1116 26.9624H69.0548C68.8685 27.7265 68.5685 28.8551 68.1562 30.3469L66.5853 35.0381H71.665V35.0381Z" fill="white"/>
<path d="M92.8581 35.8935C92.8581 38.0967 92.2311 39.8382 90.9772 41.1167C89.854 42.2547 88.4594 42.8231 86.7946 42.8231C84.9975 42.8231 83.7066 42.2102 82.9204 40.9844H82.8636V47.8086H79.8325V33.8402C79.8325 32.4551 79.7941 31.0335 79.7202 29.5755H82.3859L82.5551 31.6289H82.6119C83.6228 30.0818 85.1568 29.3096 87.2154 29.3096C88.8247 29.3096 90.1682 29.913 91.243 31.1213C92.3207 32.3309 92.8581 33.9212 92.8581 35.8935ZM89.7702 35.9988C89.7702 34.7379 89.4716 33.6984 88.8716 32.8803C88.2162 32.0271 87.3362 31.6005 86.233 31.6005C85.4852 31.6005 84.8056 31.8381 84.1985 32.3066C83.5901 32.7791 83.192 33.396 83.0057 34.1601C82.9119 34.5165 82.865 34.8081 82.865 35.0376V37.1976C82.865 38.1399 83.1692 38.9351 83.7777 39.5844C84.3862 40.2338 85.1767 40.5578 86.1491 40.5578C87.2907 40.5578 88.1793 40.1393 88.8148 39.305C89.4517 38.4693 89.7702 37.3677 89.7702 35.9988Z" fill="white"/>
<path d="M108.55 35.8935C108.55 38.0967 107.923 39.8382 106.667 41.1167C105.545 42.2547 104.151 42.8231 102.486 42.8231C100.689 42.8231 99.3981 42.2102 98.6133 40.9844H98.5564V47.8086H95.5254V33.8402C95.5254 32.4551 95.487 31.0335 95.4131 29.5755H98.0788L98.2479 31.6289H98.3048C99.3142 30.0818 100.848 29.3096 102.908 29.3096C104.516 29.3096 105.86 29.913 106.937 31.1213C108.011 32.3309 108.55 33.9212 108.55 35.8935ZM105.462 35.9988C105.462 34.7379 105.162 33.6984 104.562 32.8803C103.906 32.0271 103.029 31.6005 101.924 31.6005C101.175 31.6005 100.497 31.8381 99.8886 32.3066C99.2801 32.7791 98.8834 33.396 98.6972 34.1601C98.6048 34.5165 98.5564 34.8081 98.5564 35.0376V37.1976C98.5564 38.1399 98.8607 38.9351 99.4663 39.5844C100.075 40.2324 100.865 40.5578 101.841 40.5578C102.982 40.5578 103.871 40.1393 104.506 39.305C105.143 38.4693 105.462 37.3677 105.462 35.9988Z" fill="white"/>
<path d="M126.092 37.4916C126.092 39.0198 125.534 40.2632 124.412 41.223C123.179 42.272 121.463 42.7958 119.258 42.7958C117.223 42.7958 115.59 42.4232 114.355 41.6766L115.057 39.2777C116.388 40.0418 117.848 40.4252 119.439 40.4252C120.581 40.4252 121.469 40.1795 122.107 39.6908C122.743 39.2021 123.06 38.546 123.06 37.7279C123.06 36.9989 122.798 36.3846 122.274 35.8865C121.752 35.3883 120.881 34.9253 119.664 34.4973C116.351 33.3242 114.696 31.6056 114.696 29.3457C114.696 27.8688 115.276 26.6579 116.438 25.7156C117.595 24.7719 119.139 24.3008 121.07 24.3008C122.791 24.3008 124.222 24.5856 125.363 25.154L124.605 27.5003C123.539 26.9495 122.334 26.6741 120.984 26.6741C119.918 26.6741 119.085 26.9238 118.488 27.4206C117.983 27.8648 117.73 28.4061 117.73 29.0474C117.73 29.7575 118.019 30.3447 118.599 30.8064C119.103 31.233 120.02 31.6947 121.351 32.1929C122.979 32.8152 124.175 33.5429 124.944 34.3772C125.71 35.2088 126.092 36.2496 126.092 37.4916Z" fill="white"/>
<path d="M136.115 31.7355H132.774V38.0252C132.774 39.6249 133.363 40.4241 134.543 40.4241C135.084 40.4241 135.534 40.3796 135.889 40.2905L135.973 42.4761C135.376 42.6881 134.59 42.7947 133.616 42.7947C132.419 42.7947 131.483 42.4478 130.808 41.7552C130.135 41.0613 129.797 39.8976 129.797 38.2628V31.7328H127.807V29.5728H129.797V27.2009L132.774 26.3477V29.5728H136.115V31.7355Z" fill="white"/>
<path d="M151.189 35.9458C151.189 37.937 150.589 39.5719 149.392 40.8503C148.137 42.1666 146.471 42.8227 144.393 42.8227C142.392 42.8227 140.798 42.1922 139.609 40.9313C138.421 39.6704 137.827 38.0788 137.827 36.1604C137.827 34.153 138.438 32.5087 139.665 31.2302C140.889 29.9504 142.541 29.3105 144.618 29.3105C146.62 29.3105 148.231 29.941 149.446 31.2032C150.609 32.4277 151.189 34.0085 151.189 35.9458ZM148.044 36.0389C148.044 34.8442 147.776 33.8195 147.231 32.965C146.596 31.9309 145.687 31.4152 144.51 31.4152C143.292 31.4152 142.366 31.9322 141.731 32.965C141.186 33.8209 140.917 34.8617 140.917 36.0929C140.917 37.2877 141.186 38.3123 141.731 39.1655C142.386 40.1996 143.302 40.7153 144.483 40.7153C145.64 40.7153 146.549 40.1888 147.204 39.1385C147.763 38.2678 148.044 37.2323 148.044 36.0389Z" fill="white"/>
<path d="M161.042 32.1068C160.742 32.0541 160.422 32.0271 160.086 32.0271C159.02 32.0271 158.195 32.4092 157.615 33.1746C157.111 33.8496 156.858 34.7028 156.858 35.7329V42.5301H153.828L153.856 33.6552C153.856 32.1621 153.818 30.8027 153.743 29.5769H156.383L156.494 32.0555H156.578C156.897 31.2036 157.402 30.5178 158.093 30.0035C158.768 29.5404 159.498 29.3096 160.284 29.3096C160.564 29.3096 160.817 29.3285 161.042 29.3622V32.1068Z" fill="white"/>
<path d="M174.597 35.4398C174.597 35.9555 174.562 36.3902 174.486 36.7453H165.393C165.429 38.0251 165.868 39.0038 166.713 39.6788C167.479 40.2823 168.47 40.5847 169.687 40.5847C171.033 40.5847 172.261 40.3808 173.366 39.9718L173.841 41.9698C172.55 42.5044 171.026 42.7703 169.267 42.7703C167.152 42.7703 165.491 42.179 164.283 40.9978C163.077 39.8165 162.473 38.2303 162.473 36.2404C162.473 34.2869 163.035 32.6602 164.159 31.3628C165.336 29.9777 166.927 29.2852 168.929 29.2852C170.895 29.2852 172.384 29.9777 173.395 31.3628C174.195 32.4631 174.597 33.8239 174.597 35.4398ZM171.707 34.6933C171.727 33.8401 171.529 33.103 171.118 32.4806C170.594 31.6801 169.788 31.2805 168.703 31.2805C167.712 31.2805 166.906 31.6706 166.29 32.4536C165.786 33.076 165.486 33.8225 165.393 34.6919H171.707V34.6933Z" fill="white"/>
<path d="M70.6631 13.5122C70.6631 15.1012 70.1613 16.2973 69.159 17.1005C68.2306 17.8417 66.9113 18.2129 65.2024 18.2129C64.3551 18.2129 63.63 18.1778 63.0229 18.1076V9.42579C63.8148 9.30429 64.6678 9.24219 65.5891 9.24219C67.2169 9.24219 68.4439 9.57834 69.2713 10.2506C70.1982 11.0107 70.6631 12.0974 70.6631 13.5122ZM69.0922 13.5514C69.0922 12.5213 68.805 11.7316 68.2306 11.1808C67.6563 10.6313 66.8175 10.3559 65.7128 10.3559C65.2436 10.3559 64.8441 10.3856 64.5129 10.4477V17.0479C64.6963 17.0749 65.0318 17.087 65.5194 17.087C66.6596 17.087 67.5397 16.786 68.1595 16.1839C68.7794 15.5818 69.0922 14.7043 69.0922 13.5514Z" fill="white"/>
<path d="M78.9922 14.8995C78.9922 15.8783 78.6979 16.6802 78.1093 17.3093C77.4923 17.9559 76.6748 18.2786 75.654 18.2786C74.6702 18.2786 73.8869 17.9694 73.3026 17.3484C72.7197 16.7288 72.4282 15.9471 72.4282 15.0048C72.4282 14.0193 72.7282 13.2107 73.331 12.5829C73.9338 11.9552 74.7442 11.6406 75.7649 11.6406C76.7487 11.6406 77.5392 11.9498 78.1377 12.5694C78.7064 13.1715 78.9922 13.9491 78.9922 14.8995ZM77.4468 14.9454C77.4468 14.3582 77.3132 13.8546 77.0473 13.4348C76.7345 12.9272 76.2895 12.6734 75.7109 12.6734C75.1124 12.6734 74.6574 12.9272 74.3447 13.4348C74.0774 13.8546 73.9452 14.3663 73.9452 14.9711C73.9452 15.5583 74.0788 16.0619 74.3447 16.4817C74.6674 16.9893 75.1166 17.2431 75.6967 17.2431C76.2654 17.2431 76.7118 16.9853 77.0331 16.4682C77.3089 16.0403 77.4468 15.5327 77.4468 14.9454Z" fill="white"/>
<path d="M90.1613 11.7705L88.0643 18.1344H86.6995L85.8309 15.371C85.6105 14.6811 85.4314 13.9953 85.292 13.3149H85.265C85.1356 14.0142 84.9565 14.6987 84.7262 15.371L83.8035 18.1344H82.4231L80.4512 11.7705H81.9823L82.7401 14.7959C82.9235 15.5114 83.0742 16.1931 83.195 16.8384H83.222C83.3329 16.3065 83.5163 15.6288 83.7751 14.8094L84.7262 11.7719H85.9403L86.8516 14.7446C87.072 15.4695 87.2511 16.1675 87.389 16.8398H87.4303C87.5312 16.185 87.6833 15.4871 87.8852 14.7446L88.6984 11.7719H90.1613V11.7705Z" fill="white"/>
<path d="M97.8852 18.1352H96.3952V14.4902C96.3952 13.367 95.946 12.8054 95.0446 12.8054C94.6025 12.8054 94.2456 12.9593 93.9684 13.2685C93.694 13.5776 93.5547 13.9421 93.5547 14.3593V18.1339H92.0648V13.5898C92.0648 13.0309 92.0463 12.4247 92.0107 11.7686H93.3201L93.3898 12.7636H93.431C93.6045 12.4544 93.8632 12.1993 94.203 11.9954C94.6067 11.7578 95.0588 11.6377 95.5536 11.6377C96.1791 11.6377 96.6995 11.8294 97.1132 12.2141C97.6278 12.6853 97.8852 13.3886 97.8852 14.3228V18.1352V18.1352Z" fill="white"/>
<path d="M101.994 18.1345H100.505V8.85059H101.994V18.1345Z" fill="white"/>
<path d="M110.766 14.8995C110.766 15.8783 110.472 16.6802 109.883 17.3093C109.266 17.9559 108.447 18.2786 107.428 18.2786C106.443 18.2786 105.659 17.9694 105.076 17.3484C104.494 16.7288 104.202 15.9471 104.202 15.0048C104.202 14.0193 104.502 13.2107 105.105 12.5829C105.708 11.9552 106.518 11.6406 107.537 11.6406C108.523 11.6406 109.312 11.9498 109.912 12.5694C110.48 13.1715 110.766 13.9491 110.766 14.8995ZM109.219 14.9454C109.219 14.3582 109.086 13.8546 108.82 13.4348C108.508 12.9272 108.062 12.6734 107.485 12.6734C106.885 12.6734 106.43 12.9272 106.119 13.4348C105.851 13.8546 105.719 14.3663 105.719 14.9711C105.719 15.5583 105.853 16.0619 106.119 16.4817C106.441 16.9893 106.891 17.2431 107.471 17.2431C108.039 17.2431 108.484 16.9853 108.806 16.4682C109.083 16.0403 109.219 15.5327 109.219 14.9454Z" fill="white"/>
<path d="M117.977 18.1341H116.639L116.528 17.4011H116.487C116.029 17.9856 115.377 18.2786 114.529 18.2786C113.897 18.2786 113.385 18.0855 113 17.7021C112.65 17.3538 112.475 16.9205 112.475 16.4061C112.475 15.6285 112.816 15.0359 113.503 14.6255C114.188 14.2151 115.152 14.0139 116.393 14.0234V13.9046C116.393 13.0662 115.93 12.6477 115.001 12.6477C114.34 12.6477 113.757 12.8057 113.254 13.1189L112.951 12.1901C113.574 11.8242 114.343 11.6406 115.25 11.6406C117.002 11.6406 117.88 12.5181 117.88 14.2731V16.6167C117.88 17.2526 117.913 17.7588 117.977 18.1341ZM116.43 15.9471V14.9657C114.787 14.9387 113.965 15.3666 113.965 16.2482C113.965 16.5803 114.059 16.8287 114.251 16.9947C114.443 17.1608 114.687 17.2431 114.979 17.2431C115.306 17.2431 115.611 17.1446 115.89 16.9488C116.17 16.7517 116.342 16.502 116.406 16.1955C116.422 16.1267 116.43 16.043 116.43 15.9471Z" fill="white"/>
<path d="M126.443 18.1345H125.121L125.051 17.1126H125.01C124.588 17.8902 123.868 18.279 122.858 18.279C122.05 18.279 121.378 17.9779 120.844 17.3758C120.311 16.7737 120.045 15.9921 120.045 15.0322C120.045 14.0022 120.334 13.1679 120.914 12.5307C121.476 11.9367 122.164 11.6397 122.983 11.6397C123.883 11.6397 124.512 11.9272 124.871 12.5037H124.899V8.85059H126.39V16.42C126.39 17.0397 126.407 17.6107 126.443 18.1345ZM124.899 15.4507V14.3896C124.899 14.206 124.885 14.0575 124.858 13.9441C124.774 13.6039 124.593 13.3177 124.319 13.0869C124.042 12.856 123.708 12.7399 123.322 12.7399C122.767 12.7399 122.331 12.9492 122.012 13.369C121.695 13.7889 121.534 14.3248 121.534 14.9796C121.534 15.6087 121.686 16.119 121.992 16.5118C122.314 16.9303 122.749 17.1396 123.294 17.1396C123.783 17.1396 124.174 16.9654 124.471 16.6158C124.758 16.2931 124.899 15.9043 124.899 15.4507Z" fill="white"/>
<path d="M139.186 14.8995C139.186 15.8783 138.892 16.6802 138.303 17.3093C137.686 17.9559 136.87 18.2786 135.848 18.2786C134.866 18.2786 134.082 17.9694 133.496 17.3484C132.914 16.7288 132.622 15.9471 132.622 15.0048C132.622 14.0193 132.922 13.2107 133.525 12.5829C134.128 11.9552 134.938 11.6406 135.96 11.6406C136.943 11.6406 137.734 11.9498 138.332 12.5694C138.9 13.1715 139.186 13.9491 139.186 14.8995ZM137.642 14.9454C137.642 14.3582 137.508 13.8546 137.243 13.4348C136.928 12.9272 136.485 12.6734 135.905 12.6734C135.308 12.6734 134.853 12.9272 134.539 13.4348C134.271 13.8546 134.139 14.3663 134.139 14.9711C134.139 15.5583 134.273 16.0619 134.539 16.4817C134.861 16.9893 135.31 17.2431 135.891 17.2431C136.459 17.2431 136.907 16.9853 137.228 16.4682C137.503 16.0403 137.642 15.5327 137.642 14.9454Z" fill="white"/>
<path d="M147.197 18.1352H145.708V14.4902C145.708 13.367 145.259 12.8054 144.356 12.8054C143.914 12.8054 143.557 12.9593 143.281 13.2685C143.006 13.5776 142.868 13.9421 142.868 14.3593V18.1339H141.376V13.5898C141.376 13.0309 141.359 12.4247 141.324 11.7686H142.632L142.701 12.7636H142.743C142.917 12.4544 143.176 12.1993 143.515 11.9954C143.92 11.7578 144.37 11.6377 144.867 11.6377C145.491 11.6377 146.011 11.8294 146.425 12.2141C146.941 12.6853 147.197 13.3886 147.197 14.3228V18.1352V18.1352Z" fill="white"/>
<path d="M157.224 12.8302H155.583V15.9217C155.583 16.7074 155.875 17.1002 156.452 17.1002C156.719 17.1002 156.941 17.0786 157.116 17.0341L157.154 18.1073C156.86 18.2126 156.473 18.2653 155.997 18.2653C155.408 18.2653 154.95 18.0952 154.619 17.755C154.287 17.4148 154.122 16.8424 154.122 16.0391V12.8302H153.142V11.7704H154.122V10.604L155.582 10.1855V11.7691H157.222V12.8302H157.224Z" fill="white"/>
<path d="M165.111 18.1345H163.62V14.5165C163.62 13.3758 163.17 12.8047 162.27 12.8047C161.579 12.8047 161.107 13.1355 160.849 13.797C160.805 13.936 160.779 14.1061 160.779 14.3059V18.1332H159.291V8.85059H160.779V12.6859H160.807C161.277 11.988 161.949 11.6397 162.821 11.6397C163.438 11.6397 163.948 11.8314 164.353 12.2161C164.858 12.6954 165.111 13.4082 165.111 14.3505V18.1345V18.1345Z" fill="white"/>
<path d="M173.248 14.6516C173.248 14.9054 173.228 15.1187 173.192 15.2928H168.724C168.744 15.9219 168.957 16.4012 169.371 16.7333C169.749 17.0303 170.237 17.1788 170.834 17.1788C171.495 17.1788 172.098 17.0789 172.641 16.8777L172.874 17.8605C172.238 18.1224 171.491 18.2534 170.625 18.2534C169.587 18.2534 168.77 17.9631 168.178 17.3826C167.584 16.8021 167.29 16.0232 167.29 15.0458C167.29 14.0859 167.564 13.2867 168.117 12.6495C168.694 11.9691 169.475 11.6289 170.46 11.6289C171.424 11.6289 172.156 11.9691 172.651 12.6495C173.05 13.1895 173.248 13.8578 173.248 14.6516ZM171.826 14.2857C171.838 13.8659 171.739 13.5041 171.538 13.199C171.279 12.8061 170.885 12.609 170.352 12.609C169.866 12.609 169.469 12.8007 169.166 13.1855C168.919 13.4919 168.772 13.8578 168.724 14.2857H171.826Z" fill="white"/>
</svg>
