<svg width="18" height="18" viewBox="0 0 18 18" fill="none" xmlns="http://www.w3.org/2000/svg">
<mask id="mask0_9_2115" style="mask-type:luminance" maskUnits="userSpaceOnUse" x="0" y="0" width="18" height="18">
<path d="M18 0H0V18H18V0Z" fill="white"/>
</mask>
<g mask="url(#mask0_9_2115)">
<path d="M16 0H2C0.89543 0 0 0.89543 0 2V16C0 17.1046 0.89543 18 2 18H16C17.1046 18 18 17.1046 18 16V2C18 0.89543 17.1046 0 16 0Z" fill="#1769FF"/>
<path d="M6.35803 4.92188C6.74603 4.92188 7.10002 4.9559 7.42102 5.0249C7.74102 5.0929 8.01504 5.20588 8.24304 5.36188C8.47104 5.51788 8.64802 5.72486 8.77402 5.98486C8.90002 6.24386 8.96304 6.56285 8.96304 6.94385C8.96304 7.35485 8.86904 7.6979 8.68304 7.9729C8.49604 8.2469 8.22004 8.47087 7.85504 8.64587C8.35704 8.79087 8.73204 9.04488 8.98004 9.40588C9.22804 9.76688 9.35202 10.2039 9.35202 10.7139C9.35202 11.1249 9.27203 11.4819 9.11203 11.7829C8.95203 12.0839 8.73703 12.3289 8.46603 12.5189C8.19503 12.7099 7.88702 12.8509 7.54102 12.9419C7.19202 13.0329 6.83302 13.0789 6.47302 13.0789H2.52002V4.92188H6.35803ZM6.13004 8.2229C6.44904 8.2229 6.71203 8.14687 6.91803 7.99487C7.12403 7.84187 7.22704 7.59487 7.22604 7.25287C7.22604 7.06187 7.19202 6.90585 7.12302 6.78485C7.05502 6.66285 6.96303 6.5669 6.84903 6.4989C6.73403 6.4299 6.60302 6.3829 6.45502 6.3559C6.30202 6.3289 6.14803 6.31589 5.99203 6.31689H4.31403V8.22485L6.13004 8.2229ZM6.23303 11.6839C6.40203 11.6849 6.57002 11.6679 6.73502 11.6329C6.89502 11.5979 7.03602 11.5419 7.15802 11.4619C7.27902 11.3819 7.37704 11.2729 7.44904 11.1359C7.52104 10.9989 7.55804 10.8239 7.55804 10.6109C7.55804 10.1919 7.44004 9.89287 7.20404 9.71387C6.96804 9.53487 6.65503 9.44586 6.26703 9.44586H4.31403V11.6849L6.23303 11.6839ZM11.608 11.5129C11.851 11.7489 12.202 11.8669 12.659 11.8669C12.987 11.8669 13.268 11.7848 13.505 11.6208C13.741 11.4578 13.885 11.2849 13.939 11.1019H15.366C15.138 11.8099 14.788 12.3158 14.315 12.6208C13.843 12.9248 13.272 13.0779 12.602 13.0779C12.137 13.0779 11.718 13.0039 11.345 12.8559C10.972 12.7069 10.656 12.4959 10.397 12.2209C10.138 11.9469 9.93803 11.6199 9.79703 11.2389C9.65703 10.8579 9.58603 10.4388 9.58603 9.98285C9.58603 9.54085 9.65804 9.1299 9.80304 8.7489C9.94804 8.3689 10.154 8.0389 10.42 7.7619C10.686 7.4839 11.005 7.26486 11.374 7.10486C11.743 6.94486 12.153 6.86487 12.602 6.86487C13.105 6.86487 13.543 6.96186 13.916 7.15686C14.289 7.35086 14.596 7.6119 14.836 7.9389C15.076 8.2669 15.249 8.6399 15.356 9.0589C15.462 9.4779 15.5 9.91586 15.47 10.3729H11.209C11.232 10.8959 11.365 11.2769 11.608 11.5129ZM13.442 8.40588C13.248 8.19288 12.952 8.08588 12.556 8.08588C12.297 8.08588 12.082 8.12986 11.911 8.21686C11.74 8.30486 11.603 8.41291 11.5 8.54291C11.397 8.67191 11.325 8.80886 11.283 8.95386C11.242 9.09886 11.216 9.22786 11.209 9.34186H13.848C13.771 8.93186 13.636 8.61888 13.442 8.40588ZM10.931 5.33588H14.228V6.24988H10.931V5.33588Z" fill="white"/>
</g>
</svg>
