<svg width="24" height="24" viewBox="0 0 24 24" fill="none" xmlns="http://www.w3.org/2000/svg">
<mask id="mask0_9_2126" style="mask-type:luminance" maskUnits="userSpaceOnUse" x="0" y="0" width="24" height="24">
<path d="M18 0H6C2.68629 0 0 2.68629 0 6V18C0 21.3137 2.68629 24 6 24H18C21.3137 24 24 21.3137 24 18V6C24 2.68629 21.3137 0 18 0Z" fill="white"/>
</mask>
<g mask="url(#mask0_9_2126)">
<path fill-rule="evenodd" clip-rule="evenodd" d="M11.995 0.599609C9.16403 0.601609 6.42602 1.60365 4.27002 3.42865C2.11502 5.25365 0.682032 7.78063 0.228032 10.5596C-0.224968 13.3376 0.330049 16.1866 1.79505 18.5946C3.26005 21.0036 5.53803 22.8166 8.22403 23.7076C8.81603 23.8176 9.03904 23.4506 9.03904 23.1386C9.03904 22.8266 9.02705 21.9206 9.02305 20.9316C5.70605 21.6486 5.00504 19.5316 5.00504 19.5316C4.46404 18.1566 3.68204 17.7957 3.68204 17.7957C2.60004 17.0617 3.76304 17.0756 3.76304 17.0756C4.96104 17.1596 5.59104 18.2986 5.59104 18.2986C6.65404 20.1106 8.38204 19.5866 9.06104 19.2806C9.16704 18.5126 9.47704 17.9906 9.81904 17.6936C7.16904 17.3956 4.38505 16.3787 4.38505 11.8347C4.36805 10.6567 4.80804 9.51661 5.61304 8.65161C5.49104 8.35361 5.08204 7.14762 5.72904 5.51062C5.72904 5.51062 6.73104 5.19265 9.00904 6.72565C10.964 6.19465 13.026 6.19465 14.981 6.72565C17.258 5.19265 18.257 5.51062 18.257 5.51062C18.907 7.14362 18.498 8.34961 18.375 8.65161C19.183 9.51661 19.624 10.6586 19.606 11.8386C19.606 16.3916 16.815 17.3956 14.161 17.6876C14.588 18.0566 14.969 18.7776 14.969 19.8846C14.969 21.4716 14.955 22.7476 14.955 23.1386C14.955 23.4546 15.171 23.8236 15.775 23.7076C18.46 22.8156 20.739 21.0036 22.204 18.5946C23.669 16.1846 24.224 13.3366 23.77 10.5576C23.316 7.77862 21.882 5.25064 19.726 3.42664C17.569 1.60264 14.831 0.600609 11.999 0.599609H11.995Z" fill="#191717"/>
<path d="M4.58523 17.6243C4.55923 17.6833 4.46424 17.7013 4.38724 17.6603C4.31024 17.6183 4.25324 17.5423 4.28024 17.4813C4.30824 17.4203 4.40124 17.4043 4.47824 17.4463C4.55524 17.4873 4.61423 17.5653 4.58523 17.6243Z" fill="#191717"/>
<path d="M5.06797 18.161C5.02697 18.182 4.98099 18.187 4.93599 18.177C4.89099 18.167 4.85198 18.142 4.82298 18.106C4.74598 18.024 4.73099 17.91 4.78999 17.859C4.84899 17.808 4.95597 17.831 5.03297 17.914C5.10997 17.996 5.12797 18.11 5.06797 18.161Z" fill="#191717"/>
<path d="M5.53793 18.8427C5.46493 18.8937 5.33994 18.8427 5.27094 18.7407C5.25194 18.7217 5.23693 18.6997 5.22693 18.6757C5.21593 18.6517 5.21094 18.6257 5.21094 18.5987C5.21094 18.5727 5.21593 18.5467 5.22693 18.5227C5.23693 18.4977 5.25194 18.4757 5.27094 18.4577C5.34394 18.4087 5.46893 18.4576 5.53793 18.5576C5.60693 18.6576 5.60893 18.7917 5.53793 18.8427Z" fill="#191717"/>
<path d="M6.17587 19.5018C6.11087 19.5748 5.97887 19.5547 5.86987 19.4567C5.76187 19.3587 5.73587 19.2258 5.80087 19.1548C5.86587 19.0838 5.99887 19.1038 6.11087 19.1998C6.22387 19.2958 6.24487 19.4318 6.17587 19.5018Z" fill="#191717"/>
<path d="M7.06982 19.8867C7.04082 19.9797 6.90582 20.0207 6.77182 19.9807C6.63782 19.9417 6.54883 19.8317 6.57483 19.7377C6.59983 19.6437 6.7368 19.6007 6.8728 19.6437C7.0088 19.6867 7.09582 19.7907 7.06982 19.8867Z" fill="#191717"/>
<path d="M8.04715 19.9533C8.04715 20.0493 7.93616 20.1323 7.79416 20.1343C7.65216 20.1363 7.53516 20.0573 7.53516 19.9613C7.53516 19.8653 7.64615 19.7823 7.78815 19.7803C7.93015 19.7783 8.04715 19.8553 8.04715 19.9533Z" fill="#191717"/>
<path d="M8.95516 19.8027C8.97316 19.8987 8.87417 19.9988 8.73217 20.0228C8.58917 20.0458 8.46517 19.9888 8.44717 19.8948C8.43017 19.8008 8.53219 19.6987 8.67019 19.6727C8.80919 19.6477 8.93716 19.7067 8.95516 19.8027Z" fill="#191717"/>
</g>
</svg>
