<svg width="24" height="24" viewBox="0 0 24 24" fill="none" xmlns="http://www.w3.org/2000/svg">
<mask id="mask0_9_2105" style="mask-type:luminance" maskUnits="userSpaceOnUse" x="0" y="0" width="24" height="24">
<path d="M18 0H6C2.68629 0 0 2.68629 0 6V18C0 21.3137 2.68629 24 6 24H18C21.3137 24 24 21.3137 24 18V6C24 2.68629 21.3137 0 18 0Z" fill="white"/>
</mask>
<g mask="url(#mask0_9_2105)">
<path d="M12 23.625C18.42 23.625 23.625 18.42 23.625 12C23.625 5.58 18.42 0.375 12 0.375C5.58 0.375 0.375 5.58 0.375 12C0.375 18.42 5.58 23.625 12 23.625Z" fill="#EA4C89"/>
<path fill-rule="evenodd" clip-rule="evenodd" d="M12 0C5.375 0 0 5.375 0 12C0 18.625 5.375 24 12 24C18.612 24 24 18.625 24 12C24 5.375 18.612 0 12 0ZM19.926 5.53101C21.358 7.27501 22.217 9.501 22.243 11.909C21.905 11.844 18.521 11.154 15.111 11.584C15.033 11.414 14.967 11.232 14.889 11.05C14.681 10.555 14.447 10.048 14.213 9.56598C17.987 8.02998 19.705 5.81801 19.926 5.53101ZM12 1.77002C14.603 1.77002 16.985 2.74598 18.794 4.34698C18.612 4.60698 17.063 6.67703 13.419 8.04303C11.74 4.95903 9.87901 2.43403 9.59201 2.04303C10.36 1.86103 11.167 1.77002 12 1.77002ZM7.64001 2.73297C7.91301 3.09797 9.735 5.63603 11.44 8.65503C6.651 9.93103 2.421 9.90503 1.965 9.90503C2.629 6.72903 4.77701 4.08697 7.64001 2.73297ZM1.74399 12.013C1.74399 11.909 1.74399 11.805 1.74399 11.701C2.18699 11.714 7.15801 11.779 12.273 10.243C12.573 10.816 12.846 11.401 13.106 11.987C12.976 12.026 12.833 12.065 12.703 12.104C7.419 13.809 4.60699 18.469 4.37299 18.859C2.74599 17.05 1.74399 14.642 1.74399 12.013ZM12 22.256C9.631 22.256 7.44499 21.449 5.71399 20.095C5.89599 19.718 7.97799 15.709 13.757 13.692C13.783 13.679 13.796 13.679 13.822 13.666C15.267 17.401 15.853 20.538 16.009 21.436C14.772 21.97 13.419 22.256 12 22.256ZM17.714 20.499C17.61 19.874 17.063 16.881 15.722 13.197C18.937 12.69 21.748 13.523 22.1 13.64C21.657 16.49 20.017 18.95 17.714 20.499Z" fill="#C32361"/>
</g>
</svg>
