<svg width="18" height="14" viewBox="0 0 18 14" fill="none" xmlns="http://www.w3.org/2000/svg">
<g clip-path="url(#clip0_9_2193)">
<path d="M17.7793 1.70441C17.1123 1.98888 16.4049 2.17561 15.6806 2.25838C16.4351 1.82297 17.0144 1.13349 17.2872 0.311979C16.5699 0.721787 15.7852 1.01052 14.9669 1.16571C14.3003 0.481989 13.3507 0.0546875 12.2997 0.0546875C10.2817 0.0546875 8.64554 1.62992 8.64554 3.57277C8.64554 3.84855 8.67789 4.11703 8.74016 4.37459C5.70332 4.22782 3.01087 2.82722 1.2086 0.698687C0.894132 1.21829 0.71394 1.82271 0.71394 2.46738C0.71394 3.68799 1.35908 4.76478 2.3395 5.39572C1.75923 5.37822 1.19173 5.22732 0.684371 4.95562C0.684163 4.97036 0.684163 4.9851 0.684163 4.9999C0.684163 6.70448 1.9437 8.12645 3.61525 8.44966C3.07716 8.59056 2.51275 8.61118 1.96513 8.50995C2.43008 9.90767 3.77958 10.9248 5.37849 10.9532C4.12793 11.8968 2.55232 12.4593 0.840422 12.4593C0.545435 12.4593 0.254623 12.4426 -0.03125 12.4101C1.58582 13.4083 3.50651 13.9908 5.57002 13.9908C12.2912 13.9908 15.9665 8.62985 15.9665 3.98078C15.9665 3.82819 15.963 3.67647 15.9559 3.52561C16.6713 3.0277 17.2887 2.41098 17.7793 1.70441" fill="white"/>
</g>
<defs>
<clipPath id="clip0_9_2193">
<rect width="18" height="14" fill="white"/>
</clipPath>
</defs>
</svg>
