<svg width="20" height="20" viewBox="0 0 20 20" fill="none" xmlns="http://www.w3.org/2000/svg">
<path d="M14.36 12C14.44 11.34 14.5 10.68 14.5 10C14.5 9.32 14.44 8.66 14.36 8H17.74C17.9 8.64 18 9.31 18 10C18 10.69 17.9 11.36 17.74 12M12.59 17.56C13.19 16.45 13.65 15.25 13.97 14H16.92C15.951 15.668 14.414 16.932 12.59 17.56ZM12.34 12H7.66C7.56 11.34 7.5 10.68 7.5 10C7.5 9.32 7.56 8.65 7.66 8H12.34C12.43 8.65 12.5 9.32 12.5 10C12.5 10.68 12.43 11.34 12.34 12ZM10 17.96C9.17 16.76 8.5 15.43 8.09 14H11.91C11.5 15.43 10.83 16.76 10 17.96ZM6 6H3.07999C4.03899 4.327 5.57499 3.061 7.39999 2.44C6.79999 3.55 6.35 4.75 6 6ZM3.07999 14H6C6.35 15.25 6.79999 16.45 7.39999 17.56C5.57899 16.932 4.04499 15.668 3.07999 14ZM2.26001 12C2.10001 11.36 2 10.69 2 10C2 9.31 2.10001 8.64 2.26001 8H5.64001C5.56001 8.66 5.5 9.32 5.5 10C5.5 10.68 5.56001 11.34 5.64001 12M10 2.03003C10.83 3.23003 11.5 4.57 11.91 6H8.09C8.5 4.57 9.17 3.23003 10 2.03003ZM16.92 6H13.97C13.657 4.761 13.194 3.566 12.59 2.44C14.43 3.07 15.96 4.34 16.92 6ZM10 0C4.47 0 0 4.5 0 10C0 12.652 1.05399 15.196 2.92899 17.071C3.85799 18 4.96 18.736 6.173 19.239C7.386 19.741 8.687 20 10 20C12.652 20 15.196 18.946 17.071 17.071C18.946 15.196 20 12.652 20 10C20 8.687 19.741 7.38597 19.239 6.17297C18.736 4.95997 18 3.85802 17.071 2.92902C16.142 2.00002 15.04 1.26399 13.827 0.760986C12.614 0.258986 11.313 0 10 0Z" fill="#191717"/>
</svg>
