<svg width="24" height="20" viewBox="0 0 24 20" fill="none" xmlns="http://www.w3.org/2000/svg">
<path d="M21.0591 5.18088C21.0681 5.39188 21.0681 5.59284 21.0681 5.80484C21.0771 12.2078 16.3731 19.5998 7.76907 19.5998C5.23207 19.5998 2.74105 18.8419 0.602051 17.4209C0.972051 17.4689 1.34207 17.4878 1.71307 17.4878C3.81507 17.4878 5.86207 16.7579 7.51907 15.4049C5.51907 15.3659 3.75907 14.0128 3.14807 12.0348C3.85207 12.1788 4.57407 12.1498 5.26007 11.9488C3.08307 11.5068 1.51806 9.51984 1.50906 7.20584C1.50906 7.18684 1.50906 7.16783 1.50906 7.14883C2.15706 7.52283 2.88907 7.73384 3.63007 7.75284C1.58307 6.33284 0.944059 3.50087 2.18506 1.28287C4.56506 4.31687 8.06605 6.14984 11.826 6.35184C11.446 4.67184 11.9651 2.90487 13.1781 1.71487C15.0581 -0.119125 18.0211 -0.0231267 19.7991 1.92587C20.8461 1.71487 21.8551 1.31184 22.7721 0.744843C22.4201 1.86884 21.6881 2.81886 20.7161 3.42386C21.6421 3.30886 22.5501 3.04883 23.4021 2.66483C22.7721 3.64483 21.9751 4.48888 21.0591 5.18088Z" fill="#1D9BF0"/>
</svg>
