<svg width="199" height="70" viewBox="0 0 199 70" fill="none" xmlns="http://www.w3.org/2000/svg">
<path d="M111.9 49.4609C105.914 53.725 97.2386 56 89.769 56C79.2955 56 69.8666 52.256 62.7333 46.0289C62.1729 45.5392 62.675 44.8719 63.3475 45.2532C71.0458 49.5823 80.5643 52.1866 90.3967 52.1866C97.0278 52.1866 104.323 50.8606 111.03 48.1089C112.043 47.6929 112.891 48.7503 111.9 49.4609Z" fill="#FF9900"/>
<path d="M114.388 46.7091C113.626 45.7644 109.331 46.2628 107.403 46.4838C106.815 46.5531 106.726 46.0591 107.255 45.7038C110.676 43.3768 116.289 44.0484 116.944 44.8284C117.598 45.6128 116.773 51.0512 113.559 53.6468C113.065 54.0455 112.595 53.8332 112.814 53.3045C113.536 51.5625 115.155 47.6581 114.388 46.7091Z" fill="#FF9900"/>
<path d="M107.537 29.276V27.014C107.537 26.6716 107.806 26.442 108.129 26.442H118.607C118.943 26.442 119.212 26.676 119.212 27.014V28.951C119.208 29.276 118.925 29.7007 118.423 30.3723L112.994 37.8647C115.011 37.8171 117.141 38.1074 118.97 39.1041C119.383 39.3294 119.495 39.6587 119.526 39.9837V42.3974C119.526 42.7268 119.149 43.1124 118.755 42.9131C115.531 41.2794 111.249 41.1018 107.685 42.9304C107.322 43.1211 106.941 42.7398 106.941 42.4104V40.1181C106.941 39.7497 106.945 39.1214 107.326 38.5624L113.617 29.8437H108.142C107.806 29.8437 107.537 29.614 107.537 29.276Z" fill="#221F1F"/>
<path d="M69.3145 43.3899H66.1267C65.8219 43.3682 65.5797 43.1472 65.5573 42.8656V27.0531C65.5573 26.7367 65.8308 26.4854 66.1716 26.4854H69.1441C69.4535 26.4984 69.7001 26.7281 69.7225 27.0141V29.0811H69.7808C70.5565 27.0834 72.0136 26.1517 73.9774 26.1517C75.9726 26.1517 77.219 27.0834 78.1157 29.0811C78.8869 27.0834 80.6399 26.1517 82.5185 26.1517C83.8546 26.1517 85.3162 26.6847 86.2085 27.8807C87.2173 29.2111 87.011 31.1438 87.011 32.8381L87.0065 42.8179C87.0065 43.1342 86.733 43.3899 86.3923 43.3899H83.209C82.8907 43.3682 82.6351 43.1212 82.6351 42.8179V34.4371C82.6351 33.7698 82.6979 32.1058 82.5454 31.4731C82.3078 30.4114 81.5949 30.1124 80.6713 30.1124C79.9001 30.1124 79.0931 30.6108 78.7658 31.4081C78.4385 32.2055 78.4699 33.5401 78.4699 34.4371V42.8179C78.4699 43.1342 78.1964 43.3899 77.8556 43.3899H74.6723C74.3495 43.3682 74.0984 43.1212 74.0984 42.8179L74.094 34.4371C74.094 32.6735 74.3944 30.0778 72.1302 30.0778C69.8391 30.0778 69.9288 32.6085 69.9288 34.4371V42.8179C69.9288 43.1342 69.6553 43.3899 69.3145 43.3899Z" fill="#221F1F"/>
<path d="M128.233 26.1517C132.963 26.1517 135.523 30.0778 135.523 35.0698C135.523 39.8929 132.694 43.7192 128.233 43.7192C123.588 43.7192 121.059 39.7932 121.059 34.9008C121.059 29.9781 123.619 26.1517 128.233 26.1517ZM128.26 29.3801C125.91 29.3801 125.762 32.4741 125.762 34.4025C125.762 36.3352 125.731 40.4605 128.233 40.4605C130.703 40.4605 130.82 37.1325 130.82 35.1045C130.82 33.7698 130.761 32.1751 130.344 30.9098C129.986 29.8091 129.273 29.3801 128.26 29.3801Z" fill="#221F1F"/>
<path d="M141.656 43.3899H138.482C138.164 43.3682 137.908 43.1212 137.908 42.8179L137.904 27.0011C137.931 26.7107 138.195 26.4854 138.518 26.4854H141.472C141.75 26.4984 141.979 26.6804 142.042 26.9274V29.3454H142.1C142.992 27.1831 144.243 26.1517 146.445 26.1517C147.875 26.1517 149.269 26.6501 150.166 28.0151C151 29.2804 151 31.4081 151 32.9378V42.8916C150.964 43.1689 150.7 43.3899 150.386 43.3899H147.189C146.898 43.3682 146.655 43.1602 146.624 42.8916V34.3028C146.624 32.5738 146.83 30.0431 144.629 30.0431C143.853 30.0431 143.14 30.5458 142.786 31.3084C142.338 32.2748 142.28 33.2368 142.28 34.3028V42.8179C142.275 43.1342 141.997 43.3899 141.656 43.3899Z" fill="#221F1F"/>
<path d="M99.184 35.8368V35.1694C96.8794 35.1694 94.4449 35.6461 94.4449 38.2721C94.4449 39.6025 95.1578 40.5038 96.3818 40.5038C97.2785 40.5038 98.081 39.9708 98.5877 39.1041C99.2154 38.0381 99.184 37.0371 99.184 35.8368ZM102.399 43.3465C102.188 43.5285 101.883 43.5415 101.645 43.4202C100.587 42.5708 100.399 42.1765 99.8162 41.3661C98.0676 43.0908 96.8301 43.6065 94.5615 43.6065C91.8803 43.6065 89.791 42.0075 89.791 38.8051C89.791 36.3048 91.1943 34.6017 93.1895 33.7697C94.9201 33.0331 97.3368 32.9031 99.184 32.6994V32.3007C99.184 31.5684 99.2423 30.7017 98.7984 30.069C98.4083 29.5014 97.6641 29.2674 97.0095 29.2674C95.7944 29.2674 94.7094 29.8697 94.4449 31.1177C94.3911 31.3951 94.1804 31.6681 93.8934 31.6811L90.7998 31.3604C90.5397 31.3041 90.2528 31.1004 90.3245 30.7147C91.0374 27.092 94.4225 26 97.4533 26C99.0046 26 101.031 26.3987 102.255 27.534C103.807 28.9337 103.659 30.8014 103.659 32.8337V37.6351C103.659 39.0781 104.277 39.7108 104.86 40.4908C105.066 40.7681 105.111 41.1018 104.851 41.3098C104.201 41.8341 103.044 42.8092 102.408 43.3552L102.399 43.3465Z" fill="#221F1F"/>
<path d="M57.393 35.8368V35.1694C55.0885 35.1694 52.6539 35.6461 52.6539 38.2721C52.6539 39.6025 53.3668 40.5038 54.5908 40.5038C55.4875 40.5038 56.29 39.9708 56.7967 39.1041C57.4244 38.0381 57.393 37.0371 57.393 35.8368ZM60.6077 43.3465C60.397 43.5285 60.0921 43.5415 59.8545 43.4202C58.7963 42.5708 58.608 42.1765 58.0252 41.3661C56.2766 43.0908 55.0391 43.6065 52.7705 43.6065C50.0893 43.6065 48 42.0075 48 38.8051C48 36.3048 49.4033 34.6017 51.3985 33.7697C53.1292 33.0331 55.5458 32.9031 57.393 32.6994V32.3007C57.393 31.5684 57.4513 30.7017 57.0074 30.069C56.6173 29.5014 55.8731 29.2674 55.2185 29.2674C54.0034 29.2674 52.9184 29.8697 52.6539 31.1177C52.6001 31.3951 52.3894 31.6681 52.1024 31.6811L49.0088 31.3604C48.7487 31.3041 48.4618 31.1004 48.5335 30.7147C49.2464 27.092 52.6315 26 55.6624 26C57.2137 26 59.2402 26.3987 60.4642 27.534C62.0155 28.9337 61.8676 30.8014 61.8676 32.8337V37.6351C61.8676 39.0781 62.4863 39.7108 63.0691 40.4908C63.2754 40.7681 63.3202 41.1018 63.0602 41.3098C62.4101 41.8341 61.2533 42.8092 60.6167 43.3552L60.6077 43.3465Z" fill="#221F1F"/>
</svg>
