<svg width="126" height="31" viewBox="0 0 126 31" fill="none" xmlns="http://www.w3.org/2000/svg">
<g clip-path="url(#clip0_27_4984)">
<path fill-rule="evenodd" clip-rule="evenodd" d="M1.10938 22.5033L5.55051 19.1016C7.90888 22.1806 10.4134 23.5995 13.2042 23.5995C15.9796 23.5995 18.4152 22.197 20.6679 19.1423L25.1702 22.4626C21.9223 26.8668 17.8814 29.1937 13.2042 29.1937C8.54251 29.1937 4.46417 26.8832 1.10938 22.5033Z" fill="url(#paint0_linear_27_4984)"/>
<path fill-rule="evenodd" clip-rule="evenodd" d="M13.19 7.71888L5.28551 14.5301L1.63379 10.2922L13.2057 0.320801L24.6877 10.2999L21.018 14.5223L13.19 7.71888Z" fill="url(#paint1_linear_27_4984)"/>
<path d="M55.4861 6.07129H51.0107V24.7186H55.4861V6.07129Z" fill="black"/>
<path fill-rule="evenodd" clip-rule="evenodd" d="M41.9663 24.8006C39.328 24.8006 37.1295 23.9457 35.3463 22.2357C33.563 20.5013 32.6836 18.2784 32.6836 15.5669C32.6836 12.8309 33.5875 10.5836 35.3707 8.82477C37.1784 7.0415 39.3769 6.16211 41.9907 6.16211C45.2151 6.16211 48.0733 7.55449 49.7342 9.7286L46.8273 12.7821C45.4349 11.292 43.9205 10.5347 42.2838 10.5347C40.8914 10.5347 39.7433 10.9988 38.7906 11.9515C37.8623 12.9042 37.3982 14.1012 37.3982 15.5425C37.3982 16.9348 37.8623 18.1074 38.7906 19.0601C39.7433 19.9884 40.8914 20.4525 42.2594 20.4525C44.0426 20.4525 45.606 19.6708 46.9006 18.1318L49.9299 21.0388C49.0994 22.138 47.9754 23.0418 46.583 23.7502C45.1909 24.4587 43.6518 24.8006 41.9663 24.8006Z" fill="black"/>
<path fill-rule="evenodd" clip-rule="evenodd" d="M62.1988 7.56281C62.1988 8.90166 61.1138 9.98698 59.7749 9.98698C58.436 9.98698 57.3506 8.90166 57.3506 7.56281C57.3506 6.224 58.436 5.13867 59.7749 5.13867C61.1138 5.13867 62.1988 6.224 62.1988 7.56281ZM62.0123 11.1058H57.537V24.7183H62.0123V11.1058Z" fill="black"/>
<path fill-rule="evenodd" clip-rule="evenodd" d="M70.6634 24.8254C68.5383 24.8254 66.8282 24.1658 65.4849 22.8467C64.1657 21.5276 63.5059 19.8421 63.5059 17.7657C63.5059 15.6894 64.1657 14.0038 65.509 12.6847C66.8528 11.3656 68.587 10.7061 70.7367 10.7061C73.5462 10.7061 76.013 12.074 77.1611 14.639L73.7168 16.4466C73.0329 15.2985 72.0804 14.7122 70.8345 14.7122C69.9308 14.7122 69.1977 15.0054 68.6116 15.5916C68.0496 16.1779 67.7565 16.9107 67.7565 17.7657C67.7565 19.549 69.0512 20.8681 70.7858 20.8681C72.0313 20.8681 73.1794 20.1841 73.6681 19.1337L77.1124 21.1856C75.9398 23.433 73.5216 24.8254 70.6634 24.8254Z" fill="black"/>
<path fill-rule="evenodd" clip-rule="evenodd" d="M82.7116 6.07129H78.2363V24.7186H82.7116V19.9715L83.2359 19.4824L87.3268 24.7186H92.533L86.2476 16.6739L92.2184 11.106H86.7499L82.7116 14.8721V6.07129Z" fill="black"/>
<path fill-rule="evenodd" clip-rule="evenodd" d="M93.3398 17.6721V6.07129H98.002V17.4124C98.002 19.4399 99.1835 20.417 100.892 20.417C102.576 20.417 103.782 19.391 103.782 17.4124V6.07129H108.444V17.6721C108.444 22.9974 104.705 25.0005 100.892 25.0005C97.1035 25.0005 93.3398 22.9974 93.3398 17.6721Z" fill="black"/>
<path fill-rule="evenodd" clip-rule="evenodd" d="M118.513 25.0914C122.118 25.0914 125.04 21.9189 125.04 18.0054C125.04 14.0919 122.118 10.9194 118.513 10.9194C117.044 10.9194 115.688 11.4465 114.597 12.336V11.1059H110.309V30.3126H114.597V23.6748C115.688 24.5643 117.044 25.0914 118.513 25.0914ZM114.597 18.0127V17.9981C114.601 16.2507 115.977 14.8354 117.674 14.8354C119.374 14.8354 120.751 16.2546 120.751 18.0054C120.751 19.7561 119.374 21.1754 117.674 21.1754C115.977 21.1754 114.601 19.7601 114.597 18.0127Z" fill="black"/>
</g>
<defs>
<linearGradient id="paint0_linear_27_4984" x1="1.10938" y1="31.0109" x2="25.1702" y2="31.0109" gradientUnits="userSpaceOnUse">
<stop stop-color="#8930FD"/>
<stop offset="1" stop-color="#49CCF9"/>
</linearGradient>
<linearGradient id="paint1_linear_27_4984" x1="1.63379" y1="17.0886" x2="24.6877" y2="17.0886" gradientUnits="userSpaceOnUse">
<stop stop-color="#FF02F0"/>
<stop offset="1" stop-color="#FFC800"/>
</linearGradient>
<clipPath id="clip0_27_4984">
<rect width="124.594" height="30.271" fill="white" transform="translate(0.760742 0.180664)"/>
</clipPath>
</defs>
</svg>
