<svg width="100" height="29" viewBox="0 0 100 29" fill="none" xmlns="http://www.w3.org/2000/svg">
<path d="M21.654 5.2586C21.6343 5.12059 21.516 5.04172 21.4174 5.04172C21.3188 5.04172 19.3669 5.00229 19.3669 5.00229C19.3669 5.00229 17.7304 3.42497 17.5727 3.24752C17.415 3.08979 17.0995 3.12922 16.9812 3.16866C16.9812 3.16866 16.6657 3.26724 16.1531 3.42497C16.0743 3.14894 15.9362 2.81376 15.7588 2.45886C15.187 1.35474 14.3195 0.763246 13.2942 0.763246C13.2154 0.763246 13.1562 0.763246 13.0773 0.782962C13.0379 0.743529 13.0182 0.704096 12.9788 0.68438C12.5253 0.211184 11.9535 -0.0254138 11.2634 -0.00569732C9.94243 0.0337356 8.62142 0.999843 7.53702 2.69546C6.78779 3.89817 6.21601 5.39662 6.03856 6.55989C4.52039 7.03309 3.4557 7.36827 3.41627 7.36827C2.64733 7.60486 2.62761 7.62458 2.52903 8.35409C2.4896 8.90615 0.478516 24.4625 0.478516 24.4625L17.3558 27.3805L24.6706 25.5666C24.6509 25.5666 21.6737 5.39662 21.654 5.2586ZM15.3053 3.701C14.911 3.8193 14.4772 3.95732 14.004 4.11505C14.004 3.44469 13.9054 2.4983 13.6097 1.70964C14.6152 1.86737 15.1081 3.01092 15.3053 3.701ZM13.1168 4.37136C12.2295 4.64739 11.2634 4.94314 10.2973 5.23889C10.5734 4.19391 11.086 3.16866 11.7169 2.47858C11.9535 2.22227 12.2887 1.94623 12.6633 1.7885C13.0576 2.55745 13.1365 3.64185 13.1168 4.37136ZM11.3029 0.881544C11.6183 0.881544 11.8746 0.940694 12.0915 1.09843C11.7366 1.27587 11.3817 1.5519 11.0663 1.9068C10.2185 2.81376 9.56781 4.21363 9.3115 5.57407C8.50312 5.83038 7.71446 6.06698 7.00467 6.28386C7.47787 4.13476 9.27207 0.940694 11.3029 0.881544Z" fill="#95BF47"/>
<path d="M21.418 5.04171C21.3195 5.04171 19.3675 5.00228 19.3675 5.00228C19.3675 5.00228 17.7311 3.42496 17.5733 3.24751C17.5142 3.18836 17.4353 3.14893 17.3564 3.14893V27.3805L24.6713 25.5666C24.6713 25.5666 21.6941 5.39661 21.6744 5.25859C21.6349 5.12057 21.5166 5.04171 21.418 5.04171Z" fill="#5E8E3E"/>
<path d="M13.294 8.8077L12.4462 11.982C12.4462 11.982 11.4998 11.5483 10.3759 11.6272C8.71977 11.7257 8.71976 12.7707 8.71976 13.027C8.81835 14.4466 12.5448 14.7621 12.7616 18.0942C12.9194 20.7165 11.3815 22.5107 9.13381 22.6487C6.45237 22.7867 4.97363 21.2094 4.97363 21.2094L5.54541 18.7842C5.54541 18.7842 7.04386 19.9081 8.22685 19.8292C8.9958 19.7898 9.29154 19.1391 9.25211 18.7054C9.13381 16.852 6.09747 16.9703 5.90031 13.9143C5.74258 11.3511 7.41848 8.76826 11.1252 8.53166C12.5645 8.43308 13.294 8.8077 13.294 8.8077Z" fill="white"/>
<path d="M34.5676 15.5704C33.7198 15.1169 33.286 14.7226 33.286 14.1903C33.286 13.5199 33.8972 13.0861 34.8436 13.0861C35.9478 13.0861 36.9336 13.5396 36.9336 13.5396L37.7025 11.1736C37.7025 11.1736 36.9927 10.6216 34.9028 10.6216C31.9848 10.6216 29.954 12.2975 29.954 14.6437C29.954 15.9845 30.9003 16.99 32.1622 17.7195C33.1875 18.2913 33.5424 18.7053 33.5424 19.3166C33.5424 19.9475 33.0297 20.4601 32.0833 20.4601C30.6835 20.4601 29.3427 19.7306 29.3427 19.7306L28.5146 22.0966C28.5146 22.0966 29.7371 22.9247 31.8073 22.9247C34.8042 22.9247 36.973 21.4459 36.973 18.7842C36.9533 17.3449 35.8689 16.3196 34.5676 15.5704Z" fill="black"/>
<path d="M46.516 10.5817C45.0372 10.5817 43.874 11.2914 42.9867 12.3561L42.9473 12.3364L44.2289 5.63281H40.8968L37.6436 22.7073H40.9756L42.0798 16.8712C42.5135 14.663 43.6571 13.3025 44.7218 13.3025C45.471 13.3025 45.7667 13.8152 45.7667 14.5447C45.7667 14.9981 45.7273 15.5699 45.6287 16.0234L44.3669 22.7073H47.699L49.0003 15.8065C49.1383 15.077 49.2368 14.2095 49.2368 13.618C49.2566 11.7252 48.2707 10.5817 46.516 10.5817Z" fill="black"/>
<path d="M56.8079 10.582C52.7858 10.582 50.124 14.2099 50.124 18.2517C50.124 20.8346 51.7211 22.9246 54.718 22.9246C58.6613 22.9246 61.323 19.3953 61.323 15.2548C61.3427 12.8691 59.9428 10.582 56.8079 10.582ZM55.1714 20.3811C54.0279 20.3811 53.5547 19.415 53.5547 18.1926C53.5547 16.2801 54.5405 13.1649 56.3544 13.1649C57.5374 13.1649 57.9317 14.1901 57.9317 15.176C57.9317 17.2265 56.9262 20.3811 55.1714 20.3811Z" fill="black"/>
<path d="M69.8796 10.582C67.6319 10.582 66.3504 12.5734 66.3504 12.5734H66.3109L66.5081 10.7792H63.5506C63.4126 11.9819 63.1366 13.8353 62.8803 15.2154L60.5537 27.4396H63.8858L64.8125 22.4908H64.8913C64.8913 22.4908 65.5814 22.9246 66.8433 22.9246C70.7668 22.9246 73.33 18.9024 73.33 14.8408C73.33 12.5931 72.3244 10.582 69.8796 10.582ZM66.6855 20.4206C65.818 20.4206 65.3054 19.9276 65.3054 19.9276L65.8574 16.8124C66.2518 14.7225 67.3362 13.3423 68.4995 13.3423C69.5247 13.3423 69.8402 14.2887 69.8402 15.176C69.8402 17.3448 68.5586 20.4206 66.6855 20.4206Z" fill="black"/>
<path d="M78.102 5.79102C77.0373 5.79102 76.1895 6.63882 76.1895 7.72323C76.1895 8.70906 76.8204 9.39913 77.7668 9.39913H77.8062C78.8512 9.39913 79.7384 8.68934 79.7581 7.46692C79.7581 6.50081 79.1075 5.79102 78.102 5.79102Z" fill="black"/>
<path d="M73.4297 22.6878H76.7618L79.0292 10.8579H75.6774L73.4297 22.6878Z" fill="black"/>
<path d="M87.5262 10.8382H85.1997L85.318 10.2862C85.5152 9.14262 86.1855 8.13708 87.3094 8.13708C87.9009 8.13708 88.374 8.31452 88.374 8.31452L89.0247 5.69223C89.0247 5.69223 88.4529 5.39648 87.2108 5.39648C86.0278 5.39648 84.8448 5.73167 83.9378 6.50061C82.7943 7.46672 82.2619 8.86659 82.0056 10.2862L81.907 10.8382H80.3494L79.8565 13.3619H81.4141L79.6396 22.7076H82.9717L84.7462 13.3619H87.053L87.5262 10.8382Z" fill="black"/>
<path d="M95.5705 10.8579C95.5705 10.8579 93.4806 16.1222 92.5539 19.0008H92.5145C92.4553 18.0741 91.6864 10.8579 91.6864 10.8579H88.1768L90.1879 21.7217C90.2273 21.9583 90.2076 22.116 90.109 22.2738C89.7147 23.023 89.0641 23.7525 88.2951 24.2848C87.6642 24.7383 86.9544 25.0341 86.4023 25.2312L87.329 28.0704C87.9994 27.9324 89.419 27.3606 90.602 26.2565C92.1201 24.8369 93.5397 22.6287 94.979 19.6317L99.0603 10.8579H95.5705Z" fill="black"/>
</svg>
