<svg width="108" height="36" viewBox="0 0 108 36" fill="none" xmlns="http://www.w3.org/2000/svg">
<path d="M13.9044 16.7258V12.9556H26.3802C26.5232 13.7241 26.5921 14.5046 26.5858 15.2862C26.5858 18.0282 25.8318 21.5241 23.3641 23.9233C20.9649 26.4596 17.9487 27.7621 13.8358 27.7621C6.36407 27.7621 0.0576172 21.6612 0.0576172 14.1895C0.0576172 6.71769 6.36407 0.54834 13.8358 0.54834C18.0173 0.54834 20.9649 2.1935 23.227 4.3185L20.5536 6.92334C19.161 5.59435 17.4057 4.70808 15.5095 4.37658C13.6134 4.04509 11.6615 4.28325 9.90062 5.06095C8.13978 5.83866 6.64906 7.12099 5.61692 8.74582C4.58479 10.3707 4.05759 12.265 4.10197 14.1895C4.10197 19.6733 8.42052 24.0604 13.8358 24.0604C17.4004 24.0604 19.4568 22.6209 20.7592 21.3185C21.7875 20.2903 22.4729 18.7822 22.7471 16.7258H13.9044Z" fill="#4285F4"/>
<path d="M45.573 18.9881C45.573 24.0606 41.5972 27.7623 36.7302 27.7623C31.8633 27.7623 27.9561 24.0606 27.9561 18.9881C27.9561 13.9155 31.9319 10.2139 36.7302 10.2139C41.5286 10.2139 45.573 13.9155 45.573 18.9881ZM41.6657 18.9881C41.6657 15.8348 39.4036 13.7098 36.7302 13.7098C34.0569 13.7098 31.7948 15.8348 31.7948 18.9881C31.7948 22.1413 34.1254 24.3348 36.7302 24.3348C39.3351 24.3348 41.6657 22.1413 41.6657 18.9881Z" fill="#EA4335"/>
<path d="M64.7673 18.9881C64.7673 24.0606 60.7915 27.7623 55.9246 27.7623C51.0576 27.7623 47.1504 24.0606 47.1504 18.9881C47.1504 13.9155 51.1262 10.2139 55.9246 10.2139C60.723 10.2139 64.7673 13.9155 64.7673 18.9881ZM60.8601 18.9881C60.8601 15.8348 58.598 13.7098 55.9246 13.7098C53.2512 13.7098 50.9891 15.8348 50.9891 18.9881C50.9891 22.1413 53.3197 24.3348 55.9246 24.3348C58.5294 24.3348 60.8601 22.1413 60.8601 18.9881Z" fill="#FBBC04"/>
<path d="M83.1381 10.7623V26.5284C83.1381 32.9719 79.2994 35.6453 74.7752 35.6453C70.5252 35.6453 67.9889 32.7663 67.0292 30.4356L70.3881 29.0647C71.005 30.5042 72.4446 32.2179 74.7752 32.2179C77.7228 32.2179 79.505 30.3671 79.505 27.0768V25.7744H79.3679C78.7846 26.4276 78.0646 26.9444 77.2589 27.288C76.4533 27.6316 75.5819 27.7935 74.7067 27.7623C70.3881 27.7623 66.3438 23.9235 66.3438 19.0566C66.3438 14.1211 70.3881 10.2139 74.7067 10.2139C76.8317 10.2139 78.4768 11.1735 79.3679 12.2018H79.505V10.7623H83.1381ZM79.7792 19.0566C79.7792 15.9719 77.7228 13.7098 75.0494 13.7098C72.4446 13.7098 70.1825 15.9719 70.1825 19.0566C70.1825 22.0727 72.4446 24.3348 75.0494 24.3348C77.7228 24.3348 79.7792 22.0727 79.7792 19.0566Z" fill="#4285F4"/>
<path d="M85.8115 1.57666H89.6502V27.2823H85.8115V1.57666Z" fill="#34A853"/>
<path d="M104.525 21.8671L107.541 23.9235C106.582 25.2945 104.251 27.7623 100.207 27.7623C95.2026 27.7623 91.501 23.9235 91.501 18.9881C91.501 13.7784 95.2711 10.2139 99.7953 10.2139C104.32 10.2139 106.582 13.8469 107.267 15.8348L107.678 16.7945L95.9566 21.6614C96.8478 23.4437 98.2187 24.3348 100.207 24.3348C102.195 24.3348 103.497 23.3752 104.525 21.8671ZM95.3397 18.7139L103.154 15.4921C102.743 14.3953 101.44 13.6413 99.9324 13.6413C97.9445 13.6413 95.2026 15.355 95.3397 18.7139Z" fill="#EA4335"/>
</svg>
