<svg width="178" height="36" viewBox="0 0 178 36" fill="none" xmlns="http://www.w3.org/2000/svg">
<path fill-rule="evenodd" clip-rule="evenodd" d="M48.9933 6.55263C50.302 6.29455 51.6291 6.29455 52.9193 6.55263L52.9748 6.57113V28.1928L52.9193 28.2113C51.6106 28.4694 50.302 28.4694 48.9933 28.2113L48.9378 28.1928V19.4186H40.0348V28.1928L39.9795 28.2113C39.3161 28.3404 38.6709 28.4139 38.0072 28.4139C37.3435 28.4139 36.6985 28.3404 36.0533 28.2113L35.998 28.1928V6.57092L36.0533 6.55242C37.3437 6.27606 38.6709 6.27606 39.9795 6.55242L40.0348 6.57092V15.9716H48.9378V6.57113L48.9933 6.55263ZM62.8362 12.6355C65.1219 12.6355 67.0022 13.3728 68.2371 14.7369C69.638 16.3037 70.2094 18.6261 69.8961 21.4833V21.5568H59.0575C59.0945 24.4694 60.3663 25.8704 62.9284 25.8704C64.7715 25.8704 66.0251 24.9671 66.2832 23.4556V23.4003H66.3385C67.5366 23.2343 68.5504 23.3081 69.638 23.6767L69.6933 23.6952V23.7505C69.4167 26.2945 67.205 28.8563 62.8916 28.8563C60.3663 28.8563 58.4308 28.0638 57.1589 26.534C55.9792 25.1146 55.3893 23.1053 55.3893 20.5247C55.3893 15.5847 58.1727 12.6355 62.8362 12.6355V12.6355ZM62.7626 15.4374C60.4769 15.4374 59.1312 16.8383 59.0207 19.2896H66.2279C66.2832 18.0917 65.9884 17.0962 65.3432 16.4142C64.7347 15.769 63.85 15.4374 62.7624 15.4374H62.7626ZM72.5504 6.55263C73.767 6.27627 75.0204 6.27627 76.2368 6.55263L76.2923 6.57113V28.1928L76.2368 28.2113C75.6286 28.3404 75.0019 28.4139 74.3937 28.4139C73.7855 28.4139 73.1586 28.3404 72.5504 28.2113L72.4951 28.1928V6.57092L72.5504 6.55263ZM86.9464 12.6355C91.3703 12.6355 93.8955 15.6032 93.8955 20.7645C93.8955 25.8151 91.3518 28.838 87.0939 28.838C85.5639 28.838 84.2 28.4324 82.9096 27.6214V34.8287L82.8544 34.8471C82.2459 34.9762 81.6192 35.0497 81.011 35.0497C80.4028 35.0497 79.7759 34.9762 79.1679 34.8471L79.1124 34.8287V13.3175L79.1677 13.2992C80.071 13.0226 80.8267 13.0226 81.7485 13.2992L81.7853 13.3175L82.0064 14.4603C83.6099 13.2624 85.3244 12.6355 86.9464 12.6355V12.6355ZM82.8544 16.8934V24.6168C83.9419 25.3727 85.011 25.7411 86.1354 25.7411C88.7712 25.7411 90.1721 24.027 90.1721 20.8198C90.1721 17.5386 88.7527 15.7507 86.1721 15.7507C85.0478 15.7507 83.997 16.1193 82.8544 16.8936V16.8934ZM110.116 16.5432C113.121 17.7046 116.236 18.9027 116.255 22.5339C116.218 28.0085 111.056 28.838 107.923 28.838C104.734 28.838 102.246 28.0085 100.734 26.3863C99.6098 25.1884 99.0752 23.6399 99.1857 21.8889V21.8336L99.241 21.8151C100.531 21.52 101.859 21.5018 103.167 21.7598L103.222 21.7781V21.8336C103.112 22.8104 103.352 23.6032 103.923 24.2298C104.697 25.0776 106.061 25.5385 107.849 25.5385C109.471 25.5385 110.688 25.1882 111.388 24.4694C111.867 23.9718 112.107 23.3266 112.089 22.5156C112.052 20.9488 110.301 20.3589 107.388 19.3451C106.799 19.1423 106.117 18.9027 105.416 18.6446L105.084 18.5341C102.946 17.7599 99.3517 16.4695 99.3885 12.5802C99.4438 8.67252 102.596 6.33154 107.831 6.33154H107.923C110.743 6.35004 112.973 7.12406 114.356 8.59875C115.48 9.77838 116.033 11.3636 115.941 13.1702V13.2254L115.886 13.2437C114.485 13.5571 113.195 13.5941 111.923 13.336L111.868 13.3175V13.2624C111.941 12.1933 111.683 11.3268 111.093 10.7004C110.411 9.94462 109.25 9.5575 107.757 9.5575C106.246 9.5575 104.992 9.96311 104.273 10.7186C103.776 11.2165 103.536 11.8615 103.555 12.5989C103.61 14.1842 105.379 14.8292 108.31 15.88C108.881 16.0828 109.471 16.3039 110.116 16.5434V16.5432ZM125.711 15.7507C123.056 15.7507 121.821 17.336 121.821 20.7275C121.821 24.1191 123.056 25.7043 125.711 25.7043C126.393 25.7043 128.678 25.5383 129.028 23.179V23.1238H129.084C130.3 22.9027 131.443 22.9762 132.476 23.3266L132.531 23.3451V23.4003C132.402 24.8013 131.775 26.1099 130.743 27.0685C129.508 28.2296 127.738 28.838 125.637 28.838C120.771 28.838 118.08 25.9624 118.08 20.746C118.08 15.5109 120.789 12.617 125.71 12.617C127.775 12.617 129.526 13.2069 130.743 14.3313C131.812 15.3083 132.457 16.6908 132.568 18.2022V18.2575L132.512 18.276C131.425 18.5891 130.282 18.6631 129.084 18.4788H129.028V18.4233C128.899 17.428 128.31 15.7507 125.711 15.7507ZM141.895 12.6355C146.742 12.6355 149.397 15.5111 149.397 20.7645C149.397 25.9807 146.742 28.8563 141.895 28.8563C137.065 28.8563 134.392 25.9809 134.392 20.7643C134.392 15.5294 137.047 12.6355 141.895 12.6355V12.6355ZM145.747 20.746C145.747 17.3912 144.494 15.7505 141.895 15.7505C139.259 15.7505 138.042 17.336 138.042 20.746C138.042 24.1008 139.296 25.7228 141.895 25.7228C144.494 25.7228 145.747 24.0823 145.747 20.746ZM161.526 13.3175C162.76 13.0043 163.996 13.0043 165.212 13.3175L165.267 13.336V28.1928L165.212 28.2113C164.327 28.4509 163.406 28.4509 162.521 28.2113L162.484 28.1928L162.115 26.4968C160.383 28.1006 158.779 28.8195 156.917 28.8195C153.47 28.8195 151.48 26.7181 151.48 23.0317V13.336L151.535 13.3175C152.752 13.0226 154.005 13.0226 155.222 13.3175L155.277 13.336V22.1837C155.277 24.6168 156.051 25.6493 157.857 25.6493C159.148 25.6493 160.254 25.1699 161.47 24.1193V13.336L161.526 13.3175ZM176.88 25.2987C177.157 26.3495 177.157 27.3633 176.862 28.3404L176.843 28.3772H176.806C175.756 28.58 174.834 28.6905 174.023 28.6905C172.714 28.6905 171.719 28.4139 171.019 27.8425C169.728 26.7734 169.618 24.8933 169.618 23.05L169.581 16.4327H167.682L167.664 16.3774C167.424 15.3451 167.424 14.313 167.664 13.2992L167.682 13.2437H169.581L169.544 9.1519L169.599 9.13319C170.816 8.85683 172.069 8.85683 173.286 9.13319L173.341 9.15169V13.2437H176.345L176.364 13.2992C176.567 14.313 176.567 15.3451 176.364 16.3591L176.345 16.4142H173.341V23.3081C173.341 24.2298 173.544 24.8196 173.949 25.1514C174.466 25.557 175.313 25.5938 176.788 25.2437L176.862 25.2252L176.88 25.2987Z" fill="#213743"/>
<path fill-rule="evenodd" clip-rule="evenodd" d="M12.5844 10.4119L2.45421 20.7596C1.18821 19.466 0.396742 17.6877 0.238281 15.5856C0.238281 13.6456 1.188 11.7054 2.45421 10.4119L12.7428 0.0644531C14.009 1.35799 14.8003 3.29798 14.8003 5.23818C14.8003 7.17838 13.8508 9.11858 12.5846 10.4119H12.5844ZM17.0406 24.7394L27.2817 14.3917C28.562 15.8469 29.3623 17.6255 29.3623 19.5654C29.3623 21.5056 28.4019 23.4458 27.122 24.7394L16.8805 35.0868C15.6004 33.7933 14.8003 31.8531 14.8003 29.9131C14.8003 27.9729 15.7603 26.0327 17.0406 24.7394V24.7394ZM16.7895 10.4119L19.8132 7.38728L27.2933 0.0644531C28.5664 1.33802 29.3621 3.24838 29.3621 5.15874C29.3621 7.0691 28.4073 8.97924 27.134 10.2528L19.8132 17.5756L16.7895 20.6003L12.4927 24.8985L9.46894 27.9231L2.30731 35.0868C1.03395 33.8133 0.238281 31.9029 0.238281 29.9925C0.238281 28.0822 1.19325 26.1718 2.4664 24.8985L9.62803 17.7347L12.4925 14.7101L16.7895 10.4119Z" fill="#1292EE"/>
</svg>
