<svg width="110" height="19" viewBox="0 0 110 19" fill="none" xmlns="http://www.w3.org/2000/svg">
<path d="M8.27174 5.54359H10.0179C11.1092 5.54359 12.2441 5.76185 12.2441 7.02778C12.2441 8.1191 11.5457 8.90485 9.49402 8.90485H7.5733L8.27174 5.54359ZM0.588867 17.8973H5.65258L6.70025 12.8772H10.1488C14.5141 12.8772 17.3515 9.99617 17.3515 6.63491C17.3515 2.96808 15.3871 1.26562 12.3314 1.26562H4.08108L0.588867 17.8973Z" fill="#004B8D"/>
<path d="M23.5935 6.98413L24.2047 11.9605H21.018L23.5935 6.98413ZM12.6367 17.8973H17.875L19.141 15.5401H24.5539L24.8158 17.8973H29.8359L27.304 1.26562H22.2403L12.6367 17.8973Z" fill="#004B8D"/>
<path d="M31.975 11.7859L28.3955 1.26562H33.5465L35.118 7.46431L39.1777 1.26562H45.2018L37.0824 11.7423L35.8165 17.8973H30.7091L31.975 11.7859Z" fill="#004B8D"/>
<path d="M57.4249 11.5677C57.1194 13.2701 55.8098 18.2902 48.869 18.2902C44.0236 18.2902 41.71 15.1472 41.71 10.6946C41.71 5.32533 45.0712 0.829102 50.7461 0.829102C54.4566 0.829102 57.7742 2.44425 57.8615 7.42066H53.016C53.0597 5.84916 52.3176 4.97611 50.7461 4.97611C47.9086 4.97611 46.861 8.25006 46.861 10.6073C46.861 12.0042 47.2102 14.0995 49.5674 14.0995C51.1826 14.0995 52.0993 13.0082 52.4049 11.524L57.4249 11.5677Z" fill="#004B8D"/>
<path d="M60.3929 1.26562H65.5439L64.3216 7.02778H68.9925L70.2148 1.26562H75.3658L71.8736 17.8973H66.7662L68.1194 11.3057H63.4486L62.0517 17.8973H56.9443L60.3929 1.26562Z" fill="#004B8D"/>
<path d="M76.7188 1.26562H90.4694L89.5963 5.54359H80.9531L80.5166 7.59527H88.5487L87.7193 11.5677H79.6872L79.2506 13.6193H88.0685L87.1954 17.8973H73.2266L76.7188 1.26562Z" fill="#004B8D"/>
<path d="M94.0056 9.07946L90.1642 1.26562H95.7517L97.3669 5.58724L100.685 1.26562H106.752L99.8114 9.07946L103.871 17.8973H98.109L96.2756 13.2701L92.3905 17.8973H86.1045L94.0056 9.07946Z" fill="#004B8D"/>
<path d="M107.407 2.00763C107.407 1.39649 107.843 0.91631 108.454 0.91631C109.022 0.91631 109.502 1.39649 109.502 2.00763C109.502 2.61877 109.066 3.09895 108.454 3.09895C107.887 3.09895 107.407 2.61877 107.407 2.00763ZM107.188 2.00763C107.188 2.74972 107.756 3.27356 108.454 3.27356C109.153 3.27356 109.72 2.74972 109.72 2.00763C109.72 1.30918 109.153 0.741699 108.454 0.741699C107.756 0.741699 107.188 1.30918 107.188 2.00763ZM107.974 2.74972H108.192V2.13859H108.411L108.804 2.79338H109.066L108.629 2.13859C108.847 2.13859 109.022 2.00763 109.022 1.74571C109.022 1.44014 108.847 1.30918 108.498 1.30918H107.974V2.74972ZM108.192 1.4838H108.498C108.673 1.4838 108.804 1.52745 108.804 1.70206C108.804 1.92032 108.629 1.96397 108.411 1.96397H108.192V1.4838V1.4838Z" fill="#004B8D"/>
</svg>
