<svg width="122" height="41" viewBox="0 0 122 41" fill="none" xmlns="http://www.w3.org/2000/svg">
<path d="M107.297 31.9182C107.297 31.6155 107.044 31.4641 106.742 31.4641H106.237V32.9777H106.489V32.3723H106.691L107.044 32.9777H107.347L106.944 32.3218C107.145 32.2714 107.297 32.12 107.297 31.9182ZM106.439 32.12V31.7164H106.691C106.843 31.7164 106.994 31.7669 106.994 31.9182C106.994 32.12 106.792 32.12 106.641 32.12H106.439ZM106.691 30.9092C105.935 30.9092 105.329 31.5146 105.329 32.2714C105.329 33.0281 105.935 33.5831 106.691 33.5831C107.448 33.5831 108.053 32.9777 108.053 32.2714C108.053 31.5146 107.448 30.9092 106.691 30.9092ZM106.691 33.3813C106.086 33.3813 105.581 32.8768 105.581 32.2714C105.581 31.666 106.086 31.1614 106.691 31.1614C107.297 31.1614 107.801 31.666 107.801 32.2714C107.852 32.8768 107.347 33.3813 106.691 33.3813Z" fill="#0077C5"/>
<path d="M15.2725 15.2184H19.8131V33.381H15.2725V15.2184ZM34.4441 14.6635C31.7701 14.6635 29.6007 16.2779 28.7935 18.0942H28.6926V15.168H24.4042V33.3306H28.9448V23.3916C28.9448 20.9699 30.307 18.4473 33.1828 18.4473C36.109 18.4473 36.6135 21.1213 36.6135 23.2907V33.381H41.1541V22.0294C41.1541 18.3464 39.1865 14.6635 34.4441 14.6635ZM73.5441 25.2079C73.5441 27.6295 72.1819 30.1521 69.3061 30.1521C66.3799 30.1521 65.8754 27.4782 65.8754 25.3088V15.2184H61.3348V26.5701C61.3348 30.253 63.3024 33.8855 68.0449 33.8855C70.7188 33.8855 72.8882 32.2711 73.6954 30.4548H73.7963V33.381H78.0847V15.2184H73.5441C73.5441 15.2184 73.5441 25.2079 73.5441 25.2079ZM82.7263 33.381H87.2669V15.2184H82.7263V33.381ZM43.4749 19.2041H48.5705V33.381H53.1112V19.2041H58.2068V15.168H43.4749V19.2041ZM50.8409 12.8472C52.3544 12.8472 53.5652 11.6364 53.5652 10.1228C53.5652 8.60928 52.3544 7.39844 50.8409 7.39844C49.3273 7.39844 48.1165 8.60928 48.1165 10.1228C48.1165 11.6364 49.3273 12.8472 50.8409 12.8472ZM90.4454 15.2184V19.2546H95.541V33.4315H100.082V19.2041H105.177V15.168H90.4454V15.2184ZM97.8113 12.8472C99.3249 12.8472 100.536 11.6364 100.536 10.1228C100.536 8.60928 99.3249 7.39844 97.8113 7.39844C96.2978 7.39844 95.0869 8.60928 95.0869 10.1228C95.0869 11.5859 96.2978 12.8472 97.8113 12.8472Z" fill="#0077C5"/>
</svg>
