<svg width="191" height="29" viewBox="0 0 191 29" fill="none" xmlns="http://www.w3.org/2000/svg">
<path fill-rule="evenodd" clip-rule="evenodd" d="M47.1236 8.64317C45.1907 8.63733 43.317 9.31005 41.8292 10.544V8.83453H36.9941V27.6646H42.0206V15.6343C42.5612 14.9309 43.2514 14.3565 44.0413 13.9527C44.8313 13.549 45.7011 13.3259 46.5878 13.2997C47.2736 13.2622 47.9598 13.3665 48.6035 13.6058V8.77074C48.1151 8.68341 47.6198 8.64071 47.1236 8.64317" fill="#293E40"/>
<path fill-rule="evenodd" clip-rule="evenodd" d="M3.28825 21.9241C4.71602 23.1279 6.52371 23.7877 8.39126 23.7867C9.74356 23.7867 10.7897 23.1233 10.7897 22.192C10.828 19.3598 1.74459 20.406 1.74459 14.3079C1.74459 10.6975 5.2274 8.45216 8.93984 8.45216C11.206 8.44961 13.4235 9.1104 15.3186 10.353L12.9202 14.0272C11.8793 13.2447 10.6239 12.7995 9.32256 12.7514C7.93199 12.7514 6.77106 13.3 6.77106 14.2696C6.77106 16.719 15.8544 15.7495 15.8544 22.2686C15.8544 25.8407 12.3333 28.0605 8.39126 28.0605C5.67322 28.0184 3.03659 27.1261 0.851562 25.509L3.28825 21.9241Z" fill="#293E40"/>
<path fill-rule="evenodd" clip-rule="evenodd" d="M34.851 18.0713C34.851 12.828 31.1768 8.45215 25.9845 8.45215C20.4222 8.45215 16.8629 13.0321 16.8629 18.2627C16.8046 19.567 17.0191 20.8692 17.4925 22.0859C17.9659 23.3027 18.6879 24.4074 19.6123 25.3294C20.5367 26.2514 21.6433 26.9705 22.8613 27.4408C24.0793 27.911 25.382 28.1221 26.6862 28.0605C28.1275 28.0714 29.5549 27.777 30.8742 27.1965C32.1936 26.616 33.375 25.7626 34.3407 24.6925L31.4702 21.7965C30.8704 22.4587 30.1433 22.9932 29.3323 23.3681C28.5212 23.7429 27.643 23.9504 26.7499 23.9781C25.4893 24.0292 24.257 23.5945 23.3075 22.7637C22.358 21.9329 21.7636 20.7692 21.6469 19.5129H34.7234C34.8072 19.0369 34.8499 18.5546 34.851 18.0713ZM21.9659 15.826C22.1469 14.8938 22.6472 14.0539 23.3807 13.4508C24.1141 12.8478 25.0349 12.5192 25.9845 12.5218C26.9007 12.5219 27.785 12.8584 28.4694 13.4676C29.1538 14.0767 29.5906 14.916 29.6969 15.826H21.9659Z" fill="#293E40"/>
<path fill-rule="evenodd" clip-rule="evenodd" d="M60.5827 20.329L65.724 8.83447H70.9546L62.3178 27.6646H58.8477L50.2236 8.83447H55.4415L60.5827 20.329Z" fill="#293E40"/>
<path fill-rule="evenodd" clip-rule="evenodd" d="M75.1644 -0.00643248C75.8005 0.0036257 76.4195 0.201439 76.9435 0.562158C77.4675 0.922876 77.8733 1.43041 78.1098 2.021C78.3462 2.61159 78.4029 3.2589 78.2727 3.88161C78.1424 4.50431 77.8311 5.07464 77.3777 5.52095C76.9244 5.96725 76.3492 6.26963 75.7245 6.39009C75.0999 6.51055 74.4535 6.44372 73.8667 6.19799C73.2799 5.95227 72.7788 5.53862 72.4264 5.00899C72.0739 4.47937 71.8858 3.8574 71.8857 3.22122C71.8857 2.79303 71.9708 2.36911 72.1362 1.97415C72.3016 1.57919 72.5439 1.22108 72.8491 0.920693C73.1542 0.620301 73.5161 0.383626 73.9136 0.224455C74.3111 0.0652841 74.7363 -0.0132023 75.1644 -0.00643248" fill="#293E40"/>
<path d="M77.6769 8.83447H72.6504V27.6646H77.6769V8.83447Z" fill="#293E40"/>
<path fill-rule="evenodd" clip-rule="evenodd" d="M98.4721 23.8245C97.5205 25.1851 96.2431 26.2856 94.7567 27.0255C93.2702 27.7654 91.6221 28.121 89.9628 28.06C87.3643 28.06 84.8722 27.0277 83.0347 25.1903C81.1973 23.3528 80.165 20.8607 80.165 18.2622C80.165 15.6637 81.1973 13.1716 83.0347 11.3341C84.8722 9.49668 87.3643 8.46442 89.9628 8.46442C91.4836 8.45914 92.9855 8.80117 94.3541 9.46444C95.7226 10.1277 96.9216 11.0947 97.8597 12.2917L94.3387 15.3025C93.8403 14.6164 93.1887 14.0562 92.4356 13.6664C91.6826 13.2766 90.849 13.068 90.0011 13.0571C89.3256 13.0571 88.6567 13.1912 88.0334 13.4516C87.4101 13.712 86.8447 14.0936 86.37 14.5742C85.8953 15.0549 85.5207 15.625 85.2681 16.2515C85.0154 16.878 84.8896 17.5484 84.8981 18.2239C84.8781 18.906 84.999 19.5849 85.2533 20.2181C85.5075 20.8514 85.8896 21.4254 86.3757 21.9043C86.8618 22.3832 87.4414 22.7567 88.0784 23.0015C88.7153 23.2463 89.3959 23.3571 90.0776 23.3269C90.9723 23.31 91.8492 23.0744 92.6319 22.6408C93.4147 22.2072 94.0794 21.5887 94.5683 20.8392L98.4721 23.8245Z" fill="#293E40"/>
<path fill-rule="evenodd" clip-rule="evenodd" d="M116.728 24.6797C115.763 25.7498 114.581 26.6032 113.262 27.1837C111.942 27.7642 110.515 28.0587 109.074 28.0477C107.771 28.1072 106.47 27.8952 105.254 27.425C104.038 26.9548 102.933 26.2368 102.009 25.3166C101.085 24.3964 100.363 23.2941 99.888 22.0797C99.4131 20.8654 99.1959 19.5655 99.2504 18.2627C99.2504 13.0321 102.81 8.45215 108.385 8.45215C113.564 8.45215 117.239 12.828 117.239 18.0713C117.241 18.5543 117.203 19.0365 117.124 19.5129H104.085C104.202 20.7692 104.797 21.9329 105.746 22.7637C106.696 23.5945 107.928 24.0292 109.189 23.9781C110.082 23.9504 110.96 23.7429 111.771 23.3681C112.582 22.9932 113.309 22.4587 113.909 21.7965L116.728 24.6797ZM112.059 15.826C111.935 14.9235 111.493 14.095 110.812 13.4893C110.132 12.8837 109.257 12.5406 108.347 12.5218C107.395 12.5162 106.471 12.8434 105.735 13.4468C104.999 14.0501 104.497 14.8917 104.315 15.826H112.059Z" fill="#293E40"/>
<path fill-rule="evenodd" clip-rule="evenodd" d="M119.191 27.6646V8.83449H124.027V10.3526C125.517 9.11487 127.396 8.44185 129.334 8.45177C130.572 8.4482 131.795 8.71725 132.917 9.2398C134.04 9.76235 135.033 10.5256 135.827 11.4753C137.103 12.9552 137.766 14.856 137.766 18.0709V27.6646H132.727V17.6882C132.797 17.0544 132.734 16.4131 132.543 15.8048C132.352 15.1965 132.037 14.6345 131.617 14.1544C130.849 13.4449 129.83 13.0687 128.785 13.1083C127.901 13.1339 127.034 13.3556 126.247 13.7571C125.459 14.1586 124.771 14.7301 124.231 15.4301V27.6646H119.191Z" fill="#293E40"/>
<path fill-rule="evenodd" clip-rule="evenodd" d="M150.702 8.45216C148.498 8.44958 146.343 9.10901 144.517 10.3451C142.691 11.5811 141.279 13.3368 140.462 15.3848C139.646 17.4328 139.463 19.6788 139.938 21.8319C140.412 23.9849 141.522 25.9459 143.124 27.4609C143.501 27.8198 143.993 28.0324 144.512 28.0605C145.031 28.0886 145.544 27.9302 145.957 27.614C147.311 26.6044 148.955 26.0591 150.645 26.0591C152.334 26.0591 153.979 26.6044 155.333 27.614C155.75 27.9295 156.265 28.0861 156.786 28.0557C157.308 28.0253 157.801 27.8099 158.178 27.4481C159.769 25.9384 160.873 23.9877 161.348 21.8464C161.824 19.705 161.648 17.4706 160.845 15.4295C160.042 13.3885 158.647 11.6339 156.84 10.3907C155.033 9.14755 152.896 8.47251 150.702 8.45216V8.45216ZM150.702 24.9476C149.978 24.967 149.258 24.8386 148.585 24.5704C147.913 24.3022 147.301 23.8998 146.789 23.3876C146.277 22.8755 145.875 22.2645 145.607 21.5917C145.338 20.919 145.21 20.1986 145.229 19.4747C145.194 18.7329 145.309 17.9915 145.568 17.2955C145.827 16.5996 146.225 15.9635 146.737 15.4258C147.25 14.8882 147.866 14.4602 148.548 14.1677C149.231 13.8753 149.966 13.7245 150.709 13.7245C151.451 13.7245 152.186 13.8753 152.869 14.1677C153.552 14.4602 154.168 14.8882 154.68 15.4258C155.192 15.9635 155.59 16.5996 155.849 17.2955C156.109 17.9915 156.224 18.7329 156.188 19.4747C156.207 20.1997 156.079 20.9212 155.81 21.5948C155.541 22.2684 155.137 22.8801 154.624 23.3924C154.11 23.9047 153.498 24.3068 152.823 24.5743C152.149 24.8417 151.427 24.9687 150.702 24.9476" fill="#81B5A1"/>
<path fill-rule="evenodd" clip-rule="evenodd" d="M171.561 27.6646H167.81L160.347 8.83447H165.36L169.456 19.6018L173.474 8.83447H177.671L181.652 19.6018L185.772 8.83447H190.799L183.323 27.6646H179.585L175.566 16.9483L171.561 27.6646Z" fill="#293E40"/>
<path d="M188.043 25.2788V25.687H187.405V27.6645H186.945V25.687H186.308V25.2788H188.043Z" fill="#293E40"/>
<path d="M189.6 26.7077L190.467 25.2788H190.799V27.6645H190.34V26.3249L189.765 27.269H189.434L188.872 26.3249V27.6645H188.4V25.2788H188.732L189.6 26.7077Z" fill="#293E40"/>
</svg>
