<svg width="141" height="71" viewBox="0 0 141 71" fill="none" xmlns="http://www.w3.org/2000/svg">
<path d="M3.30554 3.54272L30.2656 0.676186C33.5764 0.266196 34.4282 0.540819 36.509 2.72331L45.1149 11.4566C46.535 12.9584 47.0083 13.3673 47.0083 15.0044V62.9034C47.0083 65.9053 46.2509 67.6807 43.6029 67.9522L12.2943 70.682C10.3065 70.8188 9.36045 70.4099 8.31946 68.4981L1.98188 56.626C0.846254 54.4407 0.374023 52.8058 0.374023 50.8929V8.31713C0.374023 5.86224 1.13161 3.81456 3.30554 3.54272Z" fill="white"/>
<path fill-rule="evenodd" clip-rule="evenodd" d="M25.6392 16.0912L2.51447 17.7248C0.649815 17.8797 0 19.0467 0 20.4457V44.7088C0 45.799 0.405051 46.7306 1.37912 47.976L6.8151 54.7417C7.708 55.8312 8.51946 56.0642 10.2245 55.9863L37.079 54.4306C39.3503 54.2759 40 53.2641 40 51.5534V24.2566C40 23.3723 39.6352 23.1168 38.56 22.3638C38.5008 22.3224 38.4395 22.2794 38.376 22.2348L30.9944 17.2578C29.2096 16.0141 28.4789 15.8576 25.6392 16.0912ZM10.8326 23.8089C8.64027 23.9509 8.14211 23.9832 6.8971 23.0129L3.73103 20.6021C3.40812 20.2904 3.57008 19.9015 4.38079 19.8244L26.6111 18.2689C28.4767 18.113 29.45 18.7362 30.1807 19.2803L33.9934 21.9246C34.1558 22.0021 34.5607 22.4681 34.0738 22.4681L11.1157 23.7906C11.0199 23.7967 10.9273 23.8027 10.8374 23.8086L10.8343 23.8088L10.8326 23.8089ZM8.27545 51.3196V28.1457C8.27545 27.135 8.59999 26.668 9.57302 26.5895L35.9396 25.1125C36.8339 25.0347 37.2389 25.5794 37.2389 26.5895V49.608C37.2389 50.6196 37.0762 51.4763 35.6153 51.5534L10.3844 52.9539C8.9242 53.031 8.27545 52.5651 8.27545 51.3196ZM33.1834 29.3888C33.3452 30.0894 33.1834 30.7894 32.4518 30.8681L31.2361 31.1005V48.2089C30.1807 48.7531 29.2073 49.0643 28.3962 49.0643C27.0977 49.0643 26.7724 48.6752 25.7998 47.5094L17.8479 35.5333V47.1204L20.3642 47.6653C20.3642 47.6653 20.3642 49.0643 18.3341 49.0643L12.7374 49.3758C12.5748 49.0643 12.7374 48.2873 13.3051 48.1315L14.7656 47.7433V32.423L12.7378 32.2671C12.5752 31.5665 12.9802 30.5563 14.1168 30.4779L20.1207 30.0897L28.3962 42.2216V31.4893L26.2863 31.2569C26.1243 30.4005 26.7724 29.7786 27.5839 29.7015L33.1834 29.3888Z" fill="#000008"/>
<path d="M95.9522 46.6969H92.5242V31.6166H95.9522V46.6969Z" fill="#000008"/>
<path d="M96.2854 27.0677C96.2854 28.2119 95.3694 29.1217 94.2313 29.1217C93.107 29.1217 92.1772 28.2119 92.1772 27.0677C92.1772 25.9236 93.107 25 94.2313 25C95.3694 25 96.2854 25.9236 96.2854 27.0677Z" fill="#000008"/>
<path d="M50.4558 33.1602V46.6967H47V26.8055H50.1089L59.9352 40.3282H60.1712V26.8055H63.6131V46.6967H60.518L50.6918 33.1602H50.4558Z" fill="#000008"/>
<path fill-rule="evenodd" clip-rule="evenodd" d="M80.6375 39.1566C80.6375 44.0501 77.8756 47 73.3372 47C68.785 47 66.0369 44.0501 66.0369 39.1566C66.0369 34.2906 68.8266 31.3131 73.3372 31.3131C77.8618 31.3131 80.6375 34.2768 80.6375 39.1566ZM69.5621 39.1566C69.5621 42.3132 70.9361 44.1328 73.3372 44.1328C75.7382 44.1328 77.0984 42.3132 77.0984 39.1566C77.0984 36.0137 75.7244 34.1803 73.3372 34.1803C70.9361 34.1803 69.5621 36.0137 69.5621 39.1566Z" fill="#000008"/>
<path d="M83.7819 27.9218V31.7126H81.3809V34.4419H83.7819V42.6713C83.7819 45.5937 85.1697 46.7653 88.6534 46.7653C89.3196 46.7653 89.9579 46.6963 90.4577 46.5998V43.9256L90.4239 43.929C90.0267 43.9685 89.7642 43.9945 89.2918 43.9945C87.8485 43.9945 87.2099 43.3329 87.2099 41.8442V34.4419H90.4577V31.7126H87.2099V27.9218H83.7819Z" fill="#000008"/>
<path fill-rule="evenodd" clip-rule="evenodd" d="M105.354 47C109.893 47 112.655 44.0501 112.655 39.1566C112.655 34.2768 109.879 31.3131 105.354 31.3131C100.844 31.3131 98.054 34.2906 98.054 39.1566C98.054 44.0501 100.802 47 105.354 47ZM105.354 44.1328C102.953 44.1328 101.579 42.3132 101.579 39.1566C101.579 36.0137 102.953 34.1803 105.354 34.1803C107.742 34.1803 109.115 36.0137 109.115 39.1566C109.115 42.3132 107.755 44.1328 105.354 44.1328Z" fill="#000008"/>
<path d="M118.145 46.6967H114.703V31.6164H118.02V34.0287H118.256C118.978 32.347 120.505 31.3131 122.767 31.3131C126.154 31.3131 128 33.3395 128 36.9373V46.6967H124.558V37.7505C124.558 35.4486 123.586 34.2906 121.49 34.2906C119.436 34.2906 118.145 35.6966 118.145 37.916V46.6967Z" fill="#000008"/>
</svg>
