<svg width="141" height="71" viewBox="0 0 141 71" fill="none" xmlns="http://www.w3.org/2000/svg">
<rect width="140.387" height="70.1936" transform="translate(0 0.0322266)" fill="white"/>
<path d="M64.5749 16.8481C66.7347 14.6112 69.743 13.197 73.0598 13.197C77.4823 13.197 81.3133 15.6654 83.3703 19.3165C85.1444 18.5194 87.1242 18.0823 89.2069 18.0823C97.1776 18.0823 103.606 24.5874 103.606 32.6095C103.606 40.6317 97.1519 47.1368 89.2069 47.1368C88.2298 47.1368 87.2785 47.0339 86.3786 46.8539C84.5787 50.0679 81.1333 52.2535 77.1737 52.2535C75.5281 52.2535 73.9597 51.8678 72.5713 51.1993C70.7457 55.4932 66.4775 58.5272 61.5151 58.5272C56.347 58.5272 51.9246 55.2617 50.2276 50.6593C49.482 50.8136 48.7106 50.8907 47.9392 50.8907C41.7684 50.8907 36.7803 45.8512 36.7803 39.6032C36.7803 35.4378 39.0172 31.7868 42.3598 29.8326C41.6655 28.2642 41.2799 26.5158 41.2799 24.6645C41.2541 17.5423 47.0908 11.7314 54.2387 11.7314C58.4554 11.7314 62.2094 13.737 64.5749 16.8481" fill="#00A1E0"/>
<path d="M46.4488 36.0034L46.7316 35.2578C46.783 35.1292 46.8602 35.1807 46.9116 35.2064C46.9887 35.2578 47.0401 35.2835 47.143 35.3606C47.9401 35.8749 48.6857 35.8749 48.9171 35.8749C49.5085 35.8749 49.8942 35.5663 49.8942 35.1292V35.1035C49.8942 34.6407 49.3285 34.4607 48.66 34.255L48.5057 34.2036C47.6058 33.9465 46.6287 33.5608 46.6287 32.4295V32.4038C46.6287 31.3239 47.5029 30.5525 48.7628 30.5525H48.8914C49.637 30.5525 50.3313 30.7582 50.8455 31.0925C50.8969 31.1182 50.9483 31.1696 50.9226 31.2467C50.8969 31.3239 50.6655 31.9152 50.6398 31.9924C50.5884 32.1209 50.4598 32.0438 50.4598 32.0438C49.997 31.7867 49.3028 31.6067 48.7114 31.6067C48.1715 31.6067 47.8372 31.8895 47.8372 32.2752V32.3009C47.8372 32.738 48.4286 32.9437 49.0971 33.1494L49.2256 33.1751C50.1256 33.458 51.0769 33.8436 51.0769 34.9492V34.975C51.0769 36.1577 50.2284 36.8776 48.8657 36.8776C48.1972 36.8776 47.5544 36.7748 46.8602 36.4148C46.7316 36.3377 46.603 36.2863 46.4745 36.1834C46.4488 36.132 46.3973 36.1063 46.4488 36.0034V36.0034ZM66.504 36.0034L66.7869 35.2578C66.8383 35.1292 66.9411 35.1807 66.9669 35.2064C67.044 35.2578 67.0954 35.2835 67.1983 35.3606C67.9953 35.8749 68.741 35.8749 68.9724 35.8749C69.5638 35.8749 69.9494 35.5663 69.9494 35.1292V35.1035C69.9494 34.6407 69.3838 34.4607 68.7153 34.255L68.561 34.2036C67.6611 33.9465 66.684 33.5608 66.684 32.4295V32.4038C66.684 31.3239 67.5582 30.5525 68.8181 30.5525H68.9467C69.6923 30.5525 70.3865 30.7582 70.9008 31.0925C70.9522 31.1182 71.0036 31.1696 70.9779 31.2467C70.9522 31.3239 70.7208 31.9152 70.6951 31.9924C70.6437 32.1209 70.5151 32.0438 70.5151 32.0438C70.0523 31.7867 69.3581 31.6067 68.7667 31.6067C68.2267 31.6067 67.8925 31.8895 67.8925 32.2752V32.3009C67.8925 32.738 68.4839 32.9437 69.1524 33.1494L69.2809 33.1751C70.1808 33.458 71.1322 33.8436 71.1322 34.9492V34.975C71.1322 36.1577 70.2837 36.8776 68.921 36.8776C68.2525 36.8776 67.6097 36.7748 66.9154 36.4148C66.7869 36.3377 66.6583 36.2863 66.5298 36.1834C66.5298 36.132 66.4783 36.1063 66.504 36.0034V36.0034ZM81.3655 32.4809C81.4684 32.8666 81.5455 33.278 81.5455 33.7151C81.5455 34.1522 81.4941 34.5636 81.3655 34.9492C81.2627 35.3349 81.0827 35.6692 80.8513 35.952C80.6199 36.2348 80.3113 36.4662 79.9771 36.6205C79.6171 36.7748 79.2057 36.8519 78.7429 36.8519C78.2801 36.8519 77.8687 36.7748 77.5087 36.6205C77.1488 36.4662 76.8659 36.2348 76.6345 35.952C76.4031 35.6692 76.2231 35.3349 76.1203 34.9492C76.0174 34.5636 75.9403 34.1522 75.9403 33.7151C75.9403 33.278 75.9917 32.8666 76.1203 32.4809C76.2231 32.0952 76.4031 31.761 76.6345 31.4781C76.8659 31.1953 77.1745 30.9639 77.5087 30.8096C77.8687 30.6553 78.2801 30.5525 78.7429 30.5525C79.2057 30.5525 79.6171 30.6296 79.9771 30.8096C80.337 30.9639 80.6199 31.1953 80.8513 31.4781C81.0827 31.761 81.2627 32.0952 81.3655 32.4809ZM80.2085 33.6894C80.2085 33.0208 80.0799 32.5066 79.8485 32.1466C79.6171 31.7867 79.2314 31.6067 78.7429 31.6067C78.2287 31.6067 77.8687 31.7867 77.6373 32.1466C77.4059 32.5066 77.2773 33.0208 77.2773 33.6894C77.2773 34.3579 77.4059 34.8721 77.6373 35.2578C77.8687 35.6178 78.2287 35.7977 78.7429 35.7977C79.2571 35.7977 79.6171 35.6178 79.8485 35.2578C80.1056 34.8978 80.2085 34.3579 80.2085 33.6894ZM90.7761 35.6178L91.0589 36.3891C91.0846 36.492 91.0075 36.5177 91.0075 36.5177C90.5704 36.6977 89.979 36.8005 89.3876 36.8005C88.3849 36.8005 87.6392 36.5177 87.125 35.952C86.6108 35.3863 86.3536 34.615 86.3536 33.6636C86.3536 33.2265 86.4051 32.8152 86.5336 32.4295C86.6622 32.0438 86.8422 31.7095 87.0993 31.4267C87.3564 31.1439 87.6649 30.9125 88.0249 30.7582C88.3849 30.6039 88.822 30.5011 89.3105 30.5011C89.6448 30.5011 89.9276 30.5268 90.159 30.5525C90.4161 30.6039 90.7761 30.6811 90.9304 30.7582C90.9561 30.7582 91.0332 30.8096 91.0075 30.8868C90.9046 31.1953 90.8275 31.401 90.7247 31.6581C90.6732 31.7867 90.5961 31.7352 90.5961 31.7352C90.2104 31.6067 89.8505 31.5553 89.3876 31.5553C88.822 31.5553 88.3849 31.7352 88.1278 32.1209C87.8449 32.4809 87.6906 32.9694 87.6906 33.6379C87.6906 34.3579 87.8706 34.8721 88.1792 35.2064C88.4877 35.5406 88.9248 35.6949 89.4905 35.6949C89.7219 35.6949 89.9276 35.6692 90.1076 35.6435C90.2876 35.6178 90.4675 35.5663 90.6475 35.4892C90.6218 35.5406 90.7247 35.5149 90.7761 35.6178ZM96.6127 32.2495C96.8698 33.1237 96.7412 33.8693 96.7155 33.9208C96.7155 34.0236 96.6127 34.0236 96.6127 34.0236H92.7302C92.7559 34.615 92.8845 35.0264 93.193 35.3092C93.4758 35.592 93.9129 35.772 94.53 35.772C95.4556 35.772 95.8413 35.592 96.1242 35.4892C96.1242 35.4892 96.227 35.4635 96.2784 35.5663L96.5355 36.2863C96.587 36.4148 96.5355 36.4405 96.5098 36.4662C96.2784 36.5948 95.687 36.8519 94.5557 36.8519C94.0158 36.8519 93.5273 36.7748 93.1416 36.6205C92.7559 36.4662 92.4216 36.2606 92.1645 35.9777C91.9074 35.6949 91.7274 35.3606 91.5989 35.0007C91.4703 34.615 91.4189 34.2036 91.4189 33.7665C91.4189 33.3294 91.4703 32.918 91.5989 32.5323C91.7017 32.1466 91.8817 31.8124 92.1131 31.5296C92.3445 31.2467 92.653 31.0153 93.013 30.861C93.373 30.6811 93.8101 30.6039 94.2986 30.6039C94.71 30.6039 95.0957 30.6811 95.4042 30.8353C95.6356 30.9382 95.8927 31.1182 96.1499 31.401C96.2784 31.5038 96.5098 31.8895 96.6127 32.2495V32.2495ZM92.7559 33.0723H95.5071C95.4814 32.7123 95.4042 32.4038 95.2499 32.1466C95.0185 31.7867 94.6843 31.581 94.17 31.581C93.6558 31.581 93.2958 31.7867 93.0644 32.1466C92.9102 32.378 92.833 32.6866 92.7559 33.0723ZM65.5784 32.2495C65.8355 33.1237 65.707 33.8693 65.707 33.9208C65.707 34.0236 65.6041 34.0236 65.6041 34.0236H61.7216C61.7473 34.615 61.8759 35.0264 62.1844 35.3092C62.4673 35.592 62.9044 35.772 63.5215 35.772C64.4471 35.772 64.8328 35.592 65.1156 35.4892C65.1156 35.4892 65.2184 35.4635 65.2699 35.5663L65.527 36.2863C65.5784 36.4148 65.527 36.4405 65.5013 36.4662C65.2699 36.5948 64.6785 36.8519 63.5472 36.8519C63.0072 36.8519 62.5187 36.7748 62.133 36.6205C61.7473 36.4662 61.4131 36.2606 61.156 35.9777C60.8988 35.6949 60.7189 35.3606 60.5903 35.0007C60.4617 34.615 60.4103 34.2036 60.4103 33.7665C60.4103 33.3294 60.4617 32.918 60.5903 32.5323C60.6932 32.1466 60.8731 31.8124 61.1045 31.5296C61.336 31.2467 61.6445 31.0153 62.0045 30.861C62.3644 30.6811 62.8015 30.6039 63.2901 30.6039C63.7014 30.6039 64.0871 30.6811 64.3957 30.8353C64.6271 30.9382 64.8842 31.1182 65.1413 31.401C65.2442 31.5038 65.5013 31.8895 65.5784 32.2495V32.2495ZM61.7216 33.0723H64.4985C64.4728 32.7123 64.3957 32.4038 64.2414 32.1466C64.01 31.7867 63.6757 31.581 63.1615 31.581C62.6473 31.581 62.2873 31.7867 62.0559 32.1466C61.8759 32.378 61.7988 32.6866 61.7216 33.0723ZM54.908 32.8666C54.908 32.8666 55.2165 32.8923 55.5508 32.9437V32.7894C55.5508 32.2752 55.4479 32.0181 55.2422 31.8638C55.0365 31.7095 54.7023 31.6067 54.2909 31.6067C54.2909 31.6067 53.3396 31.6067 52.5939 31.9924C52.5682 32.0181 52.5425 32.0181 52.5425 32.0181C52.5425 32.0181 52.4396 32.0438 52.4139 31.9667L52.1311 31.221C52.0797 31.1182 52.1568 31.0667 52.1568 31.0667C52.5168 30.7839 53.3396 30.6296 53.3396 30.6296C53.6224 30.5782 54.0852 30.5268 54.368 30.5268C55.1394 30.5268 55.7308 30.7068 56.1421 31.0667C56.5535 31.4267 56.7592 31.9924 56.7592 32.7894V36.3377C56.7592 36.3377 56.7592 36.4405 56.6821 36.4662C56.6821 36.4662 56.5278 36.5177 56.3993 36.5434C56.2707 36.5691 55.8079 36.6719 55.4222 36.7234C55.0365 36.8005 54.6509 36.8262 54.2395 36.8262C53.8538 36.8262 53.5195 36.8005 53.211 36.7234C52.9024 36.6462 52.6453 36.5434 52.4139 36.3891C52.2082 36.2348 52.0282 36.0291 51.8997 35.772C51.7711 35.5406 51.7197 35.2321 51.7197 34.8978C51.7197 34.5636 51.7968 34.255 51.9254 33.9979C52.054 33.7408 52.2597 33.5351 52.4911 33.3551C52.7225 33.1751 53.0053 33.0723 53.2881 32.9694C53.5967 32.8923 53.9052 32.8409 54.2395 32.8409C54.548 32.8666 54.7537 32.8666 54.908 32.8666V32.8666ZM53.3653 35.592C53.3653 35.592 53.7252 35.8749 54.4966 35.8234C55.0622 35.7977 55.5508 35.6949 55.5508 35.6949V33.9208C55.5508 33.9208 55.0622 33.8436 54.4966 33.8436C53.6995 33.8436 53.3653 34.1265 53.3653 34.1265C53.1339 34.2807 53.031 34.5379 53.031 34.8721C53.031 35.0778 53.0824 35.2578 53.1596 35.3863C53.1853 35.4378 53.211 35.4892 53.3653 35.592ZM86.1479 30.8868C86.1222 30.9896 85.9165 31.5296 85.8651 31.7095C85.8394 31.7867 85.788 31.8124 85.7108 31.8124C85.7108 31.8124 85.4794 31.761 85.2737 31.761C85.1452 31.761 84.9395 31.7867 84.7595 31.8381C84.5795 31.8895 84.4252 31.9924 84.271 32.1209C84.1167 32.2495 84.0138 32.4552 83.9367 32.6866C83.8596 32.918 83.8082 33.3037 83.8082 33.7151V36.5948C83.8082 36.6719 83.7567 36.7234 83.6796 36.7234H82.6511C82.574 36.7234 82.5226 36.6719 82.5226 36.5948V30.8096C82.5226 30.7325 82.574 30.6811 82.6254 30.6811H83.6282C83.7053 30.6811 83.731 30.7325 83.731 30.8096V31.2724C83.8853 31.0667 84.1424 30.8868 84.3738 30.7839C84.6052 30.6811 84.8881 30.6039 85.3766 30.6296C85.6337 30.6553 85.968 30.7068 86.0194 30.7325C86.1222 30.7582 86.1736 30.7839 86.1479 30.8868V30.8868ZM76.6088 28.2127C76.6345 28.2127 76.7117 28.2641 76.686 28.3413L76.3774 29.1641C76.3517 29.2155 76.326 29.2669 76.1974 29.2155C76.1717 29.2155 76.1203 29.1898 75.9917 29.1641C75.9146 29.1383 75.786 29.1383 75.6832 29.1383C75.5289 29.1383 75.4004 29.1641 75.2718 29.1898C75.1432 29.2155 75.0404 29.2926 74.9375 29.3955C74.8173 29.5128 74.7212 29.6526 74.6547 29.8069C74.5004 30.2182 74.449 30.6553 74.449 30.6811H75.6832C75.786 30.6811 75.8118 30.7325 75.8118 30.8096L75.6575 31.6067C75.6318 31.7352 75.5289 31.7095 75.5289 31.7095H74.2433L73.4205 36.6719C73.3177 37.1862 73.2148 37.6233 73.0863 37.9833C72.9577 38.3432 72.8035 38.6003 72.572 38.8575C72.3664 39.0889 72.1349 39.2689 71.8521 39.346C71.595 39.4488 71.2607 39.5003 70.9008 39.5003C70.7208 39.5003 70.5408 39.5003 70.3351 39.4488C70.1808 39.4231 70.1037 39.3974 69.9752 39.346C69.9237 39.3203 69.898 39.2689 69.9237 39.1917C69.9494 39.1146 70.1808 38.4975 70.2066 38.3946C70.258 38.2918 70.3351 38.3432 70.3351 38.3432C70.4123 38.3689 70.4637 38.3946 70.5408 38.4204C70.6437 38.4461 70.7465 38.4461 70.8494 38.4461C71.0293 38.4461 71.1836 38.4204 71.3122 38.3689C71.4664 38.3175 71.5693 38.2147 71.6721 38.0861C71.775 37.9575 71.8521 37.7776 71.955 37.5462C72.0321 37.3147 72.1092 36.9805 72.1864 36.5948L73.0606 31.7352H72.2121C72.1092 31.7352 72.0835 31.6838 72.0835 31.6067L72.2378 30.8096C72.2635 30.6811 72.3664 30.7068 72.3664 30.7068H73.2406L73.292 30.4497C73.4205 29.6783 73.6777 29.0869 74.0633 28.7012C74.449 28.3156 75.0147 28.1099 75.7089 28.1099C75.9146 28.1099 76.0946 28.1356 76.2489 28.1613C76.3517 28.1356 76.4803 28.1613 76.6088 28.2127V28.2127ZM59.279 36.5691C59.279 36.6462 59.2276 36.6977 59.1762 36.6977H58.1477C58.0705 36.6977 58.0448 36.6462 58.0448 36.5691V28.3156C58.0448 28.2641 58.0963 28.187 58.1477 28.187H59.1762C59.2533 28.187 59.279 28.2384 59.279 28.3156V36.5691Z" fill="white"/>
</svg>
