<svg width="142" height="71" viewBox="0 0 142 71" fill="none" xmlns="http://www.w3.org/2000/svg">
<rect width="140.387" height="70.1936" transform="translate(0.806641 0.0322266)" fill="white"/>
<path d="M30.5039 15.085V55.1523H71.4337L111.496 15.0895H30.5039V15.085Z" fill="url(#paint0_linear_27_4871)"/>
<path d="M82.3481 51.057V54.0452H82.7991V52.7485H83.3065L84.124 54.0452H84.6315L83.7575 52.7485C84.1942 52.6943 84.5469 52.4404 84.5469 51.9027C84.5469 51.3137 84.1864 51.057 83.4757 51.057H82.3481ZM82.7991 51.4517H83.4192C83.7242 51.4517 84.0677 51.5013 84.0677 51.8745C84.0677 52.341 83.7199 52.382 83.3347 52.382H82.7991V51.4517ZM83.3629 49.9575C81.9322 49.9575 80.7129 51.06 80.7129 52.5511C80.7129 54.0531 81.9321 55.1729 83.3629 55.1729C84.7738 55.1729 85.9565 54.0533 85.9565 52.5511C85.9565 51.06 84.7738 49.9575 83.3629 49.9575ZM83.3629 50.3804C84.5302 50.3804 85.449 51.3234 85.449 52.5511C85.449 53.7998 84.5302 54.7218 83.3629 54.7218C82.1757 54.7218 81.2204 53.7998 81.2204 52.5511C81.2204 51.3234 82.1757 50.3804 83.3629 50.3804Z" fill="#1870C5"/>
<path fill-rule="evenodd" clip-rule="evenodd" d="M79.0353 34.2567H77.2797V27.8363H79.0353C81.3789 27.8363 83.2445 28.6085 83.2445 31.0054C83.2445 33.4808 81.3789 34.2567 79.0353 34.2567V34.2567ZM60.1405 38.8466C59.2113 38.8466 58.3399 38.677 57.5866 38.3937L60.1152 30.4191H60.1694L62.6457 38.4154C61.8996 38.6824 61.0507 38.8466 60.1432 38.8466H60.1405ZM78.5698 22.6203H70.5978V41.5764L63.6335 22.6203H56.7305L50.7802 38.4686C50.1514 34.4741 46.0134 33.0911 42.7604 32.06C40.6161 31.3699 38.3337 30.3559 38.3545 29.2328C38.3725 28.3144 39.5805 27.4628 41.9629 27.59C43.5687 27.6712 44.985 27.8011 47.7969 29.1606L50.5664 24.3361C48.0008 23.0253 44.4456 22.2026 41.5371 22.1963H41.5191C38.1263 22.1963 35.299 23.3023 33.5453 25.1128C32.3266 26.3794 31.6671 27.9815 31.6374 29.765C31.5923 32.2079 32.4917 33.9418 34.3744 35.3284C35.9675 36.4957 38 37.2472 39.7952 37.8101C42.0098 38.493 43.8177 39.0893 43.7969 40.3604C43.7789 40.8231 43.6066 41.2571 43.2719 41.5999C42.7207 42.1727 41.8736 42.3847 40.7018 42.4109C38.4429 42.456 36.7677 42.1041 34.0992 40.5272L31.6374 45.4194C34.2977 46.9341 37.447 47.8199 40.6612 47.8199H41.0771C43.8736 47.7658 46.1325 46.9674 47.9376 45.5168L48.2299 45.2615L47.4324 47.405H54.6719L55.8879 43.7072C57.1599 44.1375 58.6087 44.3793 60.1423 44.3793C61.6389 44.3793 63.0507 44.1537 64.3001 43.7424L65.4693 47.405H77.2815V39.746H79.8589C86.0835 39.746 89.7695 36.5778 89.7695 31.2607C89.7695 25.3429 86.1899 22.6284 78.5689 22.6284" fill="white"/>
<defs>
<linearGradient id="paint0_linear_27_4871" x1="70.9718" y1="15.1066" x2="70.9718" y2="55.1532" gradientUnits="userSpaceOnUse">
<stop stop-color="#00B8F1"/>
<stop offset="0.2199" stop-color="#06A5E5"/>
<stop offset="0.7943" stop-color="#1870C5"/>
<stop offset="1" stop-color="#1D61BC"/>
</linearGradient>
</defs>
</svg>
