<svg width="180" height="40" viewBox="0 0 180 40" fill="none" xmlns="http://www.w3.org/2000/svg">
<g clip-path="url(#clip0_27_5149)">
<path d="M34.6289 13.6196H14.5698C14.1872 13.6196 13.877 13.9298 13.877 14.3125V16.6479C13.877 17.0305 14.1872 17.3407 14.5698 17.3407H34.6289C35.0115 17.3407 35.3218 17.0305 35.3218 16.6479V14.3125C35.3218 13.9298 35.0115 13.6196 34.6289 13.6196Z" fill="#52BD94"/>
<path d="M21.3603 22.917H1.30126C0.918603 22.917 0.608398 23.2272 0.608398 23.6099V25.9452C0.608398 26.3279 0.918603 26.6381 1.30126 26.6381H21.3603C21.743 26.6381 22.0532 26.3279 22.0532 25.9452V23.6099C22.0532 23.2272 21.743 22.917 21.3603 22.917Z" fill="#52BD94"/>
<path fill-rule="evenodd" clip-rule="evenodd" d="M3.18117 16.1655C3.35714 16.211 3.54392 16.1857 3.70149 16.0951C3.85907 16.0046 3.97492 15.8559 4.02424 15.681C5.13496 12.2042 7.50454 9.26789 10.6682 7.44784C13.8319 5.62779 17.5614 5.05537 21.1253 5.84283C21.2978 5.87837 21.4773 5.84643 21.6269 5.75359C21.7766 5.66076 21.8849 5.51408 21.9296 5.34378L22.5353 3.0835C22.559 2.99276 22.564 2.89817 22.5502 2.80541C22.5364 2.71266 22.504 2.62366 22.4549 2.54376C22.4057 2.46387 22.341 2.39474 22.2645 2.34053C22.1879 2.28632 22.1012 2.24815 22.0096 2.22832C17.5059 1.21458 12.7856 1.93523 8.78955 4.24664C4.79352 6.55805 1.81529 10.2904 0.448489 14.6998C0.422755 14.7883 0.414914 14.881 0.425424 14.9725C0.435933 15.064 0.464583 15.1525 0.509698 15.2328C0.554812 15.3131 0.615485 15.3836 0.688169 15.4402C0.760853 15.4967 0.844088 15.5382 0.933007 15.5623L3.18117 16.1655Z" fill="#52BD94"/>
<path fill-rule="evenodd" clip-rule="evenodd" d="M32.7537 24.0825C32.5764 24.0349 32.3875 24.059 32.2279 24.1497C32.0682 24.2404 31.9508 24.3903 31.901 24.5671C30.7926 28.046 28.4241 30.9852 25.2601 32.8076C22.0962 34.6301 18.3654 35.2042 14.7999 34.4173C14.6274 34.3812 14.4476 34.4128 14.2978 34.5058C14.148 34.5987 14.0398 34.7458 13.9956 34.9164L13.4021 37.1645C13.378 37.2554 13.3726 37.3503 13.3863 37.4433C13.3999 37.5363 13.4323 37.6257 13.4814 37.7058C13.5306 37.786 13.5954 37.8554 13.6722 37.9097C13.7489 37.9641 13.8358 38.0023 13.9278 38.0221C18.4316 39.0334 23.1511 38.3114 27.1467 35.9999C31.1422 33.6883 34.1206 29.9568 35.4888 25.5482C35.5149 25.4599 35.523 25.3673 35.5126 25.2759C35.5022 25.1844 35.4736 25.096 35.4284 25.0158C35.3832 24.9356 35.3224 24.8653 35.2496 24.809C35.1767 24.7527 35.0933 24.7116 35.0043 24.6882L32.7537 24.0825Z" fill="#52BD94"/>
<path d="M28.5672 9.53521C29.6937 9.53521 30.607 8.62195 30.607 7.49539C30.607 6.36883 29.6937 5.45557 28.5672 5.45557C27.4406 5.45557 26.5273 6.36883 26.5273 7.49539C26.5273 8.62195 27.4406 9.53521 28.5672 9.53521Z" fill="#52BD94"/>
<path d="M7.36697 34.8004C8.49354 34.8004 9.4068 33.8871 9.4068 32.7605C9.4068 31.634 8.49354 30.7207 7.36697 30.7207C6.24041 30.7207 5.32715 31.634 5.32715 32.7605C5.32715 33.8871 6.24041 34.8004 7.36697 34.8004Z" fill="#52BD94"/>
<path fill-rule="evenodd" clip-rule="evenodd" d="M85.2773 16.4295C86.0211 15.6127 86.9298 14.9632 87.9434 14.5238C88.957 14.0845 90.0523 13.8653 91.1569 13.8809C93.3033 13.8809 94.9749 14.5447 96.0312 15.819V14.7628C96.0381 14.6168 96.0989 14.4785 96.2018 14.3747C96.3047 14.2709 96.4424 14.2089 96.5884 14.2007H99.418C99.5637 14.2095 99.7011 14.2716 99.8039 14.3753C99.9067 14.479 99.9677 14.6169 99.9751 14.7628V30.4733C100.063 32.6902 99.3778 34.8687 98.0371 36.6364C96.5108 38.4921 94.1948 39.432 91.1521 39.432C86.9222 39.432 83.5839 36.7551 83.034 32.9322C83.0206 32.7943 83.0559 32.6561 83.1338 32.5415C83.2117 32.4269 83.3272 32.3431 83.4603 32.3048L86.2245 31.6555C86.239 31.6544 86.2536 31.6544 86.2681 31.6555C86.3402 31.6445 86.4138 31.6479 86.4845 31.6655C86.5553 31.6831 86.6219 31.7146 86.6805 31.7581C86.739 31.8015 86.7884 31.8562 86.8257 31.9188C86.8631 31.9815 86.8876 32.0509 86.898 32.1231C87.0214 33.1574 87.5264 34.1084 88.3141 34.79C89.1018 35.4715 90.1156 35.8345 91.1569 35.8078C94.4613 35.8078 96.0021 34.112 96.0021 30.5678V29.1917C95.3957 29.8712 94.6474 30.4091 93.8101 30.7675C92.9729 31.1258 92.0671 31.2958 91.1569 31.2655C86.4547 31.2655 83.0436 27.6146 83.0436 22.5902C83.0019 20.3312 83.7975 18.1368 85.2773 16.4295V16.4295ZM140.147 13.6653H140.294C145.35 13.7332 148.483 17.2532 148.483 22.8857C148.482 23.1843 148.466 23.4827 148.434 23.7797C148.418 23.9127 148.354 24.0353 148.255 24.1245C148.155 24.2137 148.026 24.2634 147.892 24.2642H135.873C135.909 25.4774 136.421 26.6277 137.298 27.4667C138.175 28.3058 139.347 28.7661 140.561 28.7484C141.511 28.8078 142.454 28.5433 143.235 27.9982C144.016 27.4531 144.589 26.6595 144.861 25.7468C144.911 25.6133 145.011 25.5044 145.14 25.4426C145.268 25.3807 145.416 25.3708 145.551 25.4149L147.943 26.2628C148.012 26.2854 148.075 26.3223 148.129 26.3711C148.183 26.42 148.226 26.4797 148.255 26.5463C148.288 26.6106 148.307 26.6809 148.312 26.7529C148.317 26.8249 148.308 26.8971 148.284 26.9654C147.742 28.5722 146.697 29.9622 145.305 30.9305C143.913 31.8988 142.246 32.3942 140.551 32.3435C139.422 32.3545 138.301 32.1414 137.254 31.7164C136.208 31.2914 135.256 30.663 134.454 29.8676C133.578 28.947 132.895 27.8607 132.446 26.6725C131.996 25.4843 131.788 24.2183 131.835 22.9487C131.835 17.1345 136.06 13.6532 140.142 13.6532L140.147 13.6653ZM72.1492 13.6653C77.2948 13.6653 80.4926 17.1999 80.4926 22.8881C80.4922 23.1868 80.476 23.4852 80.4442 23.7821C80.4298 23.9157 80.3663 24.0392 80.2661 24.1287C80.1658 24.2182 80.0359 24.2674 79.9015 24.2666H67.883C67.9167 25.4867 68.4315 26.6439 69.3152 27.4858C70.1988 28.3277 71.3796 28.7859 72.5998 28.7605C73.5505 28.8208 74.4935 28.5567 75.2746 28.0115C76.0557 27.4662 76.6287 26.6721 76.8999 25.7589C76.9488 25.6243 77.0484 25.5141 77.1775 25.4521C77.3065 25.3901 77.4548 25.3811 77.5904 25.427L79.9912 26.2725C80.0604 26.2948 80.1241 26.3316 80.178 26.3805C80.2319 26.4294 80.2748 26.4892 80.3037 26.556C80.3312 26.6224 80.3454 26.6936 80.3454 26.7655C80.3454 26.8374 80.3312 26.9086 80.3037 26.9751C79.7615 28.5811 78.718 29.9705 77.3267 30.9387C75.9354 31.907 74.2699 32.4028 72.5756 32.3532C71.444 32.3654 70.3213 32.1529 69.2725 31.7279C68.2237 31.3028 67.2697 30.6738 66.4658 29.8773C65.592 28.9556 64.9104 27.8691 64.4608 26.6812C64.0111 25.4933 63.8025 24.2278 63.847 22.9584C63.847 17.1442 68.072 13.6629 72.1565 13.6629L72.1492 13.6653ZM53.9459 13.6653C56.2546 13.6653 58.1224 14.2249 59.5057 15.3321C60.4398 16.0771 61.1327 17.0819 61.4971 18.2198C61.5086 18.2682 61.5103 18.3183 61.5022 18.3674C61.4941 18.4164 61.4764 18.4634 61.45 18.5055C61.4237 18.5477 61.3892 18.5842 61.3486 18.6129C61.308 18.6416 61.2622 18.662 61.2136 18.6728L58.3477 19.6201C58.2205 19.6685 58.08 19.6685 57.9528 19.6201C57.8988 19.5951 57.8507 19.5588 57.8118 19.5137C57.7729 19.4685 57.7442 19.4156 57.7275 19.3584C57.4853 18.4306 56.6519 16.8728 53.941 16.8728C52.049 16.8728 50.9152 17.9582 50.9152 19.0096C50.9152 19.7073 51.2762 20.6061 52.9817 20.9307L56.131 21.5218C59.6511 22.2316 61.6667 24.1576 61.6667 26.8394V26.7934C61.6667 29.4582 59.1036 32.3048 54.3408 32.3048C48.8172 32.3048 46.6466 29.1796 46.2469 27.336C46.2336 27.2397 46.2562 27.1419 46.3102 27.0611C46.3642 26.9803 46.446 26.9221 46.54 26.8975L49.4956 25.977C49.5484 25.9673 49.6026 25.9673 49.6555 25.977C49.7398 25.9754 49.8232 25.9954 49.8977 26.0351C49.9513 26.0609 49.9986 26.0981 50.0363 26.1441C50.074 26.1902 50.1011 26.2439 50.1157 26.3016C50.4888 28.0749 52.0902 29.1312 54.394 29.1312C56.538 29.1312 57.5143 28.0095 57.5143 26.992C57.5143 25.9745 56.6446 25.2259 55.1499 24.9255L51.8358 24.2811C48.7446 23.6973 46.8186 21.7762 46.8186 19.2761C46.8186 16.2333 50.0867 13.6653 53.9459 13.6653ZM175.693 8.73535C175.844 8.74461 175.985 8.81096 176.088 8.92082C176.191 9.03069 176.248 9.17579 176.248 9.32646V14.1717H179.356C179.506 14.1827 179.645 14.2497 179.747 14.3593C179.849 14.4689 179.906 14.613 179.906 14.7628V17.3453C179.907 17.4922 179.849 17.6335 179.746 17.7383C179.643 17.8431 179.503 17.903 179.356 17.9049H176.248V26.5269C176.248 27.9562 176.815 28.5473 178.273 28.5473C178.606 28.5418 178.938 28.5142 179.267 28.465C179.346 28.4514 179.428 28.4554 179.506 28.4767C179.583 28.4981 179.656 28.5362 179.717 28.5885C179.776 28.643 179.823 28.709 179.856 28.7823C179.888 28.8556 179.905 28.9347 179.906 29.0149V31.4375C179.907 31.558 179.869 31.6756 179.797 31.7726C179.726 31.8696 179.624 31.9407 179.509 31.9753C178.8 32.1742 178.065 32.2696 177.329 32.2587C174.213 32.2587 172.282 30.2553 172.282 27.0235V17.9412H169.593C169.448 17.9324 169.311 17.8702 169.208 17.7664C169.106 17.6627 169.045 17.5248 169.038 17.3792V14.7918C169.038 14.641 169.095 14.4956 169.198 14.3856C169.301 14.2756 169.443 14.2094 169.593 14.2007H170.291C171.136 14.2007 172.561 13.9052 172.561 11.8896V9.32646C172.56 9.17562 172.617 9.03019 172.72 8.9202C172.824 8.81021 172.965 8.74404 173.116 8.73535H175.693ZM117.357 16.5531C117.965 15.6244 118.804 14.8699 119.791 14.3635C120.779 13.8572 121.881 13.6166 122.99 13.6653V13.6653C126.062 13.6653 129.165 15.8287 129.165 20.5552V31.4956C129.157 31.6414 129.097 31.7794 128.994 31.8831C128.891 31.9868 128.754 32.0489 128.608 32.0577H125.776C125.63 32.0483 125.494 31.9859 125.391 31.8823C125.289 31.7787 125.228 31.641 125.221 31.4956V20.9065C125.221 19.5668 124.802 17.3089 121.965 17.3089C119.891 17.3089 118.418 18.9393 118.418 21.3038V31.4956C118.411 31.6412 118.351 31.7791 118.249 31.8829C118.146 31.9866 118.009 32.0489 117.864 32.0577H114.995C114.849 32.0489 114.712 31.9868 114.609 31.8831C114.506 31.7794 114.446 31.6414 114.438 31.4956V20.9065C114.443 19.5668 114.026 17.2992 111.187 17.2992C109.031 17.2992 107.577 18.9175 107.577 21.328V31.4956C107.57 31.641 107.509 31.7787 107.407 31.8823C107.305 31.9859 107.168 32.0483 107.022 32.0577H104.193C104.048 32.0477 103.912 31.985 103.811 31.8813C103.71 31.7777 103.65 31.6404 103.643 31.4956V14.7264C103.65 14.5818 103.71 14.4448 103.811 14.3413C103.913 14.2378 104.048 14.1748 104.193 14.1644H106.916C107.061 14.1737 107.198 14.2361 107.3 14.3397C107.403 14.4434 107.463 14.581 107.471 14.7264V15.7366C108.077 15.0731 108.817 14.5455 109.642 14.1885C110.467 13.8315 111.359 13.6532 112.258 13.6653C113.29 13.6351 114.312 13.8883 115.211 14.3973C116.11 14.9064 116.852 15.6519 117.357 16.5531V16.5531ZM160.506 13.6653C161.412 13.6266 162.314 13.7942 163.146 14.1556C163.977 14.5169 164.716 15.0626 165.305 15.7512C166.405 17.1991 166.965 18.9857 166.887 20.8023V31.4956C166.881 31.6402 166.822 31.7775 166.721 31.8812C166.62 31.9848 166.484 32.0477 166.34 32.0577H163.474C163.328 32.0484 163.191 31.9861 163.088 31.8825C162.986 31.7789 162.925 31.6413 162.917 31.4956V21.374C162.917 18.7261 161.671 17.3792 159.307 17.3792C158.792 17.3626 158.281 17.4673 157.814 17.6849C157.347 17.9025 156.938 18.2268 156.62 18.6316C155.979 19.5536 155.655 20.6589 155.697 21.781V31.4956C155.69 31.641 155.629 31.7787 155.527 31.8823C155.425 31.9859 155.288 32.0483 155.142 32.0577H152.281C152.136 32.0483 151.999 31.9859 151.897 31.8823C151.795 31.7787 151.734 31.641 151.727 31.4956V14.7143C151.732 14.5681 151.792 14.4293 151.895 14.3249C151.998 14.2206 152.135 14.1582 152.281 14.1498H155.077C155.221 14.1592 155.357 14.2215 155.459 14.3247C155.56 14.4279 155.62 14.5649 155.627 14.7095V15.8917C156.22 15.1766 156.966 14.6048 157.811 14.2192C158.656 13.8337 159.578 13.6443 160.506 13.6653ZM91.6487 17.4155C88.8579 17.4155 87.0869 19.3996 87.0869 22.5902C87.0869 25.7807 88.8361 27.7624 91.6487 27.7624C94.3305 27.7624 96.1378 25.6814 96.1378 22.5902C96.1378 19.4989 94.3305 17.4155 91.6487 17.4155ZM72.1783 17.2556C71.1486 17.2378 70.1492 17.6049 69.3759 18.2851C68.6025 18.9653 68.1108 19.9095 67.9969 20.9331H76.4033C76.2022 18.6631 74.5888 17.2556 72.1783 17.2556V17.2556ZM140.193 17.2556C139.164 17.2396 138.166 17.6075 137.394 18.2874C136.622 18.9673 136.13 19.9106 136.016 20.9331H144.425C144.217 18.6631 142.613 17.2556 140.19 17.2556H140.193Z" fill="#52BD94"/>
<path d="M50.989 2.32533V7.96028H49.3925V2.32533H47.1855V0.958984H53.2202V2.32533H50.989Z" fill="#52BD94"/>
<path d="M63.1832 7.98451H61.5237L60.0023 2.82438L58.4543 7.98451H56.8287L54.7695 0.958984H56.4653L57.7711 6.01978L59.2441 0.958984H60.9399L62.3934 6.01978L63.658 0.958984H65.2182L63.1832 7.98451Z" fill="#52BD94"/>
<path d="M67.415 7.96028V0.958984H68.9873V7.96028H67.415Z" fill="#52BD94"/>
<path d="M71.8184 7.96028V0.958984H73.4148V6.58182H76.1475V7.96028H71.8184Z" fill="#52BD94"/>
<path d="M78.5254 7.96028V0.958984H80.1098V7.96028H78.5254Z" fill="#52BD94"/>
<path d="M86.0383 8.09356C84.1003 8.09356 82.5498 6.70299 82.5498 4.47178C82.5498 2.24057 84.1221 0.837891 86.0504 0.837891C87.9788 0.837891 89.5366 2.22846 89.5366 4.47178C89.5366 6.7151 87.9764 8.09356 86.0383 8.09356ZM86.0383 2.11944C84.827 2.11944 84.1221 3.11755 84.1221 4.45967C84.1221 5.80179 84.8488 6.81201 86.0383 6.81201C87.2278 6.81201 87.928 5.78967 87.928 4.47178C87.928 3.15389 87.2206 2.11944 86.0504 2.11944H86.0383Z" fill="#52BD94"/>
</g>
<defs>
<clipPath id="clip0_27_5149">
<rect width="179.5" height="38.6065" fill="white" transform="translate(0.407227 0.825684)"/>
</clipPath>
</defs>
</svg>
