<svg width="88" height="23" viewBox="0 0 88 23" fill="none" xmlns="http://www.w3.org/2000/svg">
<path d="M0.708984 1.02881H6.55038C11.5527 1.02881 14.7154 4.2561 14.7154 9.29067C14.7154 14.3252 11.5688 17.5525 6.55038 17.5525H0.708984V1.02881ZM6.42129 14.535C9.56789 14.535 11.2945 12.518 11.2945 9.30681C11.2945 6.07952 9.56789 4.06246 6.42129 4.06246H4.12991V14.535H6.42129V14.535Z" fill="#007EE5"/>
<path d="M23.574 8.8225C23.1221 8.54818 22.5251 8.41909 21.8958 8.41909C20.7662 8.41909 19.8464 9.01614 19.6044 10.1134V17.5685H16.2803V5.53067H19.6205V6.70863C20.1369 5.8534 21.1212 5.25635 22.3153 5.25635C22.8801 5.25635 23.3964 5.3693 23.574 5.46612V8.8225Z" fill="#007EE5"/>
<path d="M30.238 17.8428C26.7364 17.8428 24.332 15.2609 24.332 11.5657C24.332 7.85432 26.7364 5.25635 30.238 5.25635C33.7396 5.25635 36.1278 7.83818 36.1278 11.5657C36.1278 15.2609 33.7396 17.8428 30.238 17.8428ZM30.238 8.09636C28.5598 8.09636 27.6561 9.54864 27.6561 11.5657C27.6561 13.5505 28.5759 15.0189 30.238 15.0189C31.9 15.0189 32.8198 13.5666 32.8198 11.5657C32.8198 9.54864 31.9 8.09636 30.238 8.09636Z" fill="#007EE5"/>
<path d="M40.9047 22.0221H37.5645V5.53064H40.9047V6.5311C41.4372 5.88565 42.6313 5.27246 43.9222 5.27246C47.4238 5.27246 49.4086 8.17702 49.4086 11.5818C49.4086 14.9705 47.4238 17.8589 43.9222 17.8589C42.6313 17.8589 41.4372 17.2457 40.9047 16.6002V22.0221V22.0221ZM40.9047 13.5343C41.3081 14.3734 42.1956 14.9382 43.1638 14.9382C44.9711 14.9382 46.0522 13.4859 46.0522 11.5657C46.0522 9.6293 44.9711 8.17702 43.1638 8.17702C42.1633 8.17702 41.3081 8.77407 40.9047 9.58089V13.5343Z" fill="#007EE5"/>
<path d="M54.2172 17.5686H50.8447V0.0605469H54.2172V6.53126C54.7497 5.8858 55.9438 5.27262 57.2348 5.27262C60.7364 5.27262 62.705 8.12877 62.705 11.582C62.705 15.0352 60.7364 17.8591 57.2348 17.8591C55.9438 17.8591 54.7497 17.2459 54.2172 16.6004V17.5686ZM54.2172 13.5345C54.5884 14.3736 55.4759 14.9384 56.4763 14.9384C58.2836 14.9384 59.3648 13.4861 59.3648 11.5658C59.3648 9.62946 58.2836 8.17718 56.4763 8.17718C55.5082 8.17718 54.5884 8.77423 54.2172 9.58105V13.5345Z" fill="#007EE5"/>
<path d="M69.8054 17.875C66.3038 17.875 63.8994 15.2932 63.8994 11.5979C63.8994 7.88654 66.3038 5.28857 69.8054 5.28857C73.307 5.28857 75.6952 7.87041 75.6952 11.5979C75.6952 15.2932 73.2908 17.875 69.8054 17.875ZM69.8054 8.12859C68.1272 8.12859 67.2235 9.58087 67.2235 11.5979C67.2235 13.5827 68.1433 15.0511 69.8054 15.0511C71.4674 15.0511 72.3872 13.5988 72.3872 11.5979C72.3872 9.58087 71.4674 8.12859 69.8054 8.12859Z" fill="#007EE5"/>
<path d="M83.198 11.356L87.5871 17.5847H83.8919L81.3101 13.8087L78.6959 17.5847H75.1943L79.535 11.4367L75.4525 5.54688H79.1478L81.4714 8.9678L83.8273 5.54688H87.3289L83.198 11.356Z" fill="#007EE5"/>
</svg>
